<svg width="562" height="471" viewBox="0 0 562 471" fill="none" xmlns="http://www.w3.org/2000/svg">
<path d="M441.009 301.227C439.815 315.063 433.883 328.067 426.851 340.051C419.819 352.022 411.592 363.308 405.151 375.6C399.193 386.94 394.818 399.004 390.926 411.217C389.96 414.21 389.034 417.189 388.121 420.181C393.932 418.96 400.333 421.214 404.104 425.791C407.875 430.381 408.855 437.104 406.533 442.566C406.251 443.25 405.875 443.948 405.218 444.311C404.668 444.606 404.01 444.606 403.379 444.593C391.502 444.419 379.612 444.231 367.736 444.056C366.313 444.029 364.81 443.989 363.562 443.291C362.086 442.446 361.254 440.808 360.542 439.265C356.288 429.898 353.631 419.82 352.664 409.567C352.181 404.494 352.114 399.381 352.476 394.295C350.356 394.362 348.235 394.429 346.101 394.496C348.879 390.269 350.919 385.558 352.127 380.647C347.766 381.627 343.203 381.6 338.855 380.58C342.72 375.199 350.101 366.489 347.082 359.658C343.633 351.874 339.178 344.762 336.413 336.602C331.22 321.183 330.401 304.018 335.863 288.679C341.311 273.353 353.403 260.148 368.836 254.955C376.633 252.325 384.994 251.761 393.22 252.083C405.513 252.566 418.342 255.277 427.589 263.383C438.03 272.535 442.203 287.391 441.009 301.227Z" fill="#B25109"/>
<path d="M406.533 442.566C406.251 443.25 405.875 443.948 405.218 444.311C404.668 444.606 404.01 444.606 403.379 444.593C391.502 444.419 379.612 444.231 367.736 444.056C366.313 444.029 364.81 443.989 363.562 443.291C362.086 442.446 361.254 440.808 360.542 439.265C356.288 429.898 353.631 419.82 352.664 409.567C354.878 406.963 358.824 404.266 359.857 401.783C357.602 407.245 360.729 414.277 366.285 416.25C373.102 418.679 380.564 413.767 384.415 407.648C384.066 409.151 383.717 410.641 383.382 412.144C385.878 412.815 388.401 411.983 390.924 411.218C389.958 414.211 389.032 417.19 388.119 420.182C393.93 418.961 400.331 421.215 404.102 425.792C407.875 430.381 408.855 437.104 406.533 442.566Z" fill="#E0BB86"/>
<path d="M104.731 408.032C99.8855 413.937 96.6385 420.862 96.9205 428.404C105.201 424.66 116.071 428.283 120.446 436.255C122.54 440.066 122.687 445.77 118.889 447.89C117.211 448.816 115.198 448.803 113.279 448.749C98.1675 448.4 83.0435 448.038 67.9325 447.689C65.4095 438.322 63.9335 428.673 63.5035 418.984C62.7515 402.102 65.1805 385.085 70.7365 369.129C64.0265 375.329 55.3975 379.422 46.3525 380.684C55.0085 372.592 61.2885 361.977 64.2145 350.489C59.0215 351.845 53.8275 353.2 48.6475 354.555C62.3085 343.296 68.1335 326.024 75.0585 310.363C81.7685 295.225 95.3625 290.018 111.615 288.837C129.464 287.522 150.036 292.809 158.088 308.792C160.692 313.945 161.712 319.756 162.168 325.513C163.617 343.684 159.108 363.076 146.426 376.174C137.716 385.166 126.001 390.48 115.842 397.78C111.804 400.678 107.925 404.14 104.731 408.032Z" fill="#B25109"/>
<path d="M118.889 447.889C117.211 448.815 115.198 448.802 113.279 448.748C98.1679 448.399 83.0439 448.037 67.9329 447.688C65.4099 438.321 63.9339 428.672 63.5039 418.983C63.8529 418.5 64.2289 418.017 64.6039 417.547C65.9329 415.883 71.3679 411.025 71.4349 408.999C71.3679 411.321 71.5019 413.642 71.8509 415.937C71.9849 416.836 72.2399 417.869 73.0589 418.272C73.9449 418.728 75.0049 418.191 75.8639 417.668C82.1039 413.83 88.3579 410.005 94.5979 406.18C93.4839 409.374 92.9609 412.769 93.0549 416.151C95.7119 412.823 99.2149 410.166 103.133 408.502C103.643 408.287 104.193 408.086 104.73 408.032C99.8849 413.937 96.6379 420.862 96.9199 428.404C105.2 424.66 116.07 428.283 120.445 436.255C122.54 440.065 122.687 445.769 118.889 447.889Z" fill="#E0BB86"/>
<path d="M478.156 107.058C478.129 107.649 478.022 108.252 477.82 108.803C477.686 109.206 477.484 109.581 477.243 109.93C474.962 113.111 470.761 111.098 467.782 109.205C461.756 105.394 455.194 102.388 448.377 100.294C442.902 98.6166 435.158 98.9646 430.394 95.8786C429.736 95.4496 429.106 94.9796 428.488 94.4696C422.288 89.3696 418.141 80.3786 415.283 72.0716C414.182 68.8646 413.27 65.7636 412.518 63.0266C409.203 51.0696 407.204 38.6826 402.292 27.2886C399.554 20.9276 395.891 14.8616 393.408 8.44663C392.012 4.86363 395.797 1.45464 399.232 3.19964C399.661 3.41464 400.077 3.62864 400.507 3.84364C420.543 14.1366 439.693 26.8726 454.294 44.0096C465.714 57.3896 474.182 73.7076 477.108 90.9396C478.008 96.2416 478.384 101.636 478.156 107.058Z" fill="#FF7D00"/>
<path d="M465.461 88.4176C455.893 88.5786 446.284 86.2166 437.869 81.6406C436.259 73.6556 435.668 65.3356 432.93 57.6856C429.656 48.5606 423.912 40.5486 417.765 33.0736C414.719 29.3826 411.337 24.9006 412.625 20.2976C429.118 27.1416 443.531 38.9116 453.529 53.7136C460.548 64.1006 465.365 75.9636 467.687 88.2836C466.95 88.3906 466.212 88.4036 465.461 88.4176Z" fill="#FFDCA2"/>
<path d="M469.259 104.146C469.259 104.575 469.259 105.018 469.232 105.448C462.428 102.818 455.477 100.563 448.418 98.6836C445.492 96.6306 442.272 95.2746 440.889 91.9736C439.493 88.6586 438.581 85.1836 437.87 81.6406C446.284 86.2166 455.893 88.5786 465.462 88.4176C466.214 88.4046 466.952 88.3906 467.69 88.2836C468.668 93.5036 469.205 98.8176 469.259 104.146Z" fill="#E0BB86"/>
<path d="M448.417 98.6836C441.855 96.9386 435.212 95.5296 428.488 94.4696C422.288 89.3696 418.141 80.3786 415.283 72.0716C417.457 72.1386 419.161 73.9096 420.705 75.4666C422.289 77.0636 424.409 78.6606 426.583 78.0706C427.106 77.9226 427.589 77.6546 428.113 77.4936C430.207 76.8896 432.313 78.2446 434.139 79.4396C435.347 80.2316 436.595 80.9696 437.87 81.6406C438.581 85.1836 439.494 88.6596 440.889 91.9736C442.271 95.2746 445.492 96.6306 448.417 98.6836Z" fill="#EA6A00"/>
<path d="M478.156 107.058C478.129 107.649 478.022 108.252 477.82 108.803C476.666 108.481 475.538 107.998 474.438 107.541C472.719 106.816 470.975 106.118 469.23 105.447C469.257 105.017 469.258 104.575 469.258 104.145C469.204 98.8166 468.668 93.5026 467.688 88.2816C468.238 88.2276 468.789 88.1336 469.325 87.9866C469.929 87.8126 470.533 87.5706 471.164 87.5306C472.627 87.4096 473.969 88.2956 475.109 89.2086C475.794 89.7586 476.464 90.3356 477.109 90.9396C478.008 96.2416 478.384 101.636 478.156 107.058Z" fill="#EA6A00"/>
<path d="M469.232 105.448C469.178 106.32 469.017 107.179 468.574 107.931C467.004 110.534 463.058 110.199 460.374 108.79C456.388 106.696 453.53 103.167 450.269 100.161C449.678 99.6106 449.061 99.1276 448.417 98.6846C455.476 100.563 462.428 102.817 469.232 105.448Z" fill="#FFDCA2"/>
<path d="M547.47 190.745C541.069 200.273 534.64 207.856 527.796 213.438C524.226 215.384 520.536 217.102 516.805 218.685C510.135 221.517 503.023 224.348 495.816 225.167C495.829 225.181 495.843 225.207 495.856 225.221C494.219 225.248 492.541 225.181 490.837 225.06C467.298 223.302 446.994 202.997 446.994 202.997C446.994 202.997 456.442 254.114 493.561 254.463L497.238 265.481C493.709 266.836 489.508 266.689 485.697 266.031C473.914 263.991 463.5 258.811 455.489 249.927C455.529 250.719 455.583 251.51 455.61 252.316C453.329 250.209 451.732 248.706 451.557 248.545C451.678 249.203 453.919 260.113 456.093 273.801C456.066 286.563 455.516 299.406 454.751 311.86C453.946 325.079 448.242 337.613 440.177 348.175C440.177 348.188 440.177 348.188 440.164 348.188C439.439 349.154 438.674 350.107 437.909 351.033C428.676 362.145 417.001 370.975 404.976 378.987C396.897 384.368 388.563 389.441 379.652 393.279C369.305 397.721 358.314 400.432 347.726 404.23C342.962 405.948 338.265 407.88 333.554 409.705C300.594 415.865 266.199 419.663 255.678 418.831C235.722 417.247 188.981 381.55 154.84 382.597C141.997 382.986 124.685 385.321 107.36 387.871C99.7906 388.985 92.2216 390.152 85.0156 391.213C64.9126 394.179 47.6806 396.366 41.4136 394.675C30.9866 391.857 27.2956 364.829 26.3696 348.014C26.1276 343.652 26.0876 339.989 26.1416 337.6V337.587C26.1546 337.131 26.1686 336.728 26.1956 336.379C26.1956 336.379 22.5186 345.317 16.2116 348.457C16.2116 348.457 19.3656 320.101 24.6126 302.252C29.8596 284.39 40.8906 275.989 40.8906 275.989C40.8906 275.989 18.3186 265.978 16.2116 254.182C14.1186 242.386 24.6126 222.954 24.6126 222.954C24.6126 222.954 23.7006 218.834 23.8346 213.815C24.0896 204.22 28.1556 191.31 49.6416 197.402C49.6416 197.402 49.6416 214.204 54.1906 221.209C58.7536 228.214 76.9506 242.56 76.9506 242.56C76.9506 242.56 94.1016 221.907 122.109 219.974C150.116 218.055 201.582 220.511 224.342 228.912C247.089 237.313 287.698 238.36 301.359 229.959C315.007 221.558 339.163 185.498 339.512 167.636C339.861 149.787 368.58 90.0946 407.954 89.5716C412.705 89.5176 417.281 89.4376 421.683 89.4236C433.479 89.3696 444.094 89.6916 453.717 91.5436C470.318 94.7246 483.966 102.441 495.655 120.558C516.657 153.115 509.316 153.638 516.657 156.443C516.993 156.564 517.341 156.684 517.717 156.765C521.944 157.852 528.695 156.966 535.23 155.987C540.88 155.128 546.355 154.175 549.925 154.336C554.099 154.524 557.695 157.691 557.91 164.119C558.126 170.119 555.402 178.922 547.47 190.745Z" fill="#FF7D00"/>
<path d="M487.704 134.449C487.392 136.079 487.265 137.755 487.464 139.404C487.899 143.02 489.881 146.309 492.404 148.935C493.864 150.454 495.571 151.82 497.59 152.425C499.608 153.03 501.983 152.754 503.527 151.319C504.911 150.032 505.431 148.021 505.327 146.134C505.223 144.247 504.574 142.438 503.931 140.661C502.299 136.149 500.545 130.895 496.819 127.629C492.219 123.599 488.466 130.473 487.704 134.449Z" fill="#EA6A00"/>
<path d="M427.223 144.848C425.014 150.094 425.336 156.148 427.089 161.563C427.904 164.079 429.084 166.59 431.139 168.254C434.159 170.699 438.603 170.812 442.188 169.313C445.772 167.814 448.612 164.94 450.954 161.84C451.877 160.618 452.742 159.346 453.433 157.979C455.738 153.419 455.922 147.773 453.644 143.2C447.829 131.531 432.005 133.489 427.223 144.848Z" fill="#EA6A00"/>
<path d="M454.966 148.164C454.966 149.452 454.765 150.7 454.416 151.868C454.403 151.881 454.403 151.881 454.403 151.895C452.819 156.981 448.055 160.685 442.446 160.685C435.535 160.685 429.925 155.075 429.925 148.164C429.925 145.869 430.542 143.722 431.616 141.883C431.616 141.883 431.629 141.87 431.629 141.856C433.803 138.139 437.843 135.656 442.446 135.656C449.357 135.656 454.966 141.252 454.966 148.164Z" fill="#E2E2E2"/>
<path d="M454.965 148.164C454.965 149.452 454.764 150.7 454.415 151.868C454.402 151.881 454.402 151.881 454.402 151.895C452.228 155.612 448.202 158.108 443.586 158.108C436.675 158.108 431.065 152.498 431.065 145.587C431.065 144.299 431.253 143.051 431.615 141.883C431.615 141.883 431.628 141.87 431.628 141.856C433.802 138.139 437.842 135.656 442.445 135.656C449.356 135.656 454.965 141.252 454.965 148.164Z" fill="white"/>
<path d="M454.727 150.26C455.894 144.406 452.094 138.714 446.24 137.547C440.385 136.38 434.693 140.18 433.526 146.034C432.359 151.889 436.159 157.581 442.013 158.748C447.868 159.915 453.56 156.115 454.727 150.26Z" fill="#201600"/>
<path d="M451.072 143.123C452.002 145.25 451.894 147.351 450.83 147.816C449.766 148.281 448.15 146.934 447.22 144.807C446.29 142.68 446.398 140.579 447.462 140.114C448.526 139.649 450.142 140.996 451.072 143.123Z" fill="white"/>
<path d="M558.502 173.648C557.791 182.613 553.617 191.376 547.632 198.22C542.103 204.541 535.219 209.439 527.797 213.438C524.227 215.384 520.537 217.102 516.806 218.685C510.136 221.517 503.024 224.348 495.817 225.167C495.83 225.181 495.844 225.207 495.857 225.221C497.937 228.603 499.722 232.186 501.171 235.89C502.312 238.722 503.238 241.634 503.976 244.6C505.586 251.095 505.815 258.973 500.782 263.388C499.722 264.314 498.527 264.998 497.239 265.482C493.71 266.837 489.509 266.69 485.698 266.032C473.915 263.992 463.501 258.812 455.49 249.928C455.53 250.599 455.571 251.256 455.597 251.941C455.597 252.062 455.61 252.196 455.61 252.317C455.986 259.389 456.133 266.582 456.093 273.802C456.066 286.564 455.516 299.407 454.751 311.861C453.946 325.08 448.242 337.614 440.177 348.176C440.177 348.189 440.177 348.189 440.164 348.189C439.439 349.155 438.674 350.108 437.909 351.034C437.896 351.061 437.869 351.074 437.855 351.101C428.622 362.186 416.973 370.989 404.976 378.988C396.897 384.369 388.563 389.442 379.652 393.28C369.305 397.722 358.314 400.433 347.726 404.231C342.962 405.949 338.265 407.881 333.554 409.706C329.434 411.316 325.314 412.846 321.087 414.108C317.155 415.275 313.169 416.202 309.157 417.007C305.869 417.691 302.581 418.282 299.28 418.872C296.824 419.315 294.569 420.375 292.127 420.858C271.058 425.152 249.102 421.636 228.543 415.342C207.984 409.035 188.377 399.99 168.099 392.837C154.719 388.113 140.521 384.181 126.47 386.154C118.069 387.335 110.111 390.569 102.381 394.058C100.193 395.038 98.0196 396.044 95.8586 397.077C84.1966 402.673 72.9505 409.209 63.4355 417.918C69.6225 408.135 76.8685 399.197 85.0145 391.212C96.4215 380.02 109.6 370.72 124.215 363.674C131.784 360.024 139.836 357.367 148.089 355.783C144.694 350.737 137.984 349.395 131.971 348.469C164.635 347.355 197.528 353.555 227.535 366.492C226.448 361.674 224.368 357.071 221.456 353.085C237.439 367.686 258.75 373.765 280.423 377.509C285.845 378.448 291.28 379.24 296.675 379.978C297.628 380.126 298.581 380.247 299.533 380.381C309.397 381.723 319.354 383.079 329.272 382.139C349.093 380.274 367.452 369.054 379.825 353.46C392.198 337.853 402.21 318.756 399.74 299.002C398.72 290.937 396.64 282.992 393.567 275.45C390.078 266.928 384.294 258.138 375.289 256.233C368.378 254.757 361.372 257.723 354.931 260.621C356.421 254.837 357.924 249.039 359.413 243.255C354.864 245.349 349.777 246.275 344.772 245.926C349.429 239.485 353.589 232.68 357.226 225.608C351.898 224.91 346.691 223.34 341.874 220.978C366.567 205.988 397.218 205.746 424.729 196.956C430.741 195.037 436.673 192.675 441.88 189.132C453.636 181.134 460.963 167.029 460.762 152.818C460.668 146.859 459.339 140.968 457.447 135.305C451.166 116.557 438.176 100.265 421.683 89.4216C433.479 89.3676 444.094 89.6896 453.717 91.5416C464.372 100.963 473.015 112.571 480.047 124.971C484.341 132.553 488.059 140.458 492.648 147.879C494.057 150.147 495.6 152.428 497.801 153.945C498.083 154.133 498.365 154.307 498.647 154.468C500.754 155.649 503.196 156.159 505.598 156.468C509.624 156.978 513.663 156.951 517.716 156.763C522.628 156.535 527.566 156.065 532.478 155.958C533.391 155.945 534.303 155.945 535.229 155.985C538.128 156.092 541.04 156.455 543.885 157.126C548.998 158.307 553.843 160.441 557.842 163.742C557.869 163.863 557.896 163.997 557.909 164.118C558.595 167.274 558.77 170.481 558.502 173.648Z" fill="#FFDCA2"/>
<path d="M558.502 173.648C557.791 182.613 553.617 191.376 547.632 198.22C542.103 204.541 535.219 209.439 527.797 213.438C524.227 215.384 520.537 217.102 516.806 218.685C510.136 221.517 503.024 224.348 495.817 225.167C495.83 225.181 495.844 225.207 495.857 225.221C497.937 228.603 499.722 232.186 501.171 235.89C497.749 236.481 494.3 236.843 490.838 236.964C481.444 237.286 471.808 235.823 463.515 231.381C456.604 227.664 448.337 220.256 446.968 212.07C452.994 217.344 459.811 219.491 467.782 220.068C489.469 221.611 511.652 214.834 528.776 201.414C534.251 197.133 539.271 192.141 542.76 186.129C543.847 184.277 544.773 182.331 546.102 180.654C547.941 178.332 550.437 176.642 553.054 175.273C554.744 174.4 556.65 173.635 558.502 173.648Z" fill="#E0BB86"/>
<path d="M543.887 157.128C543.766 157.182 543.632 157.222 543.511 157.262C540.679 158.175 537.7 158.497 534.761 158.939C528.695 159.865 522.71 161.288 516.886 163.22C514.242 164.106 511.612 165.085 508.874 165.676C505.13 166.481 501.265 166.548 497.44 166.575C490.072 166.629 482.718 166.615 475.351 166.508C474.492 166.495 470.775 166.978 470.359 166.011C469.822 164.763 472.775 163.703 473.58 163.3C476.506 161.824 479.512 160.482 482.558 159.287C487.778 157.247 493.16 155.637 498.649 154.469C500.756 155.65 503.198 156.16 505.6 156.469C509.626 156.979 513.665 156.952 517.718 156.764C522.63 156.536 527.568 156.066 532.48 155.959C533.393 155.946 534.305 155.946 535.231 155.986C538.13 156.095 541.042 156.457 543.887 157.128Z" fill="#E0BB86"/>
<path d="M503.284 136.457C503.547 137.633 503.687 138.798 503.725 139.909C503.72 139.923 503.719 139.923 503.722 139.935C503.852 144.781 501.879 148.772 498.665 149.49C494.706 150.374 490.347 145.971 488.938 139.661C488.47 137.566 488.387 135.527 488.627 133.711C488.627 133.711 488.631 133.697 488.628 133.685C489.116 130.013 490.925 127.23 493.562 126.641C497.522 125.756 501.875 130.147 503.284 136.457Z" fill="#E2E2E2"/>
<path d="M503.285 136.457C503.548 137.633 503.687 138.798 503.725 139.909C503.72 139.923 503.72 139.923 503.723 139.935C503.235 143.607 501.438 146.401 498.793 146.991C494.833 147.875 490.476 143.472 489.067 137.162C488.804 135.986 488.658 134.822 488.627 133.71C488.627 133.71 488.632 133.696 488.629 133.684C489.117 130.012 490.925 127.229 493.562 126.64C497.522 125.756 501.876 130.147 503.285 136.457Z" fill="white"/>
<path d="M503.283 136.463C504.5 141.913 502.714 146.95 499.294 147.714C495.874 148.478 492.115 144.679 490.898 139.229C489.681 133.779 491.467 128.742 494.887 127.978C498.307 127.214 502.066 131.013 503.283 136.463Z" fill="#201600"/>
<path d="M500.026 132.354C500.993 134.177 501.359 136.109 500.844 136.67C500.329 137.231 499.129 136.207 498.162 134.384C497.196 132.561 496.829 130.629 497.344 130.068C497.859 129.508 499.06 130.531 500.026 132.354Z" fill="white"/>
<path d="M542.588 153.021C548.631 152.679 555.637 153.378 559.106 158.338C562.194 162.752 561.189 168.763 559.651 173.925C558.56 177.588 557 181.511 553.633 183.322C551.917 184.245 549.923 184.496 547.976 184.585C536.453 185.108 525.03 180.364 516.328 172.792C498.883 157.611 533.812 153.518 542.588 153.021Z" fill="#201600"/>
<path d="M420.745 133.416C406.693 125.627 438.937 107.544 442.502 119.921C444.316 126.216 426.373 136.535 420.745 133.416Z" fill="#FFDCA2"/>
<path d="M486.399 114.501C488.387 114.533 490.534 114.75 492.057 116.601C492.723 117.41 493.242 118.762 492.872 119.901C492.628 120.653 492.07 121.073 491.533 121.367C488.833 122.844 485.847 122.44 482.96 122.403C482.1 122.392 481.226 122.413 480.397 122.081C479.568 121.748 478.772 120.998 478.433 119.854C476.844 114.482 484.586 114.472 486.399 114.501Z" fill="#FFDCA2"/>
<path d="M503.681 259.375C500.044 264.179 490.892 265.79 477.19 258.892C474.654 257.63 471.97 256.06 469.138 254.182C450.954 242.091 445.895 210.097 445.895 210.097C451.183 224.148 466.361 226.711 477.62 226.523C485.095 226.402 490.839 225.06 490.839 225.06C493.818 226.107 495.818 225.167 495.818 225.167C504.379 235.514 508.002 253.672 503.681 259.375Z" fill="#A14944"/>
<path d="M480.29 250.612C479.619 253.497 478.586 256.289 477.19 258.892C474.654 257.63 471.97 256.06 469.138 254.182C450.954 242.091 445.895 210.097 445.895 210.097C451.183 224.148 466.361 226.711 477.62 226.523C478.627 228.281 479.244 230.562 479.74 232.213C481.511 238.158 481.699 244.573 480.29 250.612Z" fill="#8C312F"/>
<path d="M309.158 417.007C305.87 417.691 302.582 418.282 299.281 418.872C296.825 419.315 294.57 420.375 292.128 420.858C271.059 425.152 249.103 421.636 228.544 415.342C207.985 409.035 188.378 399.99 168.1 392.837C154.72 388.113 140.522 384.181 126.471 386.154C118.07 387.335 110.112 390.569 102.382 394.058C100.194 395.038 98.0214 396.044 95.8604 397.077C97.8334 395.534 99.8194 394.017 101.832 392.528C106.449 389.106 111.253 385.778 116.674 383.885C125.893 380.678 142.065 373.766 193.718 389.843C196.764 390.796 249.747 415.717 275.593 417.327C281.9 417.716 289.469 417.072 292.583 411.57C287.55 411.396 282.531 411.221 277.512 411.047C285.054 405.223 291.667 397.622 290.395 388.174C289.476 381.347 276.873 372.376 296.54 379.961C300.32 381.419 308.485 386.918 309.8 390.89C310.431 392.769 310.484 394.782 310.551 396.755C310.741 403.533 310.889 410.538 309.158 417.007Z" fill="#E0BB86"/>
<path d="M516.51 310.76C514.094 320.852 505.063 328.287 494.689 327.656C487.174 327.213 480.316 322.476 481.484 306.104C483.927 271.614 460.643 249.042 455.194 237.689C455.194 237.689 468.346 233.328 475.7 237.689C475.7 237.689 477.284 235.998 481.028 235.22C481.498 235.113 481.994 235.032 482.531 234.965C489.657 234.079 496.649 237.461 500.742 243.366C508.955 255.201 523.529 281.451 516.51 310.76Z" fill="#D5584D"/>
<path d="M342.592 141.1C330.012 135.941 321.713 123.495 317.547 110.552C313.382 97.6086 312.628 83.8606 310.608 70.4146C307.558 50.1136 301.593 30.3856 296.705 10.4476C296.217 8.45762 295.744 6.33563 296.406 4.39663C297.328 1.69363 300.306 0.109627 303.16 0.00662689C306.014 -0.0953731 308.768 0.995631 311.354 2.20763C327.444 9.74863 340.529 22.4566 352.137 35.9106C363.745 49.3646 374.238 63.8276 386.912 76.2826C390.257 79.5706 393.784 82.7536 396.333 86.6916C398.882 90.6286 400.375 95.5246 399.167 100.057C398.235 103.554 395.834 106.443 393.499 109.208C388.869 114.691 384.239 120.175 379.609 125.658C369.126 138.073 359.798 148.156 342.592 141.1Z" fill="#FF7D00"/>
<path d="M383.317 98.6836C383.25 99.0326 383.129 99.3816 382.968 99.7036C382.297 101.086 380.901 102.146 379.398 101.932C377.519 101.65 376.419 99.5966 376.191 97.7176C374.661 97.8916 373.668 99.3816 372.89 100.724C370.246 105.327 367.589 109.93 364.945 114.547C364.113 111.836 363.469 109.085 362.999 106.294C360.489 111.3 358.235 116.44 356.289 121.687C355.175 124.68 353.94 132.597 349.096 131.014C348.385 130.786 347.7 130.33 347.029 129.739C344.251 127.243 341.862 122.21 340.547 119.674C338.346 115.433 336.709 110.924 335.461 106.335C333.072 97.5976 332.066 88.5666 330.844 79.5886C329.019 66.1146 326.738 52.7086 323.973 39.3956C322.993 34.6316 321.933 29.8006 322.255 24.9426C322.362 23.2786 323.047 21.1986 324.711 21.0646C325.691 20.9846 326.55 21.6416 327.288 22.2856C336.722 30.3916 343.862 40.7916 350.599 51.2456C354.504 57.3246 358.383 63.5246 363.643 68.4766C365.831 70.5436 368.259 72.3686 370.299 74.5826C371.842 76.2736 373.144 78.1656 374.446 80.0446C377.371 84.2716 380.31 88.5266 382.337 93.2496C383.075 94.9666 383.693 96.8586 383.317 98.6836Z" fill="#FFDCA2"/>
<path d="M484.612 293.897C484.686 298.487 484.149 303.063 483.942 307.649C483.749 311.927 483.944 316.533 486.487 319.978C488.873 323.211 493.075 324.837 497.086 324.601C501.097 324.366 504.885 322.437 507.865 319.742C509.904 317.898 511.682 315.515 511.89 312.774C511.928 312.27 511.903 311.732 511.623 311.311C511.229 310.719 510.449 310.529 509.74 310.489C505.067 310.228 500.641 314.347 496.144 313.052C493.696 312.347 491.933 310.131 491.027 307.751C490.121 305.37 489.922 302.792 489.573 300.269C488.81 294.747 487.296 289.358 485.415 284.119C484.609 281.874 481.831 271.395 479.165 271.464C480.321 275.122 482.15 278.518 483.092 282.313C484.032 286.1 484.549 289.994 484.612 293.897Z" fill="#E07873"/>
<path d="M493.75 268.783C492.998 268.783 492.596 267.897 492.381 267.173C489.603 257.859 485.067 249.07 479.068 241.42C478.263 240.387 477.404 239.42 476.464 238.508C476.129 238.186 475.874 237.931 475.699 237.689C475.699 237.689 477.283 235.998 481.027 235.22C480.839 236.039 480.799 236.897 480.906 237.729C481.148 239.527 481.926 241.205 482.745 242.829C486.677 250.733 491.414 258.383 493.521 266.958C493.67 267.561 493.804 268.165 493.75 268.783Z" fill="#C63F38"/>
<path d="M550.078 155.738C552.015 155.839 554.425 156.375 554.84 158.27C551.322 159.377 547.569 159.38 543.907 159.816C540.245 160.252 536.436 161.239 533.83 163.849C533.231 164.45 532.691 165.16 532.527 165.993C532.051 168.399 534.787 170.85 533.718 173.057C533.208 174.109 531.949 174.629 530.781 174.596C529.613 174.563 528.509 174.083 527.448 173.592C524.885 172.408 522.3 171.066 520.468 168.918C518.832 167.001 517.134 163.088 519.447 161.196C521.653 159.391 525.848 158.412 528.559 157.655C535.533 155.705 542.877 155.363 550.078 155.738Z" fill="#595651"/>
<path d="M548.317 155.664C548.837 155.713 549.523 155.984 549.42 156.497C549.348 156.855 548.924 157.001 548.567 157.079C546.964 157.428 535.352 159.821 535.19 158.243C534.852 154.95 546.531 155.495 548.317 155.664Z" fill="white"/>
<path d="M107.361 387.872C105.321 391.321 102.892 394.555 100.074 397.467C91.364 406.459 79.649 411.773 69.49 419.073C65.451 421.972 61.572 425.434 58.378 429.326C53.533 435.231 50.286 442.155 50.568 449.698C58.848 445.954 69.718 449.577 74.093 457.549C76.187 461.36 76.334 467.064 72.536 469.184C70.859 470.11 68.846 470.097 66.926 470.043C51.815 469.694 36.691 469.332 21.58 468.983C19.057 459.616 17.581 449.967 17.151 440.278C16.399 423.396 18.828 406.379 24.384 390.423C17.674 396.623 9.045 400.716 0 401.978C8.656 393.886 14.936 383.27 17.862 371.783C16.01 372.266 14.158 372.749 12.32 373.232C8.978 374.104 5.637 374.977 2.295 375.849C14.239 365.999 20.197 351.545 26.142 337.602V337.589C26.625 336.448 27.122 335.294 27.605 334.167C27.967 333.322 28.343 332.49 28.705 331.657C35.415 316.519 49.009 311.312 65.261 310.131C83.11 308.816 103.683 314.103 111.734 330.087C114.337 335.24 115.357 341.051 115.814 346.808C116.943 360.938 114.474 375.794 107.361 387.872Z" fill="#FF7D00"/>
<path d="M72.5364 469.183C70.8594 470.109 68.8464 470.096 66.9264 470.042C51.8154 469.693 36.6914 469.331 21.5804 468.982C19.0574 459.615 17.5814 449.966 17.1514 440.277C17.5004 439.794 17.8764 439.311 18.2524 438.841C19.5804 437.177 25.0164 432.319 25.0834 430.292C25.0164 432.614 25.1504 434.935 25.4994 437.23C25.6334 438.129 25.8884 439.162 26.7074 439.565C27.5934 440.021 28.6534 439.485 29.5124 438.961C35.7524 435.123 42.0064 431.298 48.2464 427.474C47.1324 430.668 46.6094 434.063 46.7034 437.445C49.3604 434.117 52.8634 431.46 56.7814 429.796C57.2914 429.581 57.8414 429.38 58.3784 429.326C53.5334 435.231 50.2864 442.155 50.5684 449.698C58.8484 445.954 69.7184 449.577 74.0934 457.549C76.1874 461.36 76.3344 467.063 72.5364 469.183Z" fill="#FFDCA2"/>
<path d="M392.912 326.69C391.718 340.526 385.786 353.53 378.754 365.514C371.722 377.485 363.495 388.771 357.054 401.064C351.096 412.404 346.721 424.468 342.829 436.681C341.863 439.674 340.937 442.653 340.024 445.645C345.835 444.424 352.236 446.678 356.007 451.255C359.778 455.845 360.758 462.568 358.436 468.03C358.154 468.714 357.778 469.412 357.121 469.775C356.571 470.07 355.913 470.07 355.282 470.057C343.405 469.883 331.515 469.695 319.639 469.52C318.216 469.493 316.713 469.453 315.465 468.755C313.989 467.909 313.157 466.272 312.445 464.729C308.191 455.362 305.534 445.283 304.567 435.031C304.084 429.958 304.017 424.845 304.379 419.759C302.259 419.826 300.138 419.893 298.005 419.96C300.783 415.733 302.823 411.022 304.031 406.111C299.67 407.091 295.107 407.064 290.759 406.044C294.624 400.663 302.005 391.953 298.986 385.122C295.537 377.338 291.082 370.226 288.317 362.066C283.123 346.646 282.305 329.482 287.767 314.143C293.216 298.817 305.307 285.612 320.74 280.419C328.537 277.789 336.898 277.225 345.124 277.547C357.417 278.03 370.246 280.741 379.493 288.847C389.933 297.998 394.106 312.854 392.912 326.69Z" fill="#FF7D00"/>
<path d="M358.435 468.029C358.153 468.713 357.777 469.411 357.12 469.774C356.57 470.069 355.912 470.069 355.281 470.056C343.404 469.882 331.514 469.694 319.638 469.519C318.215 469.492 316.712 469.452 315.464 468.754C313.988 467.908 313.156 466.271 312.444 464.728C308.19 455.361 305.533 445.282 304.566 435.03C306.78 432.426 310.726 429.729 311.759 427.246C309.504 432.708 312.631 439.74 318.187 441.713C325.004 444.142 332.466 439.23 336.317 433.111C335.968 434.614 335.619 436.104 335.284 437.607C337.78 438.278 340.303 437.446 342.826 436.681C341.86 439.674 340.934 442.653 340.021 445.645C345.832 444.424 352.233 446.678 356.004 451.255C359.777 455.844 360.757 462.567 358.435 468.029Z" fill="#FFDCA2"/>
<path d="M382.968 99.7036C382.297 101.086 380.901 102.146 379.398 101.932C377.519 101.65 376.419 99.5966 376.191 97.7176C374.661 97.8916 373.668 99.3816 372.89 100.724C370.246 105.327 367.589 109.93 364.945 114.547C364.113 111.836 363.469 109.085 362.999 106.294C360.489 111.3 358.235 116.44 356.289 121.687C355.175 124.68 353.94 132.597 349.096 131.014C348.385 130.786 347.7 130.33 347.029 129.739C348.049 129.511 349.404 129.967 350.438 129.055C351.565 128.035 352.102 126.519 352.585 125.069C355.081 117.608 357.591 110.133 360.1 102.671C361.053 99.8126 362.1 96.8196 364.354 94.8336C366.233 97.0216 365.387 101.061 367.884 102.524C370.461 98.4576 373.614 94.7396 377.224 91.5456C377.519 93.3036 377.828 95.0486 378.123 96.7926C378.284 97.7316 378.472 98.7116 379.076 99.4366C380.002 100.576 381.827 100.563 382.968 99.7036Z" fill="#E0BB86"/>
<path d="M456.093 273.802C456.066 286.564 455.516 299.407 454.751 311.861C453.946 325.08 448.242 337.614 440.177 348.176C440.177 348.189 440.177 348.189 440.164 348.189C439.439 349.155 438.674 350.108 437.909 351.034C437.896 351.061 437.869 351.074 437.855 351.101C440.714 346.391 443.21 341.452 445.33 336.366C443.867 337.064 442.404 337.748 440.942 338.446C446.847 323.523 448.551 306.949 445.813 291.127C444.283 291.731 442.82 292.549 441.492 293.543C443.934 282.404 446.39 270.85 443.921 259.725C442.203 251.982 438.204 244.976 434.245 238.105C432.89 235.743 431.534 233.368 430.179 231.006C437.708 236.602 445.048 242.467 452.174 248.573C453.422 249.647 454.563 250.774 455.596 251.941C455.596 252.062 455.609 252.196 455.609 252.317C455.986 259.388 456.134 266.582 456.093 273.802Z" fill="#E0BB86"/>
<path d="M296.542 379.962C291.147 379.224 285.847 378.451 280.426 377.511C280.225 368.292 281.835 359.032 285.203 350.443C280.332 353.61 275.245 356.871 269.475 357.596C271.273 344.243 285.431 335.627 292.557 325.16C292.544 328.663 283.834 346.283 279.862 346.726C283.874 346.27 287.793 344.995 291.309 342.968C289.685 353.073 288.075 363.179 286.451 373.284C290.437 372.627 296.663 379.506 296.542 379.962Z" fill="#B25109"/>
<path d="M45.5619 278.713C33.9269 292.455 23.2309 308.049 20.8149 325.898C22.6129 324.167 24.7609 322.784 27.0819 321.872C26.3299 328.877 23.5259 335.668 19.0839 341.143C21.5669 338.432 24.4519 336.07 27.6059 334.164C28.0219 333.909 28.4509 333.667 28.8809 333.426C28.6529 338.378 27.7939 343.276 26.3709 348.014C23.6199 357.301 18.7489 365.983 12.3199 373.23C8.97792 374.102 5.63692 374.975 2.29492 375.847C14.2389 365.997 20.1969 351.543 26.1419 337.6V337.587C26.1549 337.131 26.1689 336.728 26.1959 336.379C26.1959 336.379 22.5189 345.317 16.2119 348.457C16.2119 348.457 19.3659 320.101 24.6129 302.252C29.8599 284.39 40.8909 275.989 40.8909 275.989C40.8909 275.989 18.3189 265.978 16.2119 254.182C14.1189 242.386 24.6129 222.954 24.6129 222.954C24.6129 222.954 23.7009 218.834 23.8349 213.815C25.0969 218.042 27.6599 221.907 30.6789 225.182C26.2099 227.49 22.5329 231.462 21.0569 236.28C19.5939 241.084 20.5199 246.667 23.8349 250.452C27.0159 254.089 32.0209 255.833 34.9329 259.698C32.8389 259.671 30.7459 259.631 28.6519 259.604C34.3149 263.08 39.7499 266.931 44.9169 271.105C46.0979 272.058 47.3459 273.199 47.4669 274.701C47.6019 276.217 46.5549 277.546 45.5619 278.713Z" fill="#B25109"/>
<path d="M487.544 317.284C488.86 319.646 491.573 321.458 494.208 320.852C494.463 320.793 494.757 320.664 494.792 320.405C494.832 320.102 494.496 319.902 494.218 319.775C492.698 319.079 491.376 317.973 490.389 316.628C489.184 314.986 489.24 313.227 488.418 311.514C487.837 310.302 486.743 309.726 486.039 311.432C485.449 312.859 486.847 316.033 487.544 317.284Z" fill="white"/>
</svg>
