<svg width="531" height="357" viewBox="0 0 531 357" fill="none" xmlns="http://www.w3.org/2000/svg">
<path d="M470.126 240.807C468.402 240.189 467.324 238.177 467.755 236.41C466.519 242.373 464.551 248.178 461.892 253.653C461.173 250.549 460.469 247.445 459.751 244.327C451.072 256.584 444.031 270.004 438.858 284.115C436.128 291.515 433.929 299.102 432.263 306.818C414.761 307.421 393.639 308.082 376.166 307.177C374.772 300.093 378.393 290.624 383.667 285.681C388.926 280.724 399.286 279.66 406.269 281.499C404.114 279.387 401.958 277.26 399.817 275.105C385.793 261.023 372.53 245.792 366.165 227.127C356.351 198.374 364.9 165.843 381.669 140.496C390.305 127.42 401.613 117.045 413.065 106.499C423.08 97.2741 437.564 85.4341 449.563 98.5531C453.055 102.361 456.489 108.784 458.486 113.554C467.481 134.907 472.223 156.216 471.72 179.379C470.225 179.609 468.631 178.733 468.027 177.353C469.22 186.147 470.427 194.941 471.634 203.735C473.331 216.15 474.94 229.255 470.126 240.807Z" fill="#FF7D00"/>
<path d="M438.86 284.116C436.13 291.516 433.93 299.103 432.264 306.819C414.762 307.422 393.641 308.083 376.168 307.178C374.774 300.094 378.395 290.625 383.669 285.682C388.928 280.725 399.287 279.661 406.27 281.5C404.115 279.388 401.96 277.261 399.819 275.106C407.607 273.569 415.525 271.514 416.027 269.057C415.898 270.968 414.388 272.52 413.727 274.345C411.974 279.159 417.06 284.231 422.176 284.518C427.291 284.791 431.99 281.946 436.315 279.202C435.971 281.141 437.352 282.693 438.86 284.116Z" fill="#C19965"/>
<path d="M227.775 247.913C227.763 247.925 227.763 247.936 227.751 247.948C204.473 283.777 192.486 279.931 191.992 281.825C192.133 281.825 192.263 281.825 192.392 281.813C195.838 281.731 199.285 281.637 202.731 281.542C197.661 287.106 191.321 291.493 184.334 294.316C184.016 294.645 183.687 294.975 183.346 295.292C188.216 296.268 193.321 296.08 198.096 294.727C190.109 300.161 181.04 304.008 171.583 305.949C173.936 307.008 176.3 308.066 178.652 309.113C169.818 309.925 161.02 311.242 152.327 313.042C138.823 318.723 124.944 323.475 110.793 327.251C109.558 327.592 108.323 327.91 107.088 328.227C100.677 329.85 94.1839 331.285 87.5969 331.791C87.1379 331.826 86.6559 331.862 86.1499 331.909C79.7749 332.438 69.871 333.532 64.095 333.309C47.592 332.662 6.329 333.18 0 331.768C0.082 322.911 4.16393 314.159 10.9039 308.419C17.6439 302.667 26.937 300.032 35.688 301.361C38.111 301.726 40.616 302.384 42.969 301.69C44.816 301.149 46.3329 299.832 47.7799 298.561C48.5089 297.914 49.239 297.279 49.979 296.644C62.412 285.799 75.2219 275.248 89.5139 267.014C115.015 252.334 198.648 196.956 226.479 208.542C235.209 212.178 232.927 239.985 227.775 247.913Z" fill="#B25109"/>
<path d="M86.152 331.911C79.777 332.44 69.8729 333.534 64.0969 333.311C47.5939 332.664 6.33095 333.182 0.00195312 331.77C0.0839531 322.913 4.16601 314.161 10.906 308.421C17.646 302.669 26.9389 300.034 35.6899 301.363C38.1129 301.728 40.6179 302.386 42.9709 301.692C44.8179 301.151 46.335 299.834 47.782 298.563C48.511 297.916 49.241 297.281 49.981 296.646C51.522 296.763 53.11 296.763 54.804 296.728C61.156 296.599 63.485 296.187 61.262 302.656C60.474 304.914 61.8499 307.491 63.8729 308.784C65.8839 310.066 68.39 310.325 70.778 310.348C75.565 310.395 80.3649 309.63 84.9049 308.09C82.2119 310.689 79.5299 313.289 76.8479 315.888C75.6719 317.029 74.46 318.923 75.601 320.099C76.072 320.569 76.7769 320.699 77.4359 320.793C81.4469 321.405 85.4459 322.005 89.4459 322.605C90.1749 326.1 88.646 329.276 86.152 331.911Z" fill="#E0BB86"/>
<path d="M507.891 214.834C482.4 258.602 338.609 348.826 240.611 336.885C142.614 324.959 131.521 296.407 131.521 296.407L133.849 293.116L148.735 272.094L170.174 241.833L216.73 176.109L223.426 166.668C223.728 167.128 224.088 167.631 224.49 168.177C228.6 173.709 237.809 183.308 250.856 186.426C253.816 187.145 256.977 187.518 260.311 187.446C279.795 187.015 323.248 93.0412 416.805 79.0452C476.968 70.0502 505.002 108.358 519.142 144.841C529.402 171.325 518.611 196.427 507.891 214.834Z" fill="#FF7D00"/>
<path d="M72.8597 157.514C73.0437 158.12 73.3147 158.718 73.6687 159.236C73.9147 159.618 74.2227 159.955 74.5657 160.253C77.7727 162.951 81.5997 159.752 84.1907 157.002C89.4367 151.455 95.4516 146.603 101.973 142.63C107.211 139.443 115.338 137.759 119.466 133.298C120.035 132.679 120.565 132.025 121.071 131.333C126.157 124.404 128.085 113.978 128.856 104.604C129.151 100.985 129.278 97.5271 129.335 94.4881C129.616 81.2051 128.418 67.824 130.505 54.705C131.665 47.381 133.864 40.1201 134.746 32.8081C135.248 28.7211 130.42 26.1841 127.316 28.9021C126.927 29.2381 126.552 29.5711 126.163 29.9071C108.092 45.8801 91.5858 64.1541 80.9628 85.7931C72.6468 102.693 68.1717 121.863 69.6877 140.515C70.1547 146.251 71.1907 151.948 72.8597 157.514Z" fill="#FF7D00"/>
<path d="M81.1076 134.818C91.0786 132.457 100.425 127.468 107.947 120.497C107.509 111.786 105.923 102.997 106.743 94.3362C107.73 84.0022 111.573 74.1711 115.976 64.7921C118.162 60.1581 120.487 54.6141 117.934 50.1781C102.628 61.6371 90.7817 77.6561 84.3177 95.6571C79.7787 108.289 77.9137 121.871 78.7597 135.268C79.5557 135.184 80.3246 135.003 81.1076 134.818Z" fill="#FFDCA2"/>
<path d="M276.736 327.258C265.945 328.25 255.197 329.859 244.578 332.057C241.245 333.465 237.897 334.816 234.52 336.109C142.156 323.766 131.523 296.407 131.523 296.407C129.799 294.194 127.183 291.679 123.203 289.524L123.893 278.604C123.893 278.604 138.133 274.566 148.737 272.095C153.421 271.017 157.387 270.227 159.097 270.227C164.73 270.227 200.451 270.816 200.451 270.816C200.451 270.816 228.456 302.83 262.18 310.705C268.618 312.214 276.52 312.041 285.07 310.791C290.214 311.466 295.502 311.093 300.488 309.684C290.731 316.323 279.653 321.021 268.1 323.392C270.974 324.686 273.862 325.979 276.736 327.258Z" fill="#FFDCA2"/>
<path d="M81.3228 152.142C81.4358 152.588 81.5527 153.047 81.6947 153.486C88.0597 148.959 94.6777 144.784 101.506 140.969C103.999 138.066 106.983 135.808 107.545 132.018C108.118 128.21 108.146 124.362 107.948 120.498C100.426 127.469 91.0798 132.458 81.1088 134.819C80.3258 135.004 79.5557 135.185 78.7617 135.268C79.1237 140.943 79.9708 146.599 81.3228 152.142Z" fill="#E0BB86"/>
<path d="M101.505 140.969C107.854 137.425 114.374 134.208 121.07 131.332C126.156 124.403 128.084 113.977 128.855 104.603C126.617 105.247 125.316 107.535 124.126 109.558C122.905 111.633 121.126 113.851 118.715 113.812C118.133 113.797 117.561 113.646 116.975 113.617C114.643 113.543 112.815 115.506 111.237 117.228C110.193 118.369 109.093 119.464 107.947 120.497C108.145 124.361 108.116 128.209 107.544 132.017C106.982 135.808 103.998 138.065 101.505 140.969Z" fill="#EA6A00"/>
<path d="M72.8605 157.514C73.0445 158.12 73.3154 158.718 73.6694 159.236C74.7814 158.597 75.8235 157.798 76.8455 157.034C78.4365 155.828 80.0624 154.643 81.6954 153.486C81.5544 153.047 81.4375 152.588 81.3235 152.142C79.9715 146.6 79.1245 140.944 78.7625 135.268C78.1775 135.358 77.5815 135.405 76.9855 135.394C76.3135 135.373 75.6224 135.281 74.9574 135.406C73.4074 135.667 72.2494 136.941 71.3064 138.189C70.7414 138.941 70.1975 139.717 69.6895 140.514C70.1555 146.251 71.1915 151.948 72.8605 157.514Z" fill="#EA6A00"/>
<path d="M81.6943 153.485C81.9803 154.376 82.3743 155.225 83.0323 155.887C85.3493 158.174 89.3543 156.783 91.7673 154.612C95.3503 151.387 97.3833 146.97 99.9733 142.989C100.44 142.262 100.953 141.598 101.505 140.968C94.6774 144.783 88.0593 148.959 81.6943 153.485Z" fill="#FFDCA2"/>
<path d="M233.355 185.665C233.312 185.995 233.269 186.326 233.211 186.671C231.458 199.905 227.65 217.938 219.762 235.555C206.384 265.5 181.195 294.253 134.093 296.308C134.021 295.345 133.935 294.267 133.849 293.118C132.685 278.045 130.544 248.833 130.544 248.833C130.544 248.833 114.839 275.258 90.8849 283.304C89.1459 283.879 87.4218 284.396 85.7118 284.798C85.7258 284.784 85.7259 284.741 85.7409 284.726C78.0529 285.789 69.9208 284.726 62.2478 283.548C57.9658 282.887 53.6839 282.082 49.4589 281.005C40.8809 277.025 32.2158 270.846 23.0488 262.656C11.6968 252.483 6.53888 244.077 5.18788 237.783C3.70788 231.058 6.59582 226.82 10.8778 225.526C14.5418 224.42 20.4759 223.96 26.5689 223.356C33.6099 222.652 40.8518 221.79 44.9468 219.534C45.3208 219.362 45.6368 219.146 45.9668 218.931C52.8348 214.074 45.0759 215.468 58.2669 176.14C65.6099 154.256 77.7368 142.645 94.1178 134.958C103.616 130.489 114.551 127.357 126.808 124.296C131.377 123.147 136.148 122.026 141.091 120.819C169.513 113.979 200.119 138.019 217.908 159.529C219.926 161.96 221.767 164.356 223.424 166.673L223.426 166.67C223.46 166.722 223.502 166.78 223.538 166.833C223.858 167.283 224.184 167.736 224.49 168.179C228.772 174.343 231.646 179.847 232.723 183.741C232.896 184.372 233.097 185.004 233.355 185.665Z" fill="#FF7D00"/>
<path d="M70.188 188.458C70.943 190.067 71.516 191.773 71.746 193.535C72.25 197.402 71.062 201.338 69.138 204.73C68.024 206.692 66.614 208.56 64.679 209.721C62.745 210.882 60.207 211.223 58.227 210.142C56.451 209.173 55.3801 207.223 54.9891 205.238C54.5981 203.253 54.794 201.204 54.992 199.191C55.494 194.078 55.926 188.163 58.929 183.79C62.637 178.392 68.347 184.533 70.188 188.458Z" fill="#EA6A00"/>
<path d="M135.692 183.27C139.37 188.13 140.635 194.497 140.247 200.579C140.067 203.405 139.506 206.322 137.812 208.591C135.324 211.925 130.743 213.217 126.627 212.608C122.512 211.999 118.806 209.768 115.557 207.17C114.276 206.146 113.043 205.054 111.965 203.819C108.369 199.696 106.686 193.886 107.842 188.539C110.793 174.896 127.729 172.748 135.692 183.27Z" fill="#EA6A00"/>
<path d="M107.781 194.04C108.121 195.377 108.66 196.619 109.33 197.738C109.347 197.748 109.347 197.748 109.351 197.762C112.338 202.621 118.26 205.206 124.08 203.724C131.251 201.898 135.59 194.596 133.764 187.424C133.158 185.043 131.95 182.978 130.35 181.354C130.35 181.354 130.333 181.344 130.329 181.33C127.091 178.047 122.244 176.538 117.468 177.754C110.297 179.58 105.955 186.868 107.781 194.04Z" fill="#E2E2E2"/>
<path d="M107.781 194.04C108.121 195.377 108.66 196.619 109.33 197.738C109.347 197.748 109.347 197.748 109.351 197.762C112.589 201.045 117.426 202.571 122.216 201.352C129.387 199.526 133.726 192.224 131.9 185.053C131.56 183.716 131.035 182.471 130.351 181.355C130.351 181.355 130.334 181.345 130.33 181.331C127.092 178.048 122.245 176.539 117.469 177.755C110.297 179.58 105.955 186.868 107.781 194.04Z" fill="white"/>
<path d="M107.789 194.043C109.366 200.237 115.666 203.98 121.86 202.403C128.054 200.826 131.797 194.526 130.22 188.332C128.643 182.138 122.343 178.395 116.149 179.972C109.955 181.549 106.212 187.849 107.789 194.043Z" fill="#201600"/>
<path d="M110.49 187.781C110.087 190.234 110.754 192.386 111.981 192.587C113.207 192.789 114.527 190.964 114.931 188.511C115.334 186.058 114.667 183.906 113.441 183.705C112.214 183.504 110.894 185.328 110.49 187.781Z" fill="white"/>
<path d="M200.45 270.816C187.46 299.885 181.54 294.597 138.103 296.149C136.81 296.192 135.459 296.249 134.094 296.307C133.246 296.35 132.398 296.379 131.522 296.407C129.798 294.194 127.182 291.679 123.202 289.524C118.934 287.182 113.1 285.242 105.169 284.481C99.7371 283.935 93.3001 283.964 85.7131 284.797C85.7271 284.783 85.7271 284.74 85.7421 284.725C78.0541 285.788 69.922 284.725 62.249 283.547C57.967 282.886 53.6851 282.081 49.4601 281.004C46.7301 280.314 44.0291 279.538 41.3851 278.604C40.8101 278.432 40.2351 278.216 39.6611 278C34.4451 276.075 29.4591 273.617 24.8611 270.456C16.8431 264.938 10.1901 256.949 7.08606 247.825C6.49706 246.129 6.03707 244.405 5.72107 242.623C5.41907 241.042 5.24706 239.419 5.19006 237.78C5.16106 237.651 5.16113 237.507 5.16113 237.378C8.43713 232.895 12.8911 229.403 17.8921 226.831C20.6661 225.38 23.597 224.23 26.571 223.354C27.519 223.067 28.468 222.822 29.416 222.607C34.546 221.414 39.7911 220.595 44.9491 219.532C49.2021 218.656 53.3981 217.621 57.4501 216.026C59.8501 215.078 62.2491 213.899 64.1321 212.118C64.3761 211.874 64.6201 211.629 64.8651 211.356C66.7471 209.201 67.7531 206.427 68.6151 203.697C71.4171 194.788 73.1841 185.606 75.6411 176.597C79.6501 161.869 85.5561 147.543 94.1201 134.955C103.618 130.486 114.553 127.354 126.81 124.293C112.556 139.898 103.374 160.245 101.822 181.353C101.348 187.733 101.52 194.185 103 200.392C106.549 215.192 117.872 227.894 132.184 233.096C138.521 235.395 145.303 236.272 152.057 236.674C159.012 237.091 164.917 238.959 170.176 241.832C181.9 248.228 190.449 259.551 200.45 270.816Z" fill="#FFDCA2"/>
<path d="M17.8828 226.832C18.0228 226.856 18.1719 226.862 18.3079 226.872C21.4869 227.071 24.6638 226.618 27.8298 226.301C34.3688 225.659 40.9548 225.554 47.5088 226.021C50.4858 226.242 53.4738 226.563 56.4708 226.453C60.5688 226.299 64.5969 225.348 68.5729 224.365C76.2319 222.474 83.8588 220.518 91.4758 218.46C92.3638 218.219 96.3478 217.739 96.5248 216.626C96.7518 215.189 93.4088 214.869 92.4668 214.664C89.0408 213.905 85.5678 213.307 82.0908 212.872C76.1348 212.134 70.1258 211.885 64.1218 212.124C62.2478 213.906 59.8479 215.08 57.4369 216.035C53.3939 217.628 49.1958 218.667 44.9408 219.543C39.7838 220.604 34.5359 221.421 29.4109 222.607C28.4609 222.834 27.5138 223.075 26.5638 223.362C23.5838 224.239 20.6568 225.384 17.8828 226.832Z" fill="#E0BB86"/>
<path d="M138.345 296.253C136.88 297.424 133.761 299.956 133.761 299.956C132.037 297.743 127.182 291.68 123.202 289.525C118.934 287.183 113.1 285.243 105.169 284.482C99.7367 283.936 93.2998 283.965 85.7128 284.798C85.7268 284.784 85.7267 284.741 85.7417 284.726C78.0537 285.789 69.9217 284.726 62.2487 283.548C57.9667 282.887 53.6847 282.082 49.4597 281.005C46.7297 280.315 44.0288 279.539 41.3848 278.605C40.8098 278.433 40.2348 278.217 39.6608 278.001C34.4448 276.076 29.4587 273.618 24.8607 270.457C16.8427 264.939 10.1897 256.95 7.08569 247.826C6.49669 246.13 6.0367 244.406 5.7207 242.624C7.1437 241.676 8.63766 240.828 10.1757 240.124C19.7887 235.669 30.7957 235.08 41.2277 235.037C46.6157 235.008 49.0727 235.856 46.3717 241.331C44.2887 245.513 41.1697 249.291 37.5917 252.266C34.4737 254.852 30.5507 257.568 30.5367 261.62C30.5077 264.781 32.9937 267.368 35.5367 269.236C47.0467 277.656 62.2347 278.605 76.4747 279.237C88.1717 279.754 99.8677 280.272 111.564 280.789C116.881 281.019 122.211 281.249 127.499 280.703C128.347 280.602 129.238 280.487 129.942 279.999C131.149 279.151 131.451 277.542 132.069 276.206C132.701 274.87 134.296 273.634 135.532 274.439C136.495 277.816 134.469 281.264 134.181 284.756C133.835 288.864 136.117 292.618 138.345 296.253Z" fill="#E0BB86"/>
<path d="M54.5508 194.657C54.5888 195.947 54.7529 197.193 55.0059 198.355C55.0149 198.368 55.0148 198.368 55.0148 198.382C56.1608 203.445 59.2629 207.064 62.7869 206.96C67.1289 206.831 70.4869 201.111 70.2819 194.192C70.2139 191.895 69.7628 189.756 69.0338 187.936C69.0338 187.936 69.0248 187.923 69.0248 187.909C67.5488 184.228 64.9378 181.817 62.0458 181.903C57.7048 182.031 54.3468 187.738 54.5508 194.657Z" fill="#E2E2E2"/>
<path d="M54.5508 194.657C54.5888 195.947 54.7529 197.193 55.0059 198.355C55.0149 198.368 55.0148 198.368 55.0148 198.382C56.4908 202.063 59.0938 204.487 61.9938 204.401C66.3358 204.272 69.6939 198.552 69.4889 191.633C69.4509 190.343 69.2958 189.097 69.0338 187.935C69.0338 187.935 69.0248 187.922 69.0248 187.908C67.5488 184.227 64.9378 181.816 62.0458 181.902C57.7048 182.031 54.3468 187.738 54.5508 194.657Z" fill="white"/>
<path d="M54.5555 194.662C54.7325 200.638 57.9156 205.393 61.6666 205.282C65.4166 205.171 68.3136 200.236 68.1366 194.26C67.9596 188.284 64.7766 183.529 61.0256 183.64C57.2756 183.751 54.3785 188.686 54.5555 194.662Z" fill="#201600"/>
<path d="M56.8477 189.539C56.3267 191.686 56.4567 193.788 57.1387 194.233C57.8207 194.678 58.7958 193.3 59.3178 191.153C59.8388 189.006 59.7088 186.904 59.0268 186.459C58.3448 186.013 57.3697 187.392 56.8477 189.539Z" fill="white"/>
<path d="M18.1456 222.227C11.7856 223.468 4.70061 226.045 2.41061 232.107C0.372613 237.503 3.00262 243.474 5.96262 248.425C8.06262 251.938 10.7176 255.596 14.6886 256.586C16.7136 257.091 18.8486 256.824 20.8916 256.402C32.9866 253.901 43.5856 245.961 50.6146 235.805C64.7066 215.444 27.3836 220.424 18.1456 222.227Z" fill="#201600"/>
<path d="M139.394 169.697C151.917 157.902 113.683 147.657 113.253 161.442C113.034 168.453 134.378 174.42 139.394 169.697Z" fill="#FFDCA2"/>
<path d="M66.273 167.415C64.219 167.974 62.0479 168.766 60.9569 171.088C60.4799 172.104 60.2979 173.644 60.9829 174.728C61.4349 175.444 62.1239 175.733 62.7589 175.896C65.9509 176.715 68.943 175.507 71.928 174.707C72.818 174.468 73.73 174.259 74.502 173.695C75.274 173.131 75.9019 172.142 75.9509 170.865C76.1819 164.871 68.146 166.905 66.273 167.415Z" fill="#FFDCA2"/>
<path d="M222.517 157.025C234.208 148.348 239.531 133.242 240.434 118.711C241.337 104.18 238.488 89.7171 237.032 75.2311C234.834 53.3611 235.812 31.3151 235.617 9.33512C235.598 7.14212 235.528 4.81519 234.329 2.97819C232.658 0.417191 229.15 -0.440805 226.162 0.207195C223.174 0.855195 220.605 2.71517 218.241 4.65617C203.537 16.7312 193.317 33.3742 184.827 50.4012C176.337 67.4282 169.269 85.2072 159.409 101.478C156.806 105.773 153.988 110.008 152.383 114.767C150.778 119.526 150.523 125 152.973 129.384C154.864 132.766 158.118 135.129 161.271 137.382C167.524 141.848 173.776 146.315 180.029 150.781C194.185 160.893 206.527 168.892 222.517 157.025Z" fill="#FF7D00"/>
<path d="M169.055 123.771C169.217 124.115 169.434 124.446 169.686 124.737C170.747 125.994 172.476 126.725 173.978 126.106C175.853 125.317 176.452 122.896 176.193 120.886C177.827 120.663 179.25 121.946 180.413 123.133C184.372 127.211 188.345 131.285 192.308 135.377C192.455 132.344 192.397 129.32 192.147 126.299C196.073 130.83 199.771 135.568 203.176 140.498C205.122 143.309 208.495 151.199 213.104 148.276C213.782 147.851 214.371 147.197 214.912 146.407C217.135 143.083 218.284 137.23 218.979 134.251C220.143 129.269 220.65 124.158 220.733 119.066C220.904 109.37 219.562 99.7331 218.458 90.0941C216.792 75.6311 215.618 61.1181 214.97 46.5741C214.728 41.3721 214.552 36.0791 212.934 31.1231C212.383 29.4251 211.123 27.4471 209.361 27.7481C208.323 27.9231 207.606 28.8321 207.01 29.6961C199.362 40.5991 194.702 53.2771 190.473 65.9041C188.027 73.2441 185.64 80.7011 181.49 87.2291C179.766 89.9511 177.728 92.4871 176.196 95.3231C175.041 97.4851 174.191 99.7921 173.336 102.086C171.417 107.245 169.491 112.436 168.637 117.872C168.323 119.85 168.183 121.977 169.055 123.771Z" fill="#FFDCA2"/>
<path d="M11.0919 227.025C9.10885 227.641 6.74988 228.834 6.81988 230.91C10.7629 231.129 14.6579 230.141 18.5729 229.626C22.4879 229.111 26.7009 229.129 30.0939 231.149C30.8749 231.614 31.6219 232.208 32.0129 233.029C33.1419 235.4 30.9509 238.666 32.6429 240.674C33.4499 241.631 34.8939 241.837 36.0969 241.495C37.3009 241.152 38.3188 240.362 39.2908 239.573C41.6368 237.667 43.9649 235.592 45.2989 232.88C46.4899 230.459 47.2189 225.95 44.3189 224.598C41.5529 223.308 36.9419 223.4 33.9289 223.33C26.1749 223.149 18.4649 224.734 11.0919 227.025Z" fill="#595651"/>
<path d="M12.8992 226.483C12.3722 226.672 11.7333 227.134 11.9743 227.639C12.1433 227.992 12.6212 228.031 13.0122 228.018C14.7682 227.957 27.4482 227.372 27.2002 225.692C26.6822 222.185 14.7082 225.836 12.8992 226.483Z" fill="white"/>
<path d="M169.686 124.737C170.747 125.994 172.476 126.725 173.978 126.106C175.853 125.317 176.452 122.896 176.193 120.886C177.827 120.663 179.25 121.946 180.413 123.133C184.372 127.211 188.345 131.285 192.308 135.377C192.455 132.344 192.397 129.32 192.147 126.299C196.073 130.83 199.771 135.568 203.176 140.498C205.122 143.309 208.495 151.199 213.104 148.276C213.782 147.851 214.371 147.197 214.912 146.407C213.793 146.44 212.508 147.271 211.194 146.597C209.755 145.837 208.797 144.405 207.913 143.029C203.352 135.946 198.773 128.853 194.198 121.774C192.454 119.06 190.578 116.231 187.714 114.766C186.342 117.532 188.287 121.5 186.083 123.677C182.335 120.138 178.081 117.114 173.491 114.754C173.649 116.656 173.79 118.548 173.944 120.436C174.025 121.453 174.089 122.519 173.654 123.431C172.994 124.859 171.097 125.327 169.686 124.737Z" fill="#E0BB86"/>
<path d="M39.6641 277.999C40.2401 278.223 40.8121 278.433 41.3881 278.598C42.1921 278.438 43.007 278.26 43.801 278.058C44.407 277.933 45.0201 277.777 45.6151 277.611C48.8101 276.708 51.9561 275.67 55.0321 274.413C58.0831 273.117 61.088 271.7 63.998 270.084C66.904 268.454 69.7161 266.686 72.4791 264.782C75.2171 262.899 77.9131 260.908 80.5631 258.795C81.9001 257.758 83.174 256.647 84.498 255.555C85.349 254.819 86.179 254.119 87.046 253.334C87.882 253.996 88.662 254.731 89.415 255.533C90.846 256.903 91.8501 258.635 93.1691 260.494C93.2741 258.287 92.8981 255.937 91.7711 253.896C91.1531 252.69 90.3601 251.557 89.3971 250.571C88.7251 249.852 87.9831 249.211 87.1931 248.671C86.2211 247.999 85.2121 247.411 84.1331 246.959C83.0861 246.514 81.9761 246.174 80.8701 245.966C78.6311 245.558 76.337 245.518 74.145 246.225C73.964 246.271 73.8781 246.456 73.9481 246.616C73.9691 246.699 74.0291 246.758 74.1161 246.81L74.1301 246.806C76.9721 248.01 79.5941 249.048 82.0211 250.254C81.6331 250.886 81.2041 251.53 80.7781 252.127C79.8711 253.455 78.8551 254.707 77.8181 255.935C75.7101 258.37 73.4021 260.662 70.9231 262.747C65.9361 266.923 60.358 270.345 54.462 273.106C51.495 274.44 48.4441 275.617 45.3181 276.561C44.4061 276.823 43.4661 277.092 42.5331 277.329C41.5861 277.569 40.6221 277.8 39.6641 277.999Z" fill="#A14944"/>
<path d="M417.754 259.81C418.904 269.035 421.72 278.03 425.973 286.292C379.934 311.539 324.176 333.928 272.898 337.433C276.246 336.542 279.796 335.319 282.957 334.17C290.142 331.555 296.981 327.963 302.93 323.12C297.182 323.062 291.436 323.019 285.688 322.962C296.422 318.723 307.83 313.953 314.181 304.325C313.463 304.325 312.73 304.339 312.011 304.339C340.922 295.287 368.51 281.162 369.373 280.731L360.392 291.307C360.392 291.307 401.588 268.029 410.008 257.683C410.238 257.396 410.439 257.123 410.626 256.864L410.066 258.229L407.623 264.221C407.623 264.221 408.701 263.632 410.626 262.568C411.014 265.887 411.258 269.221 410.511 270.284L417.754 259.81Z" fill="#FFDCA2"/>
<path d="M515.766 215.409C505.981 232.207 478.205 255.441 441.88 277.167C438.144 271.908 433.905 266.965 430.184 261.677C428.502 259.277 426.908 256.777 425.528 254.162C447.455 241.546 482.947 220.107 493.091 207.965C504.198 194.645 509.601 161.783 517.921 141.781C528.18 168.264 526.485 197.002 515.766 215.409Z" fill="#FFDCA2"/>
<path d="M336.741 252.496C336.727 252.51 336.727 252.525 336.712 252.539C308.275 296.307 293.634 291.609 293.03 293.922C293.202 293.922 293.36 293.922 293.519 293.908C297.729 293.807 301.939 293.693 306.149 293.577C299.956 300.374 292.211 305.733 283.676 309.182C283.288 309.584 282.886 309.987 282.469 310.375C288.418 311.568 294.654 311.338 300.488 309.685C290.731 316.324 279.653 321.022 268.1 323.393C270.974 324.686 273.862 325.98 276.736 327.258C265.945 328.25 255.197 329.859 244.578 332.057C228.082 338.997 211.127 344.802 193.841 349.415C192.332 349.832 190.824 350.22 189.315 350.608C181.484 352.591 173.552 354.344 165.505 354.962C164.945 355.005 164.356 355.048 163.738 355.106C155.95 355.752 143.851 357.089 136.796 356.816C116.636 356.026 66.23 356.658 58.499 354.934C58.6 344.114 63.5861 333.424 71.8191 326.411C80.0531 319.385 91.4041 316.166 102.095 317.79C105.055 318.235 108.116 319.04 110.989 318.192C113.245 317.531 115.099 315.922 116.866 314.37C117.757 313.58 118.648 312.804 119.553 312.028C134.741 298.78 150.389 285.891 167.848 275.832C199 257.899 301.164 190.25 335.162 204.403C345.822 208.842 343.034 242.811 336.741 252.496Z" fill="#FF7D00"/>
<path d="M163.737 355.105C155.949 355.751 143.85 357.088 136.795 356.815C116.635 356.025 66.229 356.657 58.498 354.933C58.599 344.113 63.5851 333.423 71.8181 326.41C80.0521 319.384 91.4031 316.165 102.094 317.789C105.054 318.234 108.115 319.039 110.988 318.191C113.244 317.53 115.098 315.921 116.865 314.369C117.756 313.579 118.647 312.803 119.552 312.027C121.434 312.17 123.374 312.17 125.443 312.128C133.202 311.97 136.047 311.467 133.332 319.37C132.369 322.129 134.051 325.276 136.522 326.856C138.979 328.422 142.04 328.738 144.957 328.767C150.805 328.824 156.668 327.89 162.214 326.008C158.924 329.184 155.647 332.359 152.371 335.535C150.934 336.929 149.454 339.242 150.848 340.679C151.423 341.254 152.285 341.412 153.09 341.527C157.99 342.274 162.875 343.007 167.761 343.74C168.651 348.007 166.783 351.887 163.737 355.105Z" fill="#FFDCA2"/>
<path d="M285.688 322.962C291.436 323.019 297.183 323.063 302.931 323.12C296.982 327.962 290.143 331.554 282.958 334.17C279.797 335.32 276.588 336.519 273.24 337.41C252.151 339.159 238.37 336.603 234.564 336.11C237.941 334.817 241.245 333.466 244.579 332.058C255.198 329.86 265.946 328.25 276.737 327.259C273.863 325.98 270.975 324.687 268.101 323.394C279.654 321.023 290.733 316.325 300.49 309.686C295.504 311.094 290.215 311.468 285.071 310.793C293.649 309.543 302.903 307.186 312.013 304.341C312.732 304.341 313.464 304.327 314.183 304.327C307.83 313.952 296.421 318.723 285.688 322.962Z" fill="#E0BB86"/>
<path d="M441.88 277.167C436.75 280.242 431.434 283.288 425.973 286.291C421.72 278.029 418.903 269.034 417.754 259.809L410.512 270.284C411.259 269.221 411.015 265.887 410.627 262.568C413.731 260.858 419.033 257.898 425.528 254.162C426.908 256.777 428.502 259.277 430.184 261.677C433.905 266.965 438.144 271.908 441.88 277.167Z" fill="#E0BB86"/>
<path d="M305.862 304.383C307.917 304.369 309.957 304.354 312.012 304.34C302.902 307.185 293.648 309.542 285.07 310.792C284.193 310.691 283.331 310.548 282.469 310.375C282.886 309.987 283.288 309.585 283.676 309.182C292.211 305.733 299.956 300.374 306.149 293.577C301.939 293.692 297.728 293.807 293.519 293.908C293.361 293.922 293.203 293.922 293.03 293.922C293.634 291.609 308.276 296.307 336.712 252.539C331.065 272.411 321.409 291.077 305.862 304.383Z" fill="#B25109"/>
<path d="M425.528 254.163C419.033 257.899 413.731 260.859 410.627 262.569C410.455 261.046 410.239 259.523 410.067 258.23C410.053 258.043 410.024 257.856 410.01 257.684C409.895 256.707 409.809 255.888 409.809 255.356C409.809 250.082 410.082 244.795 410.599 239.55C411.547 230.095 412.553 218.37 416.663 209.763C419.58 212.45 417.496 220.497 417.41 224.132C417.252 230.512 417.367 236.878 417.726 243.243C418.746 240.901 419.752 238.559 420.758 236.217C420.556 242.495 422.553 248.558 425.528 254.163Z" fill="#B25109"/>
<path d="M526.887 262.841C525.163 262.223 524.085 260.211 524.516 258.444C523.28 264.407 521.312 270.212 518.653 275.687C517.934 272.583 517.231 269.479 516.512 266.362C507.833 278.619 500.792 292.039 495.62 306.15C492.89 313.55 490.691 321.137 489.025 328.853C471.523 329.456 450.401 330.117 432.928 329.212C431.534 322.128 435.155 312.659 440.429 307.716C445.688 302.759 456.048 301.695 463.032 303.534C460.877 301.422 458.721 299.295 456.58 297.14C442.556 283.058 429.293 267.827 422.928 249.162C413.114 220.409 421.663 187.878 438.432 162.531C447.068 149.455 458.376 139.081 469.828 128.534C479.843 119.309 494.327 107.469 506.326 120.588C509.818 124.396 513.252 130.819 515.249 135.589C524.244 156.941 528.986 178.251 528.483 201.414C526.988 201.644 525.394 200.767 524.79 199.388C525.983 208.182 527.19 216.976 528.397 225.77C530.091 238.184 531.701 251.289 526.887 262.841Z" fill="#FF7D00"/>
<path d="M495.62 306.15C492.89 313.55 490.691 321.137 489.025 328.853C471.523 329.456 450.401 330.117 432.928 329.212C431.534 322.128 435.155 312.659 440.429 307.716C445.688 302.759 456.048 301.695 463.032 303.534C460.877 301.422 458.721 299.295 456.58 297.14C464.368 295.603 472.285 293.548 472.788 291.091C472.659 293.002 471.15 294.554 470.489 296.379C468.736 301.193 473.822 306.265 478.938 306.553C484.053 306.826 488.752 303.981 493.077 301.236C492.732 303.175 494.111 304.727 495.62 306.15Z" fill="#FFDCA2"/>
<path d="M524.818 136.968C524.459 137.571 524.071 138.161 523.654 138.735C522.332 140.56 520.694 142.184 518.725 143.161C518.596 143.218 518.466 143.29 518.337 143.348C517.82 143.578 517.274 143.765 516.713 143.894C513.552 144.641 510.218 143.592 507.359 142.026C500.462 138.247 495.605 131.695 490.174 125.99C487.702 123.404 485.073 120.961 482.3 118.705C474.986 112.67 466.724 107.813 457.901 104.379C447.009 100.14 433.488 93.6451 446.894 82.2791C456.852 73.8161 473.793 70.2521 486.481 70.7551C502.345 71.4021 518.208 79.175 526.858 92.496C527.806 93.962 528.625 96.0311 527.404 97.2811C526.326 98.3881 524.387 98 523.151 98.934C521.154 100.471 522.691 103.604 524.085 105.716C530.12 114.897 530.408 127.513 524.818 136.968Z" fill="#FF7D00"/>
<path d="M250.857 186.427C246.331 188.065 241.373 188.468 236.66 187.562C235.482 187.332 234.332 187.03 233.212 186.671C227.033 184.659 221.659 180.665 216.731 176.11C214.36 173.926 212.09 171.612 209.877 169.342C208.397 167.804 206.903 166.281 205.422 164.758C206.758 166.138 215.811 160.534 217.909 159.528C219.927 161.959 221.768 164.355 223.425 166.672L223.427 166.669C223.461 166.721 223.503 166.779 223.539 166.832C223.859 167.282 224.185 167.735 224.491 168.178C228.599 173.71 237.81 183.308 250.857 186.427Z" fill="#B25109"/>
<path d="M516.555 128.562C519.242 131.709 521.627 135.129 523.653 138.735C522.331 140.56 520.693 142.184 518.724 143.161C518.365 142.615 518.006 142.083 517.632 141.537C516.051 139.209 514.429 136.896 512.776 134.611C509.514 130.099 500.274 121.621 496.121 114.882C494.857 112.813 494.066 110.902 494.066 109.321C500.173 110.499 506.251 113.977 511.237 117.641C512.818 118.805 523.853 131.076 524.112 131.076C521.397 131.623 518.408 130.631 516.555 128.562Z" fill="#B25109"/>
</svg>
