<svg width="329" height="599" viewBox="0 0 329 599" fill="none" xmlns="http://www.w3.org/2000/svg">
<path d="M276.227 575.901C251.622 579.233 226.423 581.11 201.501 580C188.623 579.432 175.799 578.07 163.186 575.703C157.95 574.725 152.252 569.925 151.419 564.677C150.89 561.345 152.913 557.934 152.12 554.669C151.671 552.805 150.375 551.298 149.185 549.804C138.41 536.332 133.174 518.774 133.729 501.52C134.271 484.28 140.406 467.409 150.15 453.17C175.072 416.759 224.784 430.839 248.741 461.671C250.923 464.474 252.892 467.435 254.651 470.516C265.453 489.33 268.375 512.639 262.108 533.449C260.112 540.06 252.681 547.543 251.822 549.645C251.61 550.187 251.822 550.372 252.681 550.094C256.872 548.719 269.3 547.516 272.566 550.464C275.964 553.531 277.577 557.736 277.947 562.376C278.329 566.712 277.602 571.419 276.227 575.901Z" fill="#B25109"/>
<path d="M276.228 575.901C251.623 579.233 226.424 581.11 201.502 580C196.941 576.483 192.948 572.239 189.801 567.413C193.186 566.739 196.57 566.051 199.955 565.377C197.721 561.781 195.486 558.185 193.239 554.588C197.47 557.444 202.93 558.422 207.875 557.192C208.457 557.047 209.078 556.848 209.422 556.359C210.612 554.667 207.267 552.525 208.1 550.621C215.478 551.123 222.895 551.348 230.298 551.269C236.75 551.203 245.079 552.062 251.227 549.881C251.425 549.815 251.624 549.735 251.822 549.643C251.61 550.185 251.822 550.37 252.681 550.092C256.872 548.717 269.3 547.514 272.566 550.462C279.124 556.386 279.071 566.619 276.228 575.901Z" fill="#E0BB86"/>
<path d="M0.153069 525.876C-0.300931 528.734 0.184037 532.096 2.57104 533.732C4.30704 534.922 6.70306 534.946 8.28106 536.34C10.5301 538.327 9.98505 542.011 8.60705 544.677C7.22805 547.343 5.17508 549.804 4.86608 552.789C4.22308 559.008 11.1411 563.149 17.1811 564.763C28.8571 567.884 41.369 567.813 53.008 564.56C54.636 564.105 56.3241 563.542 57.4751 562.305C58.7521 560.932 59.1441 558.978 59.4371 557.126C61.5121 544.018 61.2551 530.544 58.6821 517.524C56.2351 505.145 47.9421 486.727 32.2961 491.51C20.3191 495.171 2.15507 513.279 0.153069 525.876Z" fill="#B25109"/>
<path d="M283.915 289.217C283.614 289.981 283.325 290.733 283.035 291.485C279.679 300.13 276.045 308.764 271.45 316.772C269.749 319.769 267.897 322.686 265.872 325.475C258.454 335.752 248.501 344.443 236.847 348.089C225.193 351.723 211.768 349.651 203.216 341.041C195.173 332.951 192.36 320.209 193.749 308.312C195.138 296.426 200.265 285.224 206.213 274.854C213.423 262.286 221.964 250.551 231.627 239.926C237.795 233.144 244.589 226.698 252.713 222.948C275.211 212.544 287.27 231.743 290.36 253.096C292.108 265.226 288.336 277.574 283.915 289.217Z" fill="#B25109"/>
<path d="M308.143 299.675C303.144 305.637 293.124 307.81 284.263 306.765C273.585 305.503 268.681 297.997 265.44 290.856C262.199 283.715 258.542 260.758 256.639 260.277C255.95 258.787 255.186 257.322 254.372 255.873C251.744 251.172 248.72 246.592 247.025 241.646C244.787 235.173 245.362 227.458 251.27 223.36C254.202 221.338 258.068 220.46 261.921 220.155C270.72 219.465 280.101 221.672 287.179 226.568C294.589 231.719 298.913 239.192 302.202 246.815C302.82 248.243 303.392 249.663 303.952 251.082C308.617 263.035 312.426 275.408 311.913 287.732C311.721 291.962 310.959 296.309 308.143 299.675Z" fill="#B25109"/>
<path d="M308.143 299.675C303.144 305.637 293.124 307.81 284.263 306.765C273.585 305.503 268.681 297.997 265.44 290.856C262.199 283.715 258.542 260.758 256.639 260.277C255.95 258.787 255.186 257.322 254.372 255.873C254.401 254.716 254.385 253.551 254.344 252.394C254.266 250.406 254.309 248.114 255.748 246.805C257.876 244.886 260.968 246.603 263.524 247.668C265.114 248.334 266.978 248.696 268.524 247.867C270.073 247.026 270.88 244.587 269.687 243.3C277.214 243.897 284.753 244.496 292.282 245.081C295.639 245.355 299.053 245.639 302.2 246.815C302.818 248.243 303.39 249.663 303.95 251.082C308.615 263.035 312.424 275.408 311.911 287.732C311.721 291.962 310.959 296.309 308.143 299.675Z" fill="#E0BB86"/>
<path d="M49.0216 377.406C49.6316 392.077 51.5326 406.69 51.5886 421.374C51.6066 426.088 51.4276 430.851 50.2146 435.406C48.5166 441.78 44.8886 447.432 41.7256 453.219C34.9726 465.571 30.1656 478.985 27.5356 492.815C23.7696 512.616 24.6266 533.756 33.0836 552.052C41.5406 570.348 58.3046 585.34 78.1726 588.737C87.2486 590.289 96.5416 589.451 105.711 588.61C119.939 587.304 134.166 585.998 148.394 584.692C155.283 584.06 162.555 583.287 168.12 579.177C172.95 575.609 175.795 570.027 178.47 564.651C183.281 554.985 188.091 545.319 192.902 535.653C198.637 524.129 204.393 512.554 208.387 500.316C212.33 488.234 214.504 475.659 216.665 463.135C218.94 449.958 221.218 436.746 221.972 423.395C223.166 402.236 220.513 381.046 216.989 360.149C213.47 339.279 209.077 318.556 203.826 298.053C199.8 282.331 194.115 265.203 180.028 257.144C168.94 250.801 154.842 251.547 143.816 245.097C129.361 236.641 129.32 221.326 119.666 209.876C108.525 196.662 95.4296 221.253 90.2146 229.222C71.9876 257.072 59.3576 288.561 53.1716 321.259C49.6766 339.737 48.2396 358.612 49.0216 377.406Z" fill="#FF7D00"/>
<path d="M178.641 568.663C182.039 571.73 183.652 575.935 184.022 580.575C168.751 584.938 152.622 585.744 136.769 583.854C129.563 583.008 122.411 581.593 115.43 579.716C122.345 574.454 127.646 567.407 132.869 560.453C141.066 549.519 149.382 538.281 156.694 526.58C160.713 520.141 164.428 513.557 167.641 506.814C167.786 506.51 167.932 506.219 168.064 505.915C172.454 520.736 172.652 536.826 168.183 551.647C166.187 558.258 158.756 565.741 157.897 567.843C157.685 568.385 157.897 568.57 158.756 568.293C162.947 566.918 175.375 565.714 178.641 568.663Z" fill="#FFDCA2"/>
<path d="M255.839 309.91C260.109 329.953 260.995 350.697 258.457 371.032C256.778 367.951 254.213 365.373 251.146 363.694C249.678 383.711 249.771 403.781 249.996 423.851C250.234 446.737 250.657 469.623 249.11 492.443C248.211 505.902 246.558 519.533 241.402 532.001C240.53 534.103 239.564 536.152 238.507 538.149C231.725 544.998 224.321 551.238 216.428 556.791C213.731 558.695 210.941 560.533 207.847 561.67C202.321 563.706 196.252 563.402 190.382 562.847C186.812 562.503 183.256 562.093 179.699 561.591C178.932 561.485 178.126 561.34 177.332 561.155C183.559 545.884 180.399 521.809 177.649 505.996C176.79 500.998 175.467 496.265 173.802 491.823C176.777 483.11 178.773 474.133 179.434 464.812C183.599 469.81 187.777 474.794 191.941 479.778C196.198 446.923 189.059 412.694 172.017 384.268C178.191 387.296 184.352 390.323 190.527 393.351C187.804 369.473 180.783 346.125 169.968 324.667C167.443 319.617 164.693 314.685 161.744 309.873C165.895 310.666 159.258 294.602 163.41 295.396C168.183 285.678 180.796 291.403 179.421 280.654C179.117 278.314 178.667 275.908 179.302 273.634C179.395 273.277 179.527 272.933 179.672 272.603C180.307 271.096 181.351 269.76 182.369 268.465C187.644 261.775 192.933 255.072 198.208 248.369C199.358 246.902 200.68 245.275 202.135 243.556C208.917 235.518 218.595 225.602 227.863 221.886C235.399 218.832 242.658 219.916 247.867 229.449C248.409 230.454 248.938 231.551 249.44 232.754C255.032 246.16 258.192 261.061 260.03 275.419C260.969 282.691 261.471 290.028 261.551 297.366C261.617 303.329 259.343 312.121 260.652 317.78C259.951 314.723 258.232 311.92 255.839 309.91Z" fill="#FFDCA2"/>
<path d="M230.903 76.0838C231.067 76.6428 231.16 77.2398 231.148 77.8168C231.152 78.2348 231.084 78.6498 230.971 79.0518C229.863 82.7458 225.306 82.2138 221.924 81.4038C215.09 79.7798 208.013 79.0788 200.99 79.3088C195.352 79.4978 188.248 82.2998 182.821 80.9478C182.071 80.7578 181.334 80.5218 180.596 80.2448C173.187 77.4768 166.446 70.4248 161.125 63.5988C159.073 60.9618 157.232 58.3658 155.656 56.0548C148.742 45.9738 142.915 35.0718 134.693 26.0258C130.107 20.9748 124.754 16.4948 120.388 11.3118C117.941 8.41981 120.376 4.03281 124.135 4.55881C124.604 4.62181 125.06 4.68881 125.529 4.75081C147.491 7.93181 169.41 13.6728 188.498 24.9698C203.42 33.7828 216.531 46.2798 224.77 61.3998C227.305 66.0528 229.381 70.9598 230.903 76.0838Z" fill="#FF7D00"/>
<path d="M213.111 62.7768C204.247 65.9878 194.538 66.8608 185.233 65.2888C181.178 58.3638 177.966 50.7998 172.968 44.5478C166.997 37.0918 159.082 31.4648 150.964 26.4658C146.945 24.0018 142.36 20.9068 142.087 16.2058C159.645 17.3068 176.84 23.6618 190.892 34.2568C200.755 41.6898 209.039 51.2028 215.144 61.9398C214.49 62.2748 213.807 62.5238 213.111 62.7768Z" fill="#FFDCA2"/>
<path d="M221.68 76.2168C221.817 76.6168 221.959 77.0298 222.071 77.4378C214.89 77.1638 207.691 77.2868 200.512 77.7948C197.129 76.8178 193.694 76.5848 191.35 73.9508C188.989 71.3088 187.027 68.3618 185.231 65.2878C194.535 66.8598 204.244 65.9868 213.109 62.7758C213.805 62.5228 214.488 62.2738 215.142 61.9378C217.726 66.4898 219.926 71.2698 221.68 76.2168Z" fill="#E0BB86"/>
<path d="M200.513 77.7948C193.84 78.2688 187.199 79.0808 180.595 80.2438C173.186 77.4758 166.446 70.4238 161.125 63.5978C163.172 62.9648 165.327 64.0698 167.263 65.0268C169.249 66.0088 171.736 66.8178 173.573 65.5718C174.013 65.2668 174.378 64.8618 174.814 64.5448C176.572 63.3118 178.968 63.9008 181.051 64.4298C182.43 64.7808 183.829 65.0698 185.232 65.2868C187.028 68.3608 188.99 71.3078 191.351 73.9498C193.696 76.5858 197.13 76.8178 200.513 77.7948Z" fill="#EA6A00"/>
<path d="M230.904 76.0838C231.068 76.6428 231.161 77.2398 231.149 77.8168C229.971 77.8858 228.766 77.7968 227.594 77.7228C225.762 77.5968 223.913 77.5048 222.072 77.4378C221.96 77.0288 221.818 76.6168 221.681 76.2168C219.927 71.2698 217.726 66.4898 215.143 61.9388C215.639 61.7128 216.121 61.4488 216.574 61.1398C217.081 60.7838 217.566 60.3658 218.141 60.1268C219.465 59.5458 220.999 59.9418 222.354 60.4278C223.168 60.7218 223.978 61.0448 224.771 61.4008C227.306 66.0528 229.382 70.9598 230.904 76.0838Z" fill="#EA6A00"/>
<path d="M226.824 76.6348C226.961 77.4848 226.993 78.3448 226.73 79.1638C225.785 82.0058 221.919 82.5378 219.034 81.7648C214.75 80.6158 211.239 77.8428 207.454 75.6608C206.767 75.2598 206.069 74.9288 205.354 74.6428C212.546 74.9198 219.715 75.5808 226.824 76.6348Z" fill="#FFDCA2"/>
<path d="M325.243 123.663C324.917 126.786 324.202 130.349 323.001 134.401C322.319 136.669 321.483 139.094 320.49 141.662C316.401 152.206 311.866 160.885 306.497 167.733C303.488 170.376 300.313 172.827 297.07 175.157C291.273 179.323 285.051 183.585 278.302 185.933C278.318 185.943 278.337 185.966 278.352 185.976L278.197 186.011C276.681 186.38 275.106 186.667 273.493 186.908C267.223 187.833 260.889 187.39 254.979 186.242C239.237 183.203 226.578 175.2 226.578 175.2C226.578 175.2 228.491 179.661 232.176 185.607C232.943 186.844 233.775 188.133 234.687 189.473C235.773 191.044 236.954 192.676 238.247 194.322C240.885 197.671 243.953 201.059 247.433 204.111C253.396 209.34 260.568 213.565 268.863 214.948C271.173 215.335 273.581 215.497 276.066 215.398C276.576 215.378 277.084 215.345 277.589 215.299C279.186 215.169 280.815 214.938 282.481 214.576L287.234 222.436L288.401 224.368C287.329 225.084 286.142 225.65 284.881 226.069C284.506 226.208 284.125 226.321 283.744 226.434C281.691 227.005 279.519 227.291 277.428 227.396C271.879 227.671 266.45 227.214 261.281 225.926C255.486 224.508 249.988 222.061 244.908 218.462C245.092 219.098 245.273 219.721 245.447 220.373C245.473 220.489 245.515 220.615 245.541 220.731C242.892 219.2 241.032 218.101 240.829 217.985C241.088 218.591 245.605 228.591 250.659 241.276C250.848 242.114 251.034 242.94 251.197 243.784C249.521 244.284 247.871 245.143 246.359 246.013C244.389 247.135 242.415 248.298 240.454 249.458C238.899 250.378 237.332 251.3 235.78 252.233C223.904 259.314 211.962 266.519 199.28 271.166C194.521 272.902 189.668 274.281 184.679 275.175C182.985 275.476 181.276 275.711 179.556 275.896C167.164 277.198 154.693 274.601 143.558 269.155C142.74 269.312 141.924 269.483 141.112 269.666C141.271 269.169 141.459 268.68 141.647 268.19C122.476 258.117 107.569 239.535 104.321 218.027C104.154 216.926 104.013 215.819 103.898 214.707C111.71 198.255 118.011 176.181 115.622 164.495C114.551 159.261 115.148 149.762 117.572 138.807C119.738 128.994 123.365 118.026 128.54 107.915C128.567 107.855 128.607 107.792 128.634 107.731C131.433 102.289 134.684 97.1108 138.4 92.4918C138.856 91.9278 139.324 91.3618 139.796 90.8088C140.719 89.7328 141.677 88.6908 142.659 87.6968C146.543 83.7048 150.874 80.3698 155.636 77.9278C158.431 76.4988 161.379 75.3868 164.491 74.6448C169.045 73.5638 173.426 72.4958 177.653 71.5288L179.678 71.0728C185.157 69.8248 190.391 68.7538 195.422 67.9858C200.068 67.2508 204.553 66.7678 208.899 66.6288C214.24 66.4548 219.387 66.7998 224.42 67.8468C227.855 68.5358 231.231 69.5648 234.588 70.9898C241.624 73.9438 248.524 78.5828 255.488 85.4298C282.725 112.171 275.783 114.264 283.446 115.369C283.795 115.412 284.156 115.453 284.535 115.449C285.327 115.474 286.165 115.407 287.073 115.284C291.124 114.737 296.239 112.839 301.198 110.908C306.442 108.859 311.498 106.757 314.963 106.139C319.015 105.416 323.158 107.68 324.756 113.812C325.435 116.396 325.667 119.651 325.243 123.663Z" fill="#FF7D00"/>
<path d="M250.858 100.507C250.911 102.142 251.153 103.78 251.7 105.321C252.901 108.702 255.518 111.434 258.512 113.411C260.244 114.555 262.181 115.497 264.252 115.642C266.323 115.786 268.546 115.007 269.718 113.294C270.77 111.758 270.833 109.712 270.325 107.921C269.817 106.13 268.801 104.532 267.798 102.964C265.252 98.9808 262.428 94.3108 258.14 91.9798C252.847 89.1008 250.729 96.5198 250.858 100.507Z" fill="#EA6A00"/>
<path d="M194.984 123.601C193.997 129.121 195.618 134.87 198.476 139.695C199.804 141.936 201.482 144.094 203.817 145.248C207.249 146.943 211.545 146.09 214.665 143.872C217.785 141.655 219.892 138.278 221.472 134.791C222.095 133.417 222.65 132.007 223.018 130.544C224.245 125.662 223.2 120.196 220.019 116.294C211.904 106.339 197.12 111.649 194.984 123.601Z" fill="#EA6A00"/>
<path d="M221.265 117.784C221.852 118.909 222.245 120.091 222.473 121.27C222.468 121.288 222.468 121.288 222.474 121.3C223.409 126.464 220.936 131.871 216.037 134.427C210.001 137.577 202.544 135.234 199.394 129.198C198.348 127.194 197.909 125.037 198.008 122.942C198.008 122.942 198.014 122.924 198.007 122.912C198.212 118.674 200.608 114.665 204.628 112.567C210.665 109.417 218.115 111.748 221.265 117.784Z" fill="#E2E2E2"/>
<path d="M221.265 117.784C221.852 118.909 222.245 120.091 222.473 121.27C222.468 121.288 222.468 121.288 222.474 121.3C222.27 125.538 219.891 129.553 215.859 131.657C209.823 134.807 202.366 132.464 199.216 126.428C198.629 125.303 198.224 124.127 198.008 122.942C198.008 122.942 198.014 122.924 198.007 122.912C198.212 118.674 200.608 114.665 204.628 112.567C210.665 109.417 218.115 111.748 221.265 117.784Z" fill="white"/>
<path d="M212.78 133.356C218.635 132.807 222.937 127.615 222.387 121.76C221.838 115.904 216.646 111.603 210.791 112.152C204.935 112.701 200.634 117.893 201.183 123.749C201.732 129.604 206.924 133.906 212.78 133.356Z" fill="#201600"/>
<path d="M215.566 115.157C217.348 116.591 218.211 118.475 217.494 119.366C216.777 120.257 214.751 119.817 212.97 118.383C211.188 116.949 210.325 115.064 211.042 114.174C211.759 113.283 213.784 113.723 215.566 115.157Z" fill="white"/>
<path d="M327.736 128.198C327.71 135.324 325.673 142.53 322.262 148.81C318.322 156.082 312.756 162.282 306.502 167.73C303.487 170.374 300.314 172.833 297.075 175.16C291.271 179.325 285.044 183.582 278.301 185.935C278.314 185.948 278.341 185.962 278.354 185.975C281.078 188.778 283.576 191.832 285.771 195.084C287.477 197.556 288.997 200.148 290.346 202.845C291.113 204.352 291.8 205.978 292.342 207.644C293.373 210.791 293.862 214.083 293.267 217.11C292.963 218.71 292.355 220.217 291.35 221.592C290.53 222.703 289.538 223.628 288.402 224.368C287.331 225.082 286.141 225.651 284.885 226.074C284.502 226.206 284.118 226.325 283.748 226.431C281.685 226.999 279.517 227.29 277.428 227.396C271.875 227.674 266.454 227.211 261.285 225.928C255.481 224.513 249.981 222.067 244.904 218.458C245.023 218.868 245.142 219.278 245.248 219.688C245.327 219.913 245.38 220.137 245.446 220.376C245.472 220.495 245.512 220.614 245.539 220.733C246.346 223.615 247.126 226.511 247.866 229.446C248.858 233.359 249.783 237.299 250.656 241.279C250.841 242.112 251.039 242.945 251.198 243.791C249.519 244.28 247.866 245.14 246.359 246.012C244.389 247.136 242.419 248.299 240.449 249.463C238.902 250.375 237.289 251.235 235.782 252.24C235.187 252.637 234.592 253.02 234.011 253.39C191.386 281.221 192.88 273.843 179.553 275.893C179.606 274.769 179.646 273.672 179.672 272.601C180.227 253.642 177.768 241.782 169.201 241.901C165.076 241.941 161.268 243.501 157.685 245.616C157.672 245.616 157.659 245.616 157.672 245.629C155.2 247.097 152.846 248.815 150.585 250.521C150.757 244.638 150.955 238.741 151.127 232.857C147.214 235.858 142.52 237.855 137.628 238.595C140.709 231.403 143.234 223.959 145.204 216.37C141.37 216.727 137.496 216.621 133.688 216.066C133.701 216.053 133.701 216.053 133.701 216.053L152.898 208.173C144.476 208.504 136.861 211.254 130.091 215.392C129.88 215.352 129.655 215.3 129.443 215.247C149.923 195.495 179.34 188.62 203.865 174.222C209.233 171.075 214.429 167.519 218.659 162.984C228.231 152.751 232.211 137.613 228.945 123.995C227.557 118.283 225.005 112.916 221.964 107.878C213.635 94.1408 201.286 83.0088 187.02 75.6838C186.491 75.4058 185.962 75.1418 185.434 74.9038C184.984 74.6788 184.548 74.4678 184.112 74.2558C181.996 73.2638 179.841 72.3518 177.647 71.5318L179.67 71.0688C185.157 69.8258 190.393 68.7548 195.417 67.9878C200.071 67.2478 204.553 66.7718 208.903 66.6258C213.954 69.4028 218.753 72.6018 223.314 76.1448C224.491 77.0438 225.641 77.9828 226.778 78.9208C227.796 79.7668 228.801 80.6268 229.793 81.5118C233.892 85.1348 237.765 89.0078 241.441 93.0538C244.892 96.8348 248.144 100.775 251.502 104.636C253.776 107.267 256.09 109.845 258.523 112.344C259.396 113.23 260.308 114.116 261.26 114.909C261.286 114.909 261.3 114.909 261.3 114.909C262.357 115.782 263.508 116.535 264.79 117.051C265.094 117.17 265.411 117.276 265.715 117.368C267.989 118.056 270.448 118.016 272.828 117.791C276.808 117.408 280.681 116.508 284.529 115.451C285.944 115.068 287.332 114.658 288.734 114.248C292 113.283 295.265 112.291 298.544 111.471C299.416 111.259 300.303 111.061 301.201 110.903C301.703 110.811 302.219 110.731 302.721 110.652C303.025 110.599 303.343 110.56 303.647 110.52C305.67 110.242 307.706 110.097 309.769 110.123C310.43 110.123 311.118 110.149 311.765 110.176C313.312 110.282 314.819 110.454 316.326 110.731C319.208 111.247 321.998 112.146 324.616 113.468C324.669 113.574 324.722 113.693 324.762 113.812C326.097 116.694 326.957 119.735 327.393 122.842C327.657 124.615 327.763 126.4 327.736 128.198Z" fill="#FFDCA2"/>
<path d="M152.899 208.173L133.702 216.053C133.702 216.053 133.702 216.053 133.689 216.066C132.486 215.894 131.283 215.669 130.093 215.392C136.862 211.254 144.477 208.504 152.899 208.173Z" fill="#E0BB86"/>
<path d="M133.689 216.066C132.909 216.78 107.868 239.587 90.5078 267.272C90.5078 267.272 104.232 231.178 130.092 215.392C131.282 215.669 132.485 215.894 133.689 216.066Z" fill="#EA6A00"/>
<path d="M161.744 309.871C164.692 314.684 167.442 319.615 169.968 324.665C169.73 324.678 169.505 324.718 169.267 324.771C167.482 325.168 166.107 326.569 164.825 327.878C157.95 334.991 158.505 343.241 147.717 352.033C105.198 386.739 77.3144 338.984 77.9754 336.062C78.5174 333.656 83.2903 333.603 85.1543 332.003C95.3743 323.264 107.961 317.777 118.961 310.029C142.362 293.556 165.895 310.664 161.744 309.871Z" fill="#B25109"/>
<path d="M196.357 325.287C189.403 328.143 181.47 327.429 174.238 325.38C172.836 324.996 171.395 324.534 169.968 324.666C167.443 319.616 164.693 314.684 161.744 309.872C165.895 310.665 159.258 294.601 163.41 295.395C168.183 285.677 180.796 291.402 179.421 280.653C179.117 278.313 178.667 275.907 179.302 273.633C179.395 273.276 179.527 272.932 179.672 272.602C180.307 271.095 181.351 269.759 182.369 268.464C187.644 261.774 192.933 255.071 198.208 248.368C199.358 246.901 196.649 240.492 198.103 238.773C205.414 251.889 213.822 271.426 214.523 286.432C215.237 301.674 210.464 319.483 196.357 325.287Z" fill="#E0BB86"/>
<path d="M327.391 122.846C328.649 131.616 326.536 140.942 322.266 148.816C318.321 156.088 312.766 162.287 306.499 167.738C303.49 170.381 300.315 172.832 297.072 175.162C291.275 179.328 285.053 183.59 278.304 185.938C278.32 185.948 278.338 185.971 278.354 185.981C281.086 188.781 283.577 191.838 285.772 195.084C282.611 196.393 279.375 197.488 276.073 198.354C267.114 200.698 257.537 201.379 248.604 198.907C241.156 196.831 231.607 191.502 228.518 183.931C235.451 187.695 242.469 188.282 250.255 187.11C271.432 183.896 291.284 172.578 304.835 155.971C309.17 150.671 312.913 144.786 314.964 138.252C315.608 136.237 316.076 134.166 316.99 132.266C318.254 129.636 320.287 127.471 322.505 125.588C323.942 124.382 325.608 123.234 327.391 122.846Z" fill="#E0BB86"/>
<path d="M177.213 287.21C176.869 288.082 176.539 288.942 176.208 289.801C172.374 299.677 168.223 309.54 162.974 318.689C161.031 322.113 158.915 325.445 156.601 328.631C148.126 340.371 136.756 350.301 123.442 354.465C110.128 358.616 94.7924 356.25 85.0214 346.413C75.8324 337.171 72.6204 322.615 74.2064 309.024C75.7934 295.446 81.6504 282.648 88.4454 270.801C96.6824 256.443 106.439 243.036 117.479 230.899C124.526 223.151 132.287 215.787 141.568 211.504C167.27 199.618 181.047 221.552 184.577 245.945C186.573 259.802 182.263 273.909 177.213 287.21Z" fill="#FF7D00"/>
<path d="M309.767 110.134C309.663 110.212 309.542 110.28 309.435 110.345C306.911 111.835 304.118 112.79 301.389 113.852C295.76 116.056 290.316 118.719 285.136 121.838C282.787 123.262 280.471 124.773 277.968 125.934C274.544 127.519 270.844 128.42 267.174 129.275C260.105 130.922 253.034 132.502 245.93 133.995C245.102 134.168 241.633 135.438 241.024 134.599C240.238 133.516 242.846 131.857 243.532 131.296C246.024 129.244 248.622 127.303 251.291 125.495C255.866 122.404 260.69 119.69 265.712 117.38C267.993 118.059 270.451 118.02 272.826 117.796C276.806 117.414 280.682 116.513 284.537 115.455C289.208 114.172 293.853 112.651 298.55 111.484C299.424 111.273 300.301 111.076 301.2 110.914C304.01 110.388 306.887 110.106 309.767 110.134Z" fill="#E0BB86"/>
<path d="M265.55 97.8608C266.254 98.8168 266.842 99.8118 267.318 100.798C267.319 100.813 267.319 100.813 267.326 100.822C269.368 105.139 269.175 109.522 266.563 111.445C263.345 113.815 257.667 111.577 253.89 106.449C252.636 104.746 251.75 102.941 251.245 101.209C251.245 101.209 251.244 101.195 251.237 101.185C250.218 97.6808 250.742 94.4528 252.885 92.8748C256.102 90.5038 261.772 92.7328 265.55 97.8608Z" fill="#E2E2E2"/>
<path d="M265.55 97.8608C266.254 98.8168 266.842 99.8118 267.318 100.798C267.319 100.813 267.319 100.813 267.326 100.822C268.345 104.326 267.835 107.559 265.685 109.142C262.467 111.512 256.789 109.274 253.012 104.146C252.308 103.19 251.713 102.199 251.244 101.209C251.244 101.209 251.243 101.195 251.236 101.185C250.217 97.6808 250.741 94.4528 252.884 92.8748C256.102 90.5038 261.772 92.7328 265.55 97.8608Z" fill="white"/>
<path d="M265.551 97.8668C268.814 102.297 269.205 107.547 266.426 109.595C263.646 111.642 258.748 109.711 255.485 105.282C252.222 100.852 251.831 95.6018 254.61 93.5538C257.39 91.5068 262.288 93.4378 265.551 97.8668Z" fill="#201600"/>
<path d="M260.982 95.4568C262.578 96.7158 263.676 98.3128 263.435 99.0218C263.194 99.7318 261.705 99.2858 260.109 98.0268C258.513 96.7678 257.415 95.1718 257.656 94.4618C257.897 93.7518 259.386 94.1968 260.982 95.4568Z" fill="white"/>
<path d="M307.629 106.469C313.362 104.832 320.247 103.986 324.656 108.001C328.58 111.574 328.916 117.569 328.556 122.864C328.301 126.621 327.651 130.729 324.808 133.199C323.359 134.458 321.497 135.131 319.645 135.638C308.684 138.637 296.678 136.552 286.675 131.159C266.619 120.346 299.301 108.847 307.629 106.469Z" fill="#201600"/>
<path d="M186.281 114.017C171.088 109.575 198.161 85.2118 204.268 96.3338C207.375 101.992 192.365 115.796 186.281 114.017Z" fill="#FFDCA2"/>
<path d="M245.283 81.6178C247.2 81.2178 249.311 80.9618 251.175 82.4108C251.99 83.0448 252.782 84.2318 252.673 85.4058C252.601 86.1818 252.156 86.7058 251.704 87.1048C249.429 89.1088 246.471 89.3678 243.689 89.9578C242.86 90.1338 242.025 90.3428 241.156 90.2028C240.287 90.0628 239.36 89.5138 238.786 88.4878C236.096 83.6698 243.534 81.9818 245.283 81.6178Z" fill="#FFDCA2"/>
<path d="M293.272 217.111C290.817 222.516 282.37 226.046 267.707 222.385C264.996 221.722 262.077 220.794 258.948 219.602C238.853 211.92 227.061 182.267 227.061 182.267C235.186 194.626 250.329 193.802 261.109 191.182C261.86 191 278.255 185.977 278.305 185.938C288.774 194.027 296.189 210.693 293.272 217.111Z" fill="#A14944"/>
<path d="M268.893 213.755C268.873 216.673 268.484 219.58 267.707 222.384C264.996 221.721 262.077 220.793 258.948 219.601C238.853 211.919 227.061 182.266 227.061 182.266C235.186 194.625 250.329 193.801 261.109 191.181C262.457 192.653 263.544 194.712 264.379 196.19C267.369 201.521 268.939 207.646 268.893 213.755Z" fill="#8C312F"/>
<path d="M316.731 263.717C316.595 273.939 309.526 283.041 299.419 284.682C292.1 285.884 284.484 282.817 282.06 266.828C276.937 233.152 249.67 216.501 241.975 206.77C241.975 206.77 253.67 199.73 261.683 202.329C261.683 202.329 262.839 200.361 266.268 198.802C266.696 198.597 267.156 198.412 267.657 198.231C274.314 195.836 281.766 197.572 286.979 202.361C297.436 211.957 317.129 234.028 316.731 263.717Z" fill="#D5584D"/>
<path d="M115.149 136.153C102.443 131.909 93.4666 120.221 88.5206 107.772C83.5746 95.3228 81.9297 81.8588 79.0597 68.7738C74.7267 49.0188 67.5647 30.0188 61.4487 10.7418C60.8387 8.8178 60.2337 6.76281 60.7567 4.81381C61.4857 2.09681 64.3076 0.342804 67.1066 0.0548038C69.9056 -0.233196 72.6837 0.658804 75.3057 1.6798C91.6177 8.0338 105.317 19.6648 117.612 32.1268C129.907 44.5888 141.173 58.1148 154.451 69.5248C157.956 72.5368 161.632 75.4338 164.396 79.1368C167.16 82.8398 168.95 87.5538 168.061 92.0888C167.375 95.5878 165.205 98.5848 163.092 101.457C158.902 107.152 154.711 112.846 150.521 118.541C141.032 131.432 132.526 141.958 115.149 136.153Z" fill="#FF7D00"/>
<path d="M152.391 91.7798C152.348 92.1268 152.252 92.4778 152.115 92.8058C151.546 94.2088 150.244 95.3428 148.753 95.2308C146.888 95.0778 145.671 93.1318 145.323 91.2998C143.831 91.5718 142.952 93.1018 142.276 94.4718C139.98 99.1708 137.671 103.87 135.376 108.582C134.38 105.972 133.566 103.31 132.92 100.597C130.782 105.683 128.904 110.883 127.337 116.169C126.439 119.184 125.746 127.048 120.88 125.81C120.166 125.632 119.463 125.229 118.765 124.693C115.87 122.422 113.191 117.632 111.731 115.226C109.289 111.202 107.383 106.877 105.854 102.448C102.931 94.0168 101.348 85.2058 99.5566 76.4608C96.8766 63.3368 93.7516 50.3078 90.1586 37.4038C88.8826 32.7848 87.5226 28.1058 87.5196 23.3098C87.5156 21.6668 88.0516 19.5778 89.6786 19.3358C90.6366 19.1918 91.5236 19.7818 92.2916 20.3668C102.099 27.7138 109.801 37.4678 117.111 47.3008C121.35 53.0198 125.57 58.8588 131.067 63.3808C133.353 65.2688 135.861 66.9028 138.012 68.9448C139.64 70.5058 141.044 72.2798 142.448 74.0408C145.602 78.0038 148.771 81.9918 151.073 86.5028C151.909 88.1418 152.64 89.9608 152.391 91.7798Z" fill="#FFDCA2"/>
<path d="M285.765 228.303C285.043 228.466 284.464 227.702 284.101 227.052C279.414 218.703 273.151 211.237 265.729 205.185C264.731 204.366 263.696 203.624 262.596 202.95C262.204 202.713 261.903 202.523 261.684 202.329C261.684 202.329 262.84 200.361 266.269 198.802C266.266 199.629 266.413 200.464 266.696 201.24C267.318 202.916 268.429 204.36 269.567 205.743C275.058 212.488 281.268 218.814 285.15 226.599C285.423 227.147 285.683 227.698 285.765 228.303Z" fill="#C63F38"/>
<path d="M315.415 107.457C317.298 107.134 319.731 107.128 320.54 108.859C317.399 110.685 313.792 111.501 310.367 112.713C306.942 113.925 303.495 115.699 301.556 118.772C301.11 119.479 300.745 120.279 300.768 121.114C300.832 123.529 303.992 125.293 303.443 127.645C303.181 128.766 302.083 129.539 300.953 129.76C299.823 129.982 298.658 129.759 297.532 129.517C294.813 128.934 292.037 128.204 289.812 126.537C287.825 125.049 285.345 121.656 287.158 119.337C288.888 117.125 292.707 115.275 295.148 113.96C301.43 110.576 308.413 108.657 315.415 107.457Z" fill="#595651"/>
<path d="M313.707 107.768C314.218 107.703 314.935 107.815 314.948 108.33C314.957 108.69 314.581 108.922 314.255 109.074C312.79 109.757 302.149 114.572 301.651 113.09C300.612 109.998 311.954 107.992 313.707 107.768Z" fill="white"/>
<path d="M152.114 92.8048C151.545 94.2078 150.243 95.3418 148.752 95.2298C146.887 95.0768 145.67 93.1308 145.322 91.2988C143.83 91.5708 142.951 93.1008 142.275 94.4708C139.979 99.1698 137.67 103.869 135.375 108.581C134.379 105.971 133.565 103.309 132.919 100.596C130.781 105.682 128.903 110.882 127.336 116.168C126.438 119.183 125.745 127.047 120.879 125.809C120.165 125.631 119.462 125.228 118.764 124.692C119.751 124.401 121.114 124.76 122.07 123.795C123.111 122.718 123.539 121.192 123.919 119.736C125.882 112.237 127.857 104.724 129.833 97.2248C130.582 94.3528 131.414 91.3418 133.499 89.2408C135.49 91.2678 134.924 95.2938 137.474 96.5678C139.739 92.4008 142.595 88.5398 145.933 85.1628C146.339 86.8718 146.757 88.5658 147.162 90.2618C147.382 91.1748 147.631 92.1248 148.273 92.7978C149.256 93.8578 151.049 93.7248 152.114 92.8048Z" fill="#E0BB86"/>
<path d="M177.213 287.21C176.869 288.082 176.539 288.942 176.208 289.801C172.374 299.677 164.58 320.479 155.249 330.454C155.249 330.454 156.757 323.141 156.691 317.568C156.631 312.527 153.614 307.927 151.75 303.246C148.075 294.004 144.624 284.644 142.151 274.992C140.498 268.527 132.619 237.523 143.248 234.747C149.568 233.094 155.927 243.592 158.466 247.902C162.247 254.354 164.825 261.414 168.025 268.157C171.052 274.53 174.661 280.652 177.213 287.21Z" fill="#EA6A00"/>
<path d="M204.891 299.157C199.18 305.968 187.733 308.451 177.611 307.257C165.412 305.816 159.81 297.24 156.107 289.082C152.405 280.924 148.227 254.698 146.053 254.148C145.266 252.446 144.393 250.772 143.463 249.117C140.461 243.746 137.006 238.514 135.069 232.864C132.513 225.469 133.169 216.656 139.918 211.974C143.267 209.664 147.684 208.662 152.085 208.313C162.137 207.525 172.854 210.046 180.94 215.639C189.406 221.524 194.345 230.06 198.103 238.77C198.809 240.402 199.462 242.024 200.103 243.645C205.432 257.301 209.784 271.435 209.198 285.514C208.979 290.346 208.108 295.312 204.891 299.157Z" fill="#FF7D00"/>
<path d="M204.892 299.157C199.181 305.968 187.734 308.451 177.612 307.257C165.413 305.816 159.811 297.24 156.108 289.082C152.406 280.924 148.228 254.698 146.054 254.148C145.267 252.446 144.394 250.772 143.464 249.117C143.498 247.795 143.479 246.464 143.432 245.143C143.343 242.872 143.392 240.254 145.036 238.758C147.467 236.566 150.999 238.528 153.919 239.744C155.735 240.505 157.864 240.918 159.631 239.972C161.4 239.012 162.323 236.225 160.961 234.755C169.56 235.437 178.172 236.121 186.774 236.789C190.609 237.102 194.509 237.427 198.105 238.77C198.811 240.402 199.464 242.024 200.105 243.645C205.434 257.301 209.786 271.435 209.2 285.514C208.98 290.346 208.109 295.312 204.892 299.157Z" fill="#FFDCA2"/>
<path d="M255.839 309.91C260.109 329.953 260.995 350.697 258.457 371.032C256.778 367.951 254.213 365.373 251.146 363.694C249.678 383.711 249.771 403.781 249.996 423.851C249.071 421.762 248.581 419.435 248.158 417.161C244.456 397.699 243.055 377.815 243.98 358.023C241.336 358.949 238.797 360.231 236.497 361.831C250.617 329.994 246.32 293.398 241.759 258.864C240.45 263.412 237.594 267.484 233.773 270.287C234.262 264.668 234.342 259.023 234.011 253.39C233.39 242.681 231.301 232.051 227.863 221.884C224.69 212.537 220.38 203.586 214.972 195.323C221.398 205.16 235.69 211.704 245.249 219.69C245.328 219.915 245.381 220.139 245.447 220.378C245.473 220.497 245.513 220.616 245.54 220.735C246.347 223.617 247.127 226.513 247.867 229.448C248.409 230.453 248.938 231.55 249.44 232.753C255.032 246.159 258.192 261.06 260.03 275.418C260.969 282.69 261.471 290.027 261.551 297.365C261.617 303.328 259.343 312.12 260.652 317.779C259.951 314.723 258.232 311.92 255.839 309.91Z" fill="#E0BB86"/>
<path d="M182.304 594.1C157.699 597.432 132.5 599.309 107.578 598.199C94.6996 597.631 81.8756 596.269 69.2626 593.902C64.0266 592.924 58.3285 588.124 57.4955 582.876C56.9665 579.544 58.9895 576.133 58.1965 572.868C57.7475 571.004 56.4515 569.497 55.2615 568.003C44.4865 554.531 39.2505 536.973 39.8055 519.719C40.3475 502.479 46.4826 485.608 56.2266 471.369C81.1486 434.958 130.861 449.038 154.818 479.87C157 482.673 158.969 485.635 160.728 488.715C171.53 507.529 174.452 530.838 168.185 551.648C166.189 558.259 158.758 565.742 157.899 567.844C157.687 568.386 157.899 568.571 158.758 568.294C162.949 566.919 175.377 565.716 178.643 568.664C182.041 571.731 183.654 575.936 184.024 580.576C184.406 584.912 183.679 589.618 182.304 594.1Z" fill="#FF7D00"/>
<path d="M182.303 594.1C157.698 597.432 132.499 599.309 107.577 598.199C103.016 594.682 99.023 590.438 95.876 585.612C99.261 584.938 102.645 584.25 106.03 583.576C103.796 579.98 101.561 576.384 99.314 572.788C103.545 575.644 109.005 576.622 113.95 575.392C114.532 575.247 115.153 575.048 115.497 574.559C116.687 572.867 113.342 570.725 114.175 568.821C121.553 569.323 128.97 569.548 136.373 569.469C142.825 569.403 151.154 570.262 157.302 568.081C157.5 568.015 157.699 567.935 157.897 567.843C157.685 568.385 157.897 568.57 158.756 568.293C162.947 566.918 175.375 565.715 178.641 568.663C185.198 574.586 185.145 584.819 182.303 594.1Z" fill="#FFDCA2"/>
<path d="M238.506 538.148C228.167 557.742 209.142 572.364 188.001 579.345C186.679 579.781 185.357 580.191 184.021 580.575C183.651 575.934 182.038 571.73 178.64 568.663C175.374 565.715 162.946 566.918 158.755 568.293C157.896 568.571 157.684 568.386 157.896 567.843C158.755 565.741 166.186 558.258 168.182 551.647C172.651 536.826 172.453 520.736 168.063 505.915C170.231 501.301 172.162 496.594 173.801 491.821C175.467 496.263 176.789 500.996 177.648 505.994C180.398 521.807 183.558 545.882 177.331 561.153C178.124 561.338 178.931 561.484 179.698 561.589C183.255 562.092 186.811 562.501 190.381 562.845C196.251 563.4 202.32 563.704 207.846 561.668C210.94 560.531 213.729 558.693 216.427 556.789C224.32 551.237 231.724 544.997 238.506 538.148Z" fill="#E0BB86"/>
<path d="M173.802 491.821C172.162 496.594 170.232 501.301 168.064 505.915C166.292 499.913 163.833 494.135 160.726 488.714C154.512 477.066 145.746 466.198 136.888 457.142C133.027 453.189 120.956 438.976 115.205 438.976C120.996 437.125 127.236 439.809 132.353 443.088C144.411 450.782 164.494 467.005 173.802 491.821Z" fill="#B25109"/>
<path d="M307.852 259.728C307.083 262.611 305.94 265.49 303.858 267.627C302.087 269.446 299.717 270.642 298.131 272.624C296.544 274.606 296.13 277.973 298.236 279.391C299.521 280.256 301.251 280.056 302.71 279.535C308.853 277.341 312.155 270.591 313.314 264.171C313.94 260.704 314.114 257.159 313.854 253.646C313.687 251.395 313.651 245.332 311.499 244.019C308.19 242 309.145 246.6 309.189 248.318C309.289 252.159 308.842 256.017 307.852 259.728Z" fill="#E57873"/>
<path d="M310.503 260.757C310.107 262.245 309.558 263.781 309.883 265.287C309.953 265.611 310.18 265.999 310.503 265.925C310.596 265.904 310.676 265.845 310.75 265.786C312.638 264.292 313.448 261.774 313.547 259.368C313.584 258.473 313.616 255.561 312.105 256.312C310.774 256.974 310.82 259.563 310.503 260.757Z" fill="white"/>
</svg>
