<svg width="534" height="419" viewBox="0 0 534 419" fill="none" xmlns="http://www.w3.org/2000/svg">
<path d="M413.515 301.432C408.071 313.005 398.799 322.349 388.902 330.46C379.009 338.56 368.303 345.687 358.818 354.254C350.054 362.151 342.427 371.18 335.17 380.49C333.381 382.767 331.631 385.046 329.888 387.341C335.298 388.139 340.109 392.128 341.908 397.284C343.703 402.452 342.405 408.573 338.657 412.552C338.195 413.053 337.648 413.537 336.964 413.64C336.394 413.72 335.826 413.51 335.286 413.297C325.081 409.359 314.868 405.405 304.662 401.467C303.441 400.99 302.156 400.476 301.3 399.475C300.294 398.274 300.097 396.594 299.975 395.034C299.287 385.584 300.205 376.03 302.64 366.863C303.84 362.326 305.413 357.887 307.348 353.609C305.495 352.991 303.641 352.373 301.776 351.75C305.524 348.984 308.788 345.564 311.398 341.706C307.317 341.162 303.384 339.683 299.952 337.416C305.007 333.999 314.162 328.828 313.731 321.964C313.233 314.139 311.652 306.573 311.866 298.642C312.296 283.664 317.062 268.574 326.672 257.063C336.267 245.56 350.924 238.006 365.914 238.441C373.489 238.655 380.892 240.834 387.897 243.736C398.364 248.073 408.583 254.507 413.987 264.458C420.091 275.693 418.959 289.859 413.515 301.432Z" fill="#B25109"/>
<path d="M338.658 412.551C338.196 413.052 337.649 413.536 336.965 413.639C336.395 413.719 335.827 413.509 335.287 413.296C325.082 409.358 314.869 405.404 304.663 401.466C303.442 400.989 302.157 400.475 301.301 399.474C300.295 398.273 300.098 396.593 299.976 395.033C299.288 385.583 300.206 376.029 302.641 366.862C305.384 365.319 309.653 364.247 311.338 362.431C307.648 366.431 308.107 373.504 312.279 376.98C317.394 381.253 325.407 379.388 330.686 375.329C329.905 376.517 329.129 377.692 328.36 378.884C330.303 380.26 332.748 380.345 335.171 380.489C333.382 382.766 331.632 385.045 329.889 387.34C335.299 388.138 340.11 392.127 341.909 397.283C343.703 402.451 342.406 408.572 338.658 412.551Z" fill="#E0BB86"/>
<path d="M140.448 370.507C137.187 376.739 135.557 383.592 137.225 390.34C143.989 385.412 154.469 386.64 159.909 393.008C162.511 396.052 163.714 401.167 160.687 403.791C159.348 404.941 157.531 405.306 155.79 405.617C142.1 408.136 128.395 410.645 114.705 413.163C110.674 405.19 107.534 396.767 105.33 388.111C101.487 373.03 100.487 357.231 102.504 341.803C97.6155 348.651 90.6026 353.96 82.6836 356.793C88.9706 347.874 92.6436 337.125 93.1276 326.219C88.6986 328.415 84.2705 330.611 79.8535 332.804C90.0605 320.091 92.0736 303.426 95.3806 288.006C98.5926 273.099 109.874 265.855 124.306 261.743C140.153 257.211 159.694 258.121 169.95 271.022C173.264 275.18 175.273 280.228 176.764 285.334C181.478 301.446 181.048 319.776 172.069 333.964C165.902 343.704 156.335 350.692 148.544 359.18C145.446 362.55 142.599 366.399 140.448 370.507Z" fill="#B25109"/>
<path d="M160.687 403.79C159.348 404.94 157.531 405.305 155.79 405.616C142.1 408.135 128.395 410.644 114.705 413.162C110.674 405.189 107.534 396.766 105.33 388.11C105.554 387.609 105.802 387.103 106.053 386.609C106.939 384.859 110.928 379.46 110.609 377.62C110.984 379.726 111.54 381.794 112.285 383.798C112.575 384.583 112.998 385.467 113.812 385.677C114.696 385.922 115.551 385.239 116.228 384.607C121.135 379.976 126.056 375.355 130.966 370.737C130.56 373.826 130.725 376.985 131.444 380.017C133.216 376.518 135.876 373.465 139.097 371.23C139.517 370.941 139.975 370.656 140.449 370.507C137.188 376.739 135.558 383.592 137.226 390.34C143.99 385.412 154.47 386.64 159.91 393.008C162.512 396.051 163.714 401.166 160.687 403.79Z" fill="#E0BB86"/>
<path d="M457.368 98.5921C457.343 99.1361 457.245 99.6921 457.06 100.199C456.936 100.57 456.751 100.916 456.529 101.237C454.428 104.166 450.56 102.312 447.816 100.57C442.267 97.0601 436.223 94.2921 429.945 92.3641C424.903 90.8191 417.772 91.1401 413.384 88.2981C412.778 87.9031 412.196 87.4701 411.628 87.0001C405.918 82.3041 402.099 74.0231 399.467 66.3731C398.454 63.4191 397.613 60.5641 396.921 58.0431C393.868 47.0311 392.027 35.6241 387.504 25.1311C384.983 19.2731 381.609 13.6861 379.322 7.77909C378.037 4.47909 381.522 1.34012 384.686 2.94712C385.082 3.14512 385.465 3.34308 385.86 3.54008C404.312 13.0191 421.948 24.7481 435.395 40.5301C445.912 52.8521 453.711 67.8811 456.405 83.7491C457.232 88.6301 457.578 93.5991 457.368 98.5921Z" fill="#FF7D00"/>
<path d="M445.677 81.4251C436.865 81.5731 428.016 79.3981 420.267 75.1841C418.784 67.8301 418.24 60.1681 415.719 53.1231C412.703 44.7191 407.414 37.3401 401.753 30.4561C398.948 27.0571 395.833 22.9291 397.019 18.6901C412.208 24.9931 425.482 35.8321 434.689 49.4641C441.153 59.0301 445.59 69.9551 447.728 81.3011C447.049 81.4011 446.369 81.4131 445.677 81.4251Z" fill="#FFDCA2"/>
<path d="M449.174 95.9102C449.174 96.3052 449.174 96.7131 449.149 97.1091C442.883 94.6871 436.481 92.6101 429.98 90.8801C427.286 88.9891 424.32 87.7411 423.047 84.7001C421.762 81.6471 420.921 78.4461 420.266 75.1841C428.015 79.3991 436.864 81.5741 445.676 81.4251C446.368 81.4131 447.048 81.4001 447.728 81.3011C448.63 86.1091 449.125 91.0032 449.174 95.9102Z" fill="#E0BB86"/>
<path d="M429.981 90.8801C423.938 89.2731 417.82 87.9761 411.628 86.9991C405.918 82.3031 402.099 74.0221 399.467 66.3721C401.469 66.4341 403.039 68.0651 404.46 69.4991C405.918 70.9701 407.871 72.4412 409.873 71.8972C410.355 71.7612 410.8 71.5141 411.282 71.3661C413.21 70.8101 415.15 72.0581 416.831 73.1581C417.943 73.8871 419.093 74.5671 420.267 75.1851C420.922 78.4481 421.762 81.6491 423.048 84.7011C424.32 87.7411 427.286 88.9891 429.981 90.8801Z" fill="#EA6A00"/>
<path d="M457.368 98.5921C457.343 99.1361 457.244 99.6921 457.059 100.199C455.996 99.9021 454.958 99.4571 453.945 99.0371C452.363 98.3701 450.756 97.7271 449.15 97.1091C449.175 96.7131 449.175 96.3061 449.175 95.9101C449.126 91.0031 448.631 86.1091 447.729 81.3021C448.236 81.2531 448.742 81.1661 449.237 81.0301C449.793 80.8691 450.349 80.6471 450.93 80.6101C452.277 80.4991 453.513 81.3141 454.564 82.1551C455.194 82.6621 455.812 83.1931 456.405 83.7491C457.232 88.6301 457.578 93.5991 457.368 98.5921Z" fill="#EA6A00"/>
<path d="M449.15 97.1091C449.1 97.9121 448.952 98.7031 448.544 99.3951C447.098 101.793 443.464 101.484 440.993 100.186C437.322 98.2582 434.69 95.0081 431.687 92.2391C431.143 91.7321 430.575 91.2871 429.981 90.8801C436.482 92.6101 442.884 94.6871 449.15 97.1091Z" fill="#FFDCA2"/>
<path d="M521.202 175.663C515.307 184.438 509.387 191.421 503.084 196.562C499.796 198.354 496.398 199.936 492.962 201.394C486.82 204.002 480.269 206.61 473.632 207.363C473.644 207.375 473.657 207.4 473.669 207.412C472.161 207.437 470.616 207.375 469.047 207.264C447.37 205.645 428.67 186.946 428.67 186.946C428.67 186.946 437.371 234.021 471.556 234.343L474.942 244.49C471.692 245.738 467.823 245.602 464.313 244.997C453.462 243.119 443.871 238.348 436.493 230.166C436.53 230.895 436.58 231.624 436.604 232.366C434.503 230.426 433.032 229.041 432.872 228.893C432.983 229.499 435.047 239.546 437.049 252.153C437.024 263.906 436.518 275.734 435.813 287.203C435.072 299.377 429.819 310.92 422.391 320.646C422.391 320.658 422.391 320.658 422.379 320.658C413.89 331.977 401.468 341.363 389.974 349.022C365.452 365.357 358.161 364.769 337.25 372.269C332.863 373.851 328.537 375.631 324.199 377.311C293.845 382.984 262.169 386.481 252.48 385.715C234.102 384.257 191.056 351.382 159.614 352.346C128.258 353.296 67.7117 366.857 55.1557 363.469C43.3287 360.273 40.8178 323.051 41.0918 310.906C41.0918 310.804 41.1137 310.132 41.1407 309.781C41.1407 309.781 37.4997 320.69 31.6917 323.582C31.6917 323.582 34.8507 294.79 39.6827 278.353C44.5147 261.903 54.6738 254.166 54.6738 254.166C54.6738 254.166 33.8858 244.946 31.9458 234.083C30.0178 223.219 39.6827 205.324 39.6827 205.324C39.6827 205.324 38.8428 201.53 38.9658 196.907C39.2008 188.07 42.9448 176.181 62.7318 181.792C62.7318 181.792 62.7317 197.266 66.9217 203.717C71.1237 210.168 87.8828 223.38 87.8828 223.38C87.8828 223.38 103.678 204.359 129.471 202.58C155.264 200.813 202.661 203.074 223.622 210.811C244.57 218.548 281.969 219.512 294.55 211.775C307.119 204.038 329.365 170.83 329.687 154.38C330.008 137.943 356.457 82.9701 392.718 82.4881C428.517 82.0831 453.988 80.8071 473.484 111.025C492.826 141.008 486.065 141.49 492.826 144.073C500.004 146.658 515.932 141.793 523.464 142.133C527.308 142.306 530.62 145.223 530.818 151.143C531.016 156.667 528.507 164.774 521.202 175.663Z" fill="#FF7D00"/>
<path d="M466.163 123.817C465.875 125.319 465.759 126.862 465.942 128.38C466.343 131.71 468.168 134.739 470.492 137.158C471.836 138.557 473.409 139.815 475.268 140.372C477.127 140.929 479.314 140.675 480.735 139.354C482.01 138.169 482.488 136.317 482.393 134.579C482.298 132.841 481.699 131.176 481.107 129.539C479.604 125.384 477.988 120.545 474.557 117.538C470.32 113.825 466.864 120.156 466.163 123.817Z" fill="#EA6A00"/>
<path d="M410.462 133.394C408.428 138.225 408.724 143.801 410.339 148.788C411.089 151.105 412.176 153.417 414.069 154.95C416.85 157.201 420.943 157.306 424.244 155.925C427.545 154.544 430.16 151.898 432.317 149.043C433.167 147.918 433.964 146.746 434.6 145.487C436.722 141.287 436.893 136.087 434.794 131.876C429.439 121.13 414.866 122.934 410.462 133.394Z" fill="#EA6A00"/>
<path d="M436.012 136.448C436.012 137.635 435.827 138.784 435.505 139.859C435.493 139.871 435.493 139.871 435.493 139.884C434.035 144.568 429.647 147.979 424.481 147.979C418.116 147.979 412.95 142.813 412.95 136.448C412.95 134.335 413.519 132.357 414.507 130.664C414.507 130.664 414.519 130.652 414.519 130.639C416.521 127.216 420.241 124.929 424.48 124.929C430.846 124.929 436.012 130.083 436.012 136.448Z" fill="#E2E2E2"/>
<path d="M436.012 136.448C436.012 137.635 435.827 138.784 435.505 139.859C435.493 139.871 435.493 139.871 435.493 139.884C433.491 143.307 429.783 145.606 425.532 145.606C419.167 145.606 414.001 140.44 414.001 134.075C414.001 132.889 414.174 131.739 414.508 130.664C414.508 130.664 414.52 130.652 414.52 130.639C416.522 127.216 420.242 124.929 424.481 124.929C430.846 124.929 436.012 130.083 436.012 136.448Z" fill="white"/>
<path d="M435.776 138.87C437.039 133.52 433.727 128.158 428.376 126.895C423.026 125.632 417.665 128.945 416.402 134.295C415.138 139.645 418.451 145.006 423.802 146.27C429.152 147.533 434.513 144.22 435.776 138.87Z" fill="#201600"/>
<path d="M432.427 131.806C433.284 133.765 433.184 135.7 432.204 136.128C431.225 136.556 429.736 135.315 428.88 133.357C428.023 131.398 428.123 129.463 429.102 129.035C430.082 128.606 431.571 129.847 432.427 131.806Z" fill="white"/>
<path d="M531.363 159.917C530.708 168.173 526.864 176.243 521.352 182.546C516.26 188.367 509.92 192.878 503.086 196.561C499.798 198.353 496.4 199.935 492.964 201.393C486.822 204.001 480.271 206.609 473.634 207.362C473.646 207.374 473.659 207.399 473.671 207.411C475.587 210.526 477.23 213.825 478.565 217.236C479.615 219.844 480.468 222.526 481.148 225.257C482.631 231.239 482.841 238.494 478.207 242.56C477.231 243.413 476.13 244.043 474.943 244.488C471.693 245.736 467.825 245.6 464.315 244.995C453.464 243.117 443.873 238.346 436.495 230.164C436.532 230.782 436.569 231.388 436.594 232.018C436.594 232.129 436.606 232.253 436.606 232.364C436.952 238.877 437.088 245.502 437.051 252.151C437.026 263.904 436.52 275.732 435.815 287.201C435.074 299.375 429.821 310.918 422.393 320.644C422.393 320.656 422.392 320.656 422.38 320.656C421.713 321.546 421.009 322.423 420.305 323.276C420.293 323.301 420.267 323.313 420.255 323.338C411.752 333.546 401.025 341.654 389.976 349.02C382.536 353.976 374.861 358.648 366.654 362.182C357.125 366.273 347.003 368.769 337.252 372.267C332.865 373.849 328.539 375.629 324.201 377.309C320.407 378.792 316.613 380.201 312.719 381.363C309.098 382.438 305.427 383.291 301.732 384.033C298.704 384.663 295.675 385.207 292.635 385.751C290.373 386.159 288.298 387.135 286.049 387.58C266.645 391.535 246.426 388.297 227.492 382.501C208.558 376.692 190.502 368.362 171.827 361.775C159.505 357.425 146.429 353.803 133.489 355.62C125.752 356.708 118.423 359.686 111.305 362.899C109.29 363.801 107.288 364.728 105.299 365.68C94.5586 370.834 65.6585 348.377 56.8965 356.398C62.5945 347.388 87.8105 367.633 95.3125 360.279C105.818 349.972 117.955 341.407 131.414 334.918C138.385 331.556 145.8 329.109 153.401 327.651C150.274 323.004 144.093 321.768 138.557 320.915C168.639 319.889 198.932 325.599 226.566 337.513C225.565 333.076 223.649 328.837 220.967 325.166C235.687 338.613 255.313 344.211 275.273 347.659C280.266 348.524 285.271 349.253 290.24 349.933C291.117 350.069 291.995 350.18 292.872 350.304C301.956 351.54 311.126 352.788 320.26 351.923C338.514 350.205 355.421 339.873 366.816 325.512C378.211 311.138 387.43 293.552 385.156 275.359C384.217 267.931 382.302 260.615 379.472 253.669C376.258 245.821 370.932 237.726 362.639 235.971C356.274 234.612 349.823 237.343 343.89 240.012C345.262 234.685 346.646 229.346 348.018 224.02C343.828 225.948 339.144 226.801 334.534 226.479C338.823 220.547 342.654 214.281 346.003 207.768C341.097 207.125 336.301 205.679 331.864 203.504C354.605 189.699 382.832 189.476 408.167 181.381C413.704 179.614 419.168 177.438 423.963 174.176C434.79 166.81 441.538 153.821 441.352 140.732C441.265 135.245 440.042 129.819 438.299 124.604C432.515 107.338 420.552 92.3351 405.362 82.3491C416.226 82.3001 426.001 82.5961 434.863 84.3021C444.676 92.9781 452.634 103.668 459.11 115.088C463.065 122.071 466.489 129.35 470.716 136.185C472.014 138.274 473.435 140.375 475.462 141.771C475.722 141.944 475.98 142.105 476.24 142.253C478.18 143.341 480.431 143.81 482.643 144.094C486.351 144.564 490.07 144.539 493.802 144.366C498.325 144.156 502.875 143.723 507.398 143.624C508.238 143.612 509.079 143.612 509.932 143.649C512.601 143.748 515.283 144.082 517.904 144.699C522.613 145.787 527.074 147.752 530.757 150.792C530.782 150.903 530.805 151.027 530.818 151.138C531.448 154.047 531.61 157 531.363 159.917Z" fill="#FFDCA2"/>
<path d="M531.362 159.917C530.707 168.173 526.863 176.243 521.351 182.546C516.259 188.367 509.919 192.878 503.085 196.561C499.797 198.353 496.399 199.935 492.963 201.393C486.821 204.001 480.27 206.609 473.633 207.362C473.645 207.374 473.658 207.399 473.67 207.411C475.586 210.526 477.229 213.825 478.564 217.236C475.412 217.78 472.236 218.114 469.047 218.225C460.396 218.522 451.522 217.175 443.884 213.084C437.519 209.661 429.906 202.838 428.645 195.299C434.194 200.156 440.473 202.134 447.814 202.665C467.786 204.086 488.216 197.845 503.986 185.486C509.028 181.543 513.651 176.946 516.864 171.409C517.865 169.703 518.718 167.912 519.941 166.367C521.634 164.229 523.933 162.672 526.343 161.411C527.901 160.609 529.656 159.905 531.362 159.917Z" fill="#E0BB86"/>
<path d="M517.904 144.703C517.793 144.752 517.668 144.789 517.557 144.827C514.949 145.667 512.207 145.964 509.5 146.372C503.914 147.225 498.401 148.535 493.037 150.315C490.602 151.131 488.181 152.033 485.66 152.577C482.212 153.319 478.652 153.38 475.13 153.405C468.345 153.454 461.572 153.442 454.787 153.343C453.996 153.331 450.571 153.776 450.188 152.886C449.694 151.737 452.414 150.76 453.155 150.389C455.849 149.03 458.617 147.794 461.422 146.694C466.23 144.816 471.186 143.332 476.24 142.257C478.18 143.345 480.431 143.814 482.643 144.098C486.351 144.568 490.07 144.543 493.802 144.37C498.325 144.16 502.875 143.727 507.398 143.628C508.238 143.616 509.079 143.616 509.932 143.653C512.602 143.752 515.284 144.085 517.904 144.703Z" fill="#E0BB86"/>
<path d="M480.511 125.666C480.753 126.749 480.881 127.822 480.916 128.845C480.912 128.858 480.912 128.858 480.914 128.869C481.034 133.332 479.215 137.007 476.256 137.668C472.61 138.482 468.597 134.427 467.299 128.616C466.868 126.687 466.791 124.809 467.012 123.136C467.012 123.136 467.017 123.123 467.014 123.112C467.463 119.731 469.128 117.167 471.557 116.625C475.203 115.812 479.213 119.856 480.511 125.666Z" fill="#E2E2E2"/>
<path d="M480.511 125.666C480.753 126.749 480.881 127.822 480.916 128.845C480.912 128.858 480.912 128.858 480.914 128.869C480.465 132.251 478.81 134.824 476.374 135.367C472.728 136.181 468.715 132.126 467.417 126.315C467.175 125.232 467.04 124.16 467.012 123.136C467.012 123.136 467.017 123.123 467.014 123.112C467.463 119.731 469.128 117.167 471.557 116.625C475.203 115.812 479.213 119.856 480.511 125.666Z" fill="white"/>
<path d="M480.508 125.672C481.629 130.691 479.984 135.33 476.835 136.033C473.685 136.736 470.224 133.238 469.103 128.219C467.982 123.2 469.627 118.561 472.776 117.858C475.926 117.154 479.388 120.653 480.508 125.672Z" fill="#201600"/>
<path d="M477.51 121.888C478.4 123.567 478.738 125.346 478.264 125.862C477.79 126.378 476.685 125.436 475.795 123.757C474.905 122.078 474.567 120.299 475.041 119.783C475.514 119.266 476.62 120.209 477.51 121.888Z" fill="white"/>
<path d="M516.706 140.921C522.271 140.606 528.723 141.25 531.918 145.817C534.762 149.882 533.837 155.418 532.42 160.172C531.415 163.546 529.978 167.159 526.878 168.826C525.297 169.676 523.461 169.907 521.669 169.989C511.057 170.471 500.537 166.102 492.524 159.129C476.457 145.148 508.624 141.379 516.706 140.921Z" fill="#201600"/>
<path d="M404.496 122.866C391.555 115.692 421.249 99.0391 424.533 110.438C426.204 116.236 409.679 125.739 404.496 122.866Z" fill="#FFDCA2"/>
<path d="M464.961 105.447C466.792 105.477 468.769 105.677 470.171 107.381C470.784 108.126 471.263 109.371 470.922 110.42C470.697 111.113 470.183 111.5 469.688 111.77C467.201 113.13 464.452 112.758 461.794 112.724C461.002 112.714 460.197 112.733 459.433 112.427C458.67 112.121 457.937 111.43 457.625 110.376C456.161 105.429 463.291 105.419 464.961 105.447Z" fill="#FFDCA2"/>
<path d="M480.875 238.867C477.526 243.292 469.097 244.775 456.478 238.422C454.142 237.26 451.67 235.814 449.062 234.084C432.316 222.949 427.656 193.485 427.656 193.485C432.525 206.425 446.503 208.785 456.873 208.612C457.594 208.6 473.578 207.389 473.632 207.364C481.518 216.892 484.855 233.614 480.875 238.867Z" fill="#A14944"/>
<path d="M459.333 230.796C458.715 233.453 457.763 236.024 456.478 238.421C454.142 237.259 451.67 235.813 449.062 234.083C432.316 222.948 427.656 193.484 427.656 193.484C432.525 206.424 446.503 208.784 456.873 208.611C457.8 210.23 458.368 212.331 458.826 213.851C460.458 219.327 460.631 225.235 459.333 230.796Z" fill="#8C312F"/>
<path d="M355.025 366.484C309.744 383.886 297.224 385.921 294.184 386.465C291.922 386.873 288.297 387.137 286.048 387.582C266.644 391.537 246.425 388.299 227.491 382.503C208.557 376.694 190.501 368.364 171.826 361.777C159.504 357.427 146.428 353.805 133.488 355.622C125.751 356.71 118.422 359.688 111.304 362.901C109.289 363.803 107.287 364.73 105.298 365.682C107.115 364.261 108.944 362.864 110.798 361.492C115.049 358.341 119.474 355.275 124.467 353.533C132.958 350.579 147.85 344.214 195.42 359.02C198.225 359.897 248.05 383.121 271.862 381.789C317.966 379.211 356.619 360.527 355.025 366.484Z" fill="#E0BB86"/>
<path d="M492.69 286.189C490.465 295.483 482.148 302.33 472.594 301.749C465.673 301.341 459.358 296.978 460.433 281.9C462.682 250.137 441.24 229.349 436.222 218.894C436.222 218.894 448.334 214.877 455.107 218.894C455.107 218.894 456.565 217.337 460.013 216.62C460.446 216.521 460.903 216.447 461.397 216.385C467.96 215.569 474.399 218.684 478.168 224.122C485.732 235.023 499.154 259.197 492.69 286.189Z" fill="#D5584D"/>
<path d="M332.523 129.943C320.937 125.192 313.294 113.73 309.458 101.81C305.622 89.8901 304.928 77.2301 303.067 64.8471C300.258 46.1511 294.765 27.9832 290.263 9.62116C289.814 7.78916 289.378 5.83414 289.987 4.04914C290.836 1.56014 293.578 0.101109 296.206 0.00610941C298.834 -0.0878906 301.371 0.917148 303.752 2.03315C318.57 8.97715 330.62 20.6812 341.31 33.0722C352 45.4632 361.664 58.7821 373.335 70.2521C376.416 73.2801 379.664 76.2121 382.011 79.8381C384.358 83.4641 385.733 87.9732 384.621 92.1472C383.763 95.3682 381.552 98.0282 379.402 100.574C375.138 105.624 370.874 110.674 366.61 115.723C356.958 127.155 348.368 136.441 332.523 129.943Z" fill="#FF7D00"/>
<path d="M370.028 90.8801C369.966 91.2011 369.855 91.5232 369.707 91.8192C369.089 93.0922 367.804 94.0682 366.42 93.8712C364.69 93.6122 363.676 91.7211 363.466 89.9901C362.057 90.1511 361.143 91.5231 360.426 92.7581C357.991 96.9971 355.543 101.236 353.108 105.488C352.342 102.991 351.749 100.458 351.316 97.8871C349.005 102.497 346.929 107.23 345.136 112.063C344.11 114.819 342.974 122.111 338.513 120.653C337.858 120.443 337.227 120.023 336.609 119.479C334.051 117.18 331.851 112.546 330.64 110.21C328.613 106.304 327.106 102.152 325.957 97.9251C323.757 89.8791 322.83 81.5621 321.705 73.2941C320.024 60.8851 317.923 48.5391 315.377 36.2791C314.475 31.8921 313.498 27.4421 313.795 22.9681C313.894 21.4351 314.523 19.5201 316.056 19.3961C316.958 19.3221 317.75 19.9271 318.43 20.5211C327.118 27.9861 333.693 37.5641 339.898 47.1921C343.495 52.7911 347.065 58.5002 351.91 63.0612C353.925 64.9642 356.161 66.6451 358.04 68.6841C359.461 70.2411 360.66 71.9841 361.859 73.7141C364.553 77.6071 367.261 81.5251 369.127 85.8751C369.806 87.4561 370.374 89.1991 370.028 90.8801Z" fill="#FFDCA2"/>
<path d="M463.314 270.659C463.382 274.886 462.887 279.101 462.697 283.324C462.519 287.264 462.699 291.506 465.041 294.679C467.239 297.656 471.108 299.153 474.802 298.937C478.496 298.721 481.985 296.944 484.729 294.462C486.607 292.764 488.244 290.569 488.436 288.045C488.471 287.581 488.448 287.085 488.19 286.698C487.827 286.153 487.109 285.978 486.456 285.941C482.153 285.701 478.076 289.494 473.935 288.302C471.681 287.653 470.056 285.612 469.222 283.42C468.388 281.228 468.204 278.853 467.883 276.529C467.18 271.443 465.786 266.481 464.054 261.656C463.312 259.589 460.754 249.938 458.298 250.001C459.363 253.37 461.047 256.497 461.915 259.992C462.78 263.479 463.255 267.064 463.314 270.659Z" fill="#E07873"/>
<path d="M471.729 247.53C471.037 247.53 470.666 246.714 470.468 246.047C467.91 237.47 463.732 229.375 458.208 222.33C457.467 221.378 456.676 220.489 455.81 219.648C455.501 219.351 455.266 219.117 455.106 218.894C455.106 218.894 456.564 217.337 460.012 216.62C459.839 217.374 459.802 218.165 459.901 218.931C460.123 220.587 460.84 222.132 461.594 223.627C465.215 230.906 469.578 237.951 471.518 245.848C471.655 246.406 471.779 246.962 471.729 247.53Z" fill="#C63F38"/>
<path d="M523.604 143.423C525.388 143.516 527.607 144.01 527.989 145.755C524.749 146.775 521.293 146.777 517.92 147.179C514.548 147.581 511.039 148.49 508.64 150.894C508.088 151.447 507.591 152.101 507.44 152.868C507.002 155.084 509.522 157.341 508.537 159.374C508.068 160.343 506.908 160.821 505.832 160.791C504.756 160.761 503.739 160.318 502.762 159.867C500.402 158.777 498.021 157.54 496.334 155.563C494.828 153.797 493.263 150.194 495.393 148.452C497.425 146.79 501.288 145.888 503.784 145.19C510.209 143.393 516.972 143.078 523.604 143.423Z" fill="#595651"/>
<path d="M521.982 143.355C522.461 143.4 523.092 143.65 522.998 144.122C522.932 144.452 522.542 144.586 522.213 144.658C520.737 144.98 510.043 147.183 509.894 145.73C509.582 142.698 520.337 143.199 521.982 143.355Z" fill="white"/>
<path d="M104.361 366.929C101.241 368.9 97.893 370.532 94.36 371.736C83.447 375.451 71.6121 374.89 60.2211 376.611C55.6931 377.292 51.0611 378.502 46.8091 380.352C40.3591 383.159 34.7911 387.472 31.8561 393.773C40.2151 394.179 47.6051 401.712 47.8461 410.082C47.9621 414.085 45.69 418.822 41.686 418.966C39.922 419.021 38.2781 418.165 36.7271 417.316C24.4861 410.688 12.241 404.043 0 397.415C1.863 388.677 4.70309 380.148 8.41809 372.025C14.8881 357.87 24.0211 344.941 35.2721 334.192C27.1691 336.458 18.3781 336.192 10.4341 333.43C20.9261 330.429 30.53 324.364 37.749 316.175C36.028 315.794 34.307 315.412 32.597 315.037C29.492 314.349 26.386 313.662 23.281 312.974C37.206 309.912 48.1571 300.565 58.8821 291.63L58.8881 291.619C59.7631 290.887 60.6541 290.149 61.5231 289.428C62.1751 288.887 62.832 288.363 63.478 287.833C75.332 278.24 88.661 279.678 102.479 285.531C117.662 291.944 132.307 304.913 132.2 321.395C132.171 326.712 130.569 331.904 128.526 336.814C123.52 348.871 115.26 360.013 104.361 366.929Z" fill="#FF7D00"/>
<path d="M41.686 418.967C39.922 419.022 38.2781 418.166 36.7271 417.317C24.4861 410.689 12.241 404.044 0 397.416C1.863 388.678 4.70309 380.149 8.41809 372.026C8.90709 371.776 9.4181 371.538 9.9231 371.311C11.7101 370.504 18.205 368.803 19.11 367.17C18.081 369.045 17.2161 371.005 16.5391 373.032C16.2721 373.825 16.0471 374.779 16.5491 375.453C17.0841 376.199 18.1781 376.204 19.1021 376.135C25.8281 375.608 32.56 375.097 39.281 374.581C37.027 376.732 35.1731 379.295 33.8311 382.107C37.4061 380.494 41.3931 379.786 45.3031 380.066C45.8111 380.104 46.3471 380.17 46.8091 380.351C40.3591 383.158 34.7911 387.471 31.8561 393.772C40.2151 394.178 47.6051 401.711 47.8461 410.081C47.9621 414.085 45.689 418.823 41.686 418.967Z" fill="#FFDCA2"/>
<path d="M376.274 266.058C384.48 275.868 389.051 288.212 392.242 300.604C395.424 312.987 397.382 325.699 401.159 337.91C404.633 349.184 409.611 359.903 415.001 370.405C416.314 372.987 417.644 375.533 418.991 378.08C421.992 373.509 427.636 370.824 433.071 371.363C438.514 371.911 443.52 375.665 445.551 380.739C445.811 381.369 446.019 382.069 445.825 382.732C445.658 383.282 445.228 383.709 444.808 384.11C436.939 391.709 429.053 399.308 421.185 406.907C420.239 407.813 419.231 408.763 417.963 409.118C416.45 409.525 414.843 408.996 413.377 408.45C404.516 405.096 396.236 400.241 388.946 394.173C385.336 391.174 381.972 387.879 378.905 384.323C377.564 385.744 376.223 387.165 374.873 388.594C373.942 384.03 372.215 379.629 369.813 375.638C367.601 379.11 364.604 382.056 361.103 384.213C360.132 378.189 359.295 367.708 352.888 365.209C345.581 362.366 338.053 360.615 330.949 357.083C317.544 350.387 305.863 339.711 299.468 326.148C293.073 312.602 292.393 296.127 299.097 282.713C302.48 275.932 307.573 270.134 313.154 265.002C321.495 257.334 331.633 250.773 342.934 250.061C355.696 249.258 368.069 256.248 376.274 266.058Z" fill="#FF7D00"/>
<path d="M445.551 380.739C445.811 381.369 446.019 382.069 445.825 382.732C445.658 383.282 445.228 383.709 444.808 384.11C436.939 391.709 429.053 399.308 421.185 406.907C420.239 407.813 419.231 408.763 417.963 409.118C416.45 409.525 414.843 408.996 413.377 408.45C404.516 405.096 396.236 400.241 388.946 394.173C388.701 391.035 389.526 386.711 388.588 384.419C390.663 389.45 397.271 392.011 402.18 389.691C408.209 386.85 409.892 378.797 408.432 372.3C409.18 373.508 409.92 374.707 410.677 375.907C412.743 374.724 413.85 372.542 415 370.404C416.313 372.986 417.643 375.532 418.99 378.079C421.991 373.508 427.635 370.823 433.07 371.362C438.514 371.911 443.52 375.665 445.551 380.739Z" fill="#FFDCA2"/>
<path d="M369.706 91.8192C369.088 93.0922 367.803 94.0682 366.419 93.8712C364.689 93.6122 363.675 91.7211 363.465 89.9901C362.056 90.1511 361.142 91.5231 360.425 92.7581C357.99 96.9971 355.543 101.236 353.108 105.488C352.342 102.991 351.749 100.458 351.316 97.8871C349.005 102.497 346.929 107.23 345.136 112.063C344.11 114.819 342.973 122.111 338.512 120.653C337.857 120.443 337.227 120.023 336.609 119.479C337.548 119.269 338.797 119.689 339.748 118.849C340.786 117.91 341.28 116.513 341.725 115.178C344.024 108.306 346.335 101.422 348.646 94.5511C349.524 91.9191 350.487 89.1621 352.564 87.3331C354.294 89.3481 353.516 93.0681 355.814 94.4151C358.187 90.6701 361.091 87.2471 364.416 84.3051C364.688 85.9241 364.972 87.5311 365.244 89.1371C365.392 90.0021 365.565 90.9041 366.121 91.5721C366.975 92.6221 368.655 92.6102 369.706 91.8192Z" fill="#E0BB86"/>
<path d="M437.051 252.152C437.026 263.905 436.52 275.733 435.815 287.202C435.074 299.376 429.821 310.919 422.393 320.645C422.393 320.657 422.392 320.657 422.38 320.657C421.713 321.547 421.009 322.424 420.305 323.277C420.293 323.302 420.267 323.314 420.255 323.339C422.887 319.001 425.187 314.453 427.14 309.769C425.793 310.412 424.446 311.042 423.099 311.685C428.537 297.942 430.106 282.678 427.584 268.107C426.175 268.663 424.828 269.417 423.604 270.332C425.853 260.074 428.116 249.433 425.842 239.187C424.26 232.056 420.577 225.605 416.931 219.277C415.683 217.102 414.434 214.914 413.186 212.739C420.119 217.893 426.88 223.294 433.442 228.917C434.591 229.906 435.642 230.944 436.594 232.019C436.594 232.13 436.606 232.254 436.606 232.365C436.952 238.879 437.088 245.503 437.051 252.152Z" fill="#E0BB86"/>
<path d="M466.014 292.197C467.226 294.372 469.724 296.041 472.151 295.483C472.386 295.429 472.657 295.31 472.688 295.072C472.725 294.793 472.416 294.609 472.16 294.492C470.76 293.851 469.543 292.833 468.634 291.593C467.524 290.08 467.577 288.461 466.82 286.883C466.285 285.767 465.278 285.237 464.629 286.807C464.086 288.122 465.372 291.045 466.014 292.197Z" fill="white"/>
</svg>
