<svg width="507" height="481" viewBox="0 0 507 481" fill="none" xmlns="http://www.w3.org/2000/svg">
<path d="M385.092 304.925C383.883 318.931 377.878 332.095 370.76 344.226C363.642 356.344 355.314 367.768 348.793 380.212C342.761 391.691 338.333 403.904 334.393 416.266C333.415 419.296 332.478 422.311 331.554 425.341C337.436 424.105 343.916 426.387 347.734 431.019C351.551 435.665 352.543 442.471 350.193 448C349.908 448.693 349.527 449.399 348.862 449.766C348.305 450.065 347.639 450.065 347.001 450.051C334.979 449.874 322.942 449.684 310.92 449.508C309.48 449.481 307.959 449.44 306.695 448.734C305.201 447.878 304.358 446.221 303.638 444.659C299.332 435.177 296.642 424.975 295.664 414.596C295.175 409.461 295.107 404.285 295.474 399.137C293.328 399.205 291.181 399.273 289.021 399.341C291.833 395.062 293.898 390.293 295.121 385.321C290.706 386.313 286.087 386.285 281.686 385.253C285.598 379.806 293.07 370.989 290.014 364.074C286.523 356.195 282.013 348.995 279.214 340.735C273.957 325.126 273.128 307.751 278.657 292.224C284.172 276.71 296.412 263.343 312.035 258.085C319.928 255.423 328.391 254.852 336.719 255.178C349.163 255.667 362.15 258.411 371.51 266.616C382.076 275.88 386.301 290.919 385.092 304.925Z" fill="#B25109"/>
<path d="M350.193 448C349.908 448.693 349.527 449.399 348.862 449.766C348.305 450.065 347.639 450.065 347.001 450.051C334.979 449.874 322.942 449.684 310.92 449.508C309.48 449.481 307.959 449.44 306.695 448.734C305.201 447.878 304.358 446.221 303.638 444.659C299.332 435.177 296.642 424.975 295.664 414.596C297.906 411.961 301.9 409.23 302.945 406.717C300.663 412.246 303.828 419.364 309.452 421.361C316.353 423.82 323.906 418.848 327.805 412.653C327.452 414.174 327.099 415.682 326.759 417.204C329.286 417.883 331.84 417.041 334.394 416.267C333.416 419.297 332.479 422.312 331.555 425.342C337.437 424.106 343.917 426.388 347.735 431.02C351.551 435.665 352.543 442.471 350.193 448Z" fill="#E0BB86"/>
<path d="M422.696 108.371C422.669 108.969 422.56 109.58 422.356 110.137C422.22 110.545 422.016 110.925 421.772 111.278C419.462 114.498 415.211 112.46 412.195 110.544C406.095 106.686 399.452 103.643 392.551 101.524C387.008 99.8258 379.17 100.179 374.347 97.0548C373.681 96.6198 373.043 96.1448 372.418 95.6288C366.142 90.4668 361.944 81.3648 359.051 72.9558C357.937 69.7088 357.013 66.5708 356.252 63.7998C352.897 51.6958 350.872 39.1568 345.9 27.6238C343.129 21.1848 339.42 15.0438 336.907 8.55081C335.494 4.9238 339.325 1.47279 342.803 3.23879C343.238 3.45579 343.659 3.67377 344.094 3.89077C364.376 14.3108 383.762 27.2028 398.542 44.5498C410.103 58.0938 418.675 74.6128 421.636 92.0558C422.546 97.4218 422.927 102.883 422.696 108.371Z" fill="#FF7D00"/>
<path d="M409.844 89.5018C400.158 89.6648 390.431 87.2738 381.914 82.6418C380.284 74.5588 379.686 66.1368 376.915 58.3928C373.6 49.1548 367.786 41.0448 361.564 33.4778C358.48 29.7418 355.057 25.2048 356.361 20.5448C373.057 27.4728 387.647 39.3868 397.768 54.3708C404.873 64.8858 409.75 76.8948 412.1 89.3658C411.352 89.4748 410.605 89.4878 409.844 89.5018Z" fill="#FFDCA2"/>
<path d="M413.689 105.423C413.689 105.858 413.689 106.306 413.662 106.741C406.774 104.078 399.738 101.796 392.592 99.8938C389.631 97.8158 386.37 96.4428 384.971 93.1018C383.558 89.7468 382.634 86.2278 381.914 82.6418C390.432 87.2748 400.158 89.6648 409.844 89.5018C410.605 89.4878 411.352 89.4748 412.099 89.3658C413.091 94.6498 413.635 100.03 413.689 105.423Z" fill="#E0BB86"/>
<path d="M392.593 99.8938C385.95 98.1278 379.226 96.7017 372.42 95.6277C366.144 90.4657 361.946 81.3638 359.053 72.9548C361.254 73.0228 362.979 74.8158 364.541 76.3918C366.144 78.0088 368.29 79.6248 370.491 79.0268C371.021 78.8778 371.51 78.6057 372.04 78.4427C374.159 77.8317 376.292 79.2038 378.14 80.4128C379.363 81.2148 380.626 81.9617 381.917 82.6407C382.637 86.2267 383.561 89.7458 384.974 93.1008C386.371 96.4438 389.631 97.8158 392.593 99.8938Z" fill="#EA6A00"/>
<path d="M422.697 108.371C422.67 108.969 422.561 109.58 422.357 110.137C421.189 109.811 420.048 109.322 418.934 108.86C417.195 108.127 415.429 107.42 413.663 106.741C413.69 106.306 413.69 105.858 413.69 105.423C413.636 100.03 413.092 94.6498 412.101 89.3658C412.658 89.3118 413.215 89.2168 413.758 89.0668C414.369 88.8898 414.98 88.6458 415.619 88.6048C417.1 88.4828 418.458 89.3788 419.613 90.3028C420.306 90.8598 420.985 91.4438 421.637 92.0548C422.547 97.4218 422.928 102.883 422.697 108.371Z" fill="#EA6A00"/>
<path d="M413.662 106.741C413.608 107.624 413.445 108.494 412.996 109.254C411.407 111.889 407.413 111.55 404.696 110.123C400.661 108.004 397.768 104.431 394.467 101.388C393.869 100.831 393.244 100.342 392.592 99.8938C399.737 101.796 406.774 104.078 413.662 106.741Z" fill="#FFDCA2"/>
<path d="M492.855 193.084C486.375 202.729 479.868 210.405 472.94 216.056C469.326 218.026 465.59 219.765 461.814 221.368C455.062 224.234 447.862 227.101 440.567 227.929C440.581 227.943 440.594 227.97 440.608 227.983C438.951 228.01 437.252 227.942 435.527 227.82C411.699 226.041 391.145 205.487 391.145 205.487C391.145 205.487 399.826 254.338 399.853 255.031C399.853 255.153 399.867 255.289 399.867 255.411C397.558 253.278 395.941 251.757 395.764 251.594C395.886 252.26 398.155 263.304 400.356 277.16C400.329 290.079 399.772 303.08 398.998 315.687C398.183 329.068 392.409 341.756 384.245 352.447C384.245 352.461 384.245 352.461 384.231 352.461C383.497 353.439 382.723 354.404 381.949 355.341C381.936 355.368 381.908 355.382 381.895 355.409C376.638 361.726 370.606 367.296 364.167 372.417C362.863 373.463 361.532 374.482 360.187 375.487C356.41 378.326 352.525 381.029 348.613 383.638C340.435 389.086 331.999 394.221 322.978 398.106C315.533 401.298 307.777 403.608 300.06 406.067C296.908 407.059 293.77 408.078 290.659 409.192C285.836 410.931 281.082 412.887 276.313 414.735C268.284 416.243 260.174 417.601 252.336 418.783C249.225 419.259 246.169 419.707 243.166 420.114C243.166 420.114 243.166 420.114 243.166 420.128C239.96 420.563 236.835 420.984 233.806 421.351C234.54 418.58 234.839 416.623 234.839 416.623C234.364 414.939 233.97 413.118 233.63 411.162C233.413 411.121 233.209 411.081 232.992 411.026C233.155 410.795 233.332 410.564 233.495 410.32C232.938 406.869 232.598 403.025 232.422 398.854C232.313 396.504 232.273 394.058 232.273 391.505C232.273 389.005 232.327 386.397 232.45 383.721C232.45 383.286 232.464 382.851 232.491 382.403C232.532 381.276 232.586 380.121 232.654 378.953C232.763 376.969 232.899 374.932 233.048 372.867C234.76 349.759 239.107 322.25 244.174 295.76C250.342 263.51 258.751 233.424 263.587 213.848C269.628 205.535 274.303 195.859 277.715 186.891C280.158 180.471 282.257 174.335 282.348 169.693C282.701 151.625 311.773 91.1998 351.631 90.6698C356.44 90.6158 361.072 90.5338 365.528 90.5208C377.469 90.4668 388.215 90.7928 397.955 92.6668C414.759 95.8868 428.575 103.698 440.408 122.037C461.668 154.994 454.237 155.524 461.668 158.363C462.008 158.485 462.361 158.607 462.741 158.689C467.02 159.789 473.853 158.893 480.469 157.901C486.188 157.032 491.731 156.067 495.344 156.23C499.569 156.42 503.21 159.626 503.427 166.133C503.642 172.204 500.884 181.116 492.855 193.084Z" fill="#FF7D00"/>
<path d="M432.361 136.098C432.045 137.748 431.917 139.445 432.118 141.113C432.558 144.773 434.564 148.103 437.119 150.761C438.597 152.299 440.325 153.681 442.368 154.294C444.411 154.907 446.815 154.627 448.377 153.175C449.778 151.873 450.304 149.837 450.199 147.926C450.094 146.016 449.437 144.185 448.786 142.386C447.134 137.819 445.358 132.5 441.586 129.194C436.931 125.115 433.132 132.074 432.361 136.098Z" fill="#EA6A00"/>
<path d="M371.137 146.625C368.901 151.935 369.227 158.064 371.001 163.546C371.826 166.093 373.02 168.635 375.101 170.319C378.158 172.794 382.657 172.908 386.285 171.391C389.914 169.873 392.788 166.964 395.159 163.826C396.094 162.589 396.969 161.301 397.668 159.918C400.001 155.302 400.188 149.586 397.881 144.957C391.996 133.145 375.978 135.127 371.137 146.625Z" fill="#EA6A00"/>
<path d="M399.221 149.981C399.221 151.285 399.017 152.549 398.664 153.73C398.65 153.744 398.65 153.744 398.65 153.757C397.047 158.906 392.224 162.655 386.546 162.655C379.55 162.655 373.871 156.977 373.871 149.98C373.871 147.657 374.496 145.483 375.583 143.622C375.583 143.622 375.597 143.608 375.597 143.595C377.798 139.832 381.887 137.319 386.546 137.319C393.543 137.32 399.221 142.985 399.221 149.981Z" fill="#E2E2E2"/>
<path d="M399.221 149.981C399.221 151.285 399.017 152.549 398.664 153.73C398.65 153.744 398.65 153.744 398.65 153.757C396.449 157.52 392.374 160.047 387.701 160.047C380.705 160.047 375.026 154.369 375.026 147.372C375.026 146.068 375.216 144.804 375.583 143.623C375.583 143.623 375.597 143.609 375.597 143.596C377.798 139.833 381.887 137.32 386.546 137.32C393.543 137.32 399.221 142.985 399.221 149.981Z" fill="white"/>
<path d="M388.273 160.929C394.316 160.929 399.215 156.03 399.215 149.987C399.215 143.944 394.316 139.045 388.273 139.045C382.23 139.045 377.331 143.944 377.331 149.987C377.331 156.03 382.23 160.929 388.273 160.929Z" fill="#201600"/>
<path d="M395.28 144.879C396.221 147.032 396.112 149.159 395.036 149.63C393.959 150.101 392.323 148.737 391.382 146.584C390.441 144.431 390.55 142.304 391.627 141.833C392.702 141.362 394.338 142.726 395.28 144.879Z" fill="white"/>
<path d="M481.213 211.016C475.793 214.888 467.998 218.743 461.814 221.368C455.062 224.234 447.862 227.101 440.567 227.929C440.729 228.091 431.922 228.883 422.717 232.236C400.288 240.292 399.867 254.23 399.867 255.344C399.867 257.819 401.472 275.402 398.998 315.688C398.477 323.661 396.504 330.397 393.374 337.369C386.345 352.894 373.915 365.226 360.186 375.488C349.774 383.316 335.125 392.874 322.977 398.107C312.506 402.597 301.05 405.472 290.659 409.192C281.781 412.393 272.654 416.517 263.693 419.19C256.612 421.292 248.923 422.706 241.618 424.013C238.416 424.576 237.31 425.6 232.149 426.445C233.417 423.201 234.437 419.256 234.839 416.623C234.364 414.939 233.97 413.118 233.63 411.162C233.413 411.121 233.209 411.081 232.992 411.026C233.155 410.795 233.332 410.564 233.495 410.32C232.205 402.327 232.086 391.678 232.449 383.721C234.333 384.008 236.928 384.364 238.82 384.617L238.834 384.631C238.935 384.631 239.242 384.681 241.877 385.052C251.862 386.411 261.942 387.783 271.981 386.832C292.046 384.944 310.63 373.587 323.155 357.801C335.639 342.059 345.825 322.694 343.315 302.674C342.283 294.509 340.177 286.467 337.066 278.833C333.534 270.207 327.679 261.309 318.563 259.38C311.567 257.886 304.476 260.888 297.955 263.822C299.463 257.967 300.984 252.098 302.492 246.243C297.887 248.362 292.738 249.3 287.671 248.946C292.385 242.425 296.596 235.538 300.278 228.379C294.885 227.673 289.614 226.083 284.737 223.692C309.733 208.518 340.761 208.273 368.61 199.375C374.696 197.432 380.7 195.042 385.971 191.455C397.871 183.358 405.289 169.081 405.085 154.695C404.788 135.843 391.82 107.807 365.526 90.5198C377.467 90.4658 388.213 90.7918 397.953 92.6658C426.272 117.704 433.2 150.51 443.435 156.365C451.779 161.041 470.804 157.481 480.467 157.9C488.642 158.203 497.064 160.557 503.357 165.752C506.489 179.848 500.501 197.775 481.213 211.016Z" fill="#FFDCA2"/>
<path d="M489.235 159.056C489.113 159.11 488.977 159.151 488.855 159.192C485.989 160.116 482.973 160.442 479.998 160.89C473.858 161.827 467.799 163.267 461.903 165.224C459.227 166.121 456.564 167.112 453.793 167.71C450.003 168.525 446.09 168.593 442.219 168.62C434.761 168.674 427.317 168.661 419.858 168.552C418.989 168.538 415.226 169.027 414.804 168.049C414.261 166.786 417.249 165.712 418.064 165.305C421.025 163.811 424.068 162.452 427.152 161.243C432.436 159.178 437.884 157.548 443.44 156.366C445.573 157.561 448.045 158.078 450.477 158.39C454.553 158.906 458.641 158.879 462.744 158.689C467.716 158.458 472.715 157.983 477.687 157.874C478.611 157.86 479.535 157.86 480.472 157.901C483.407 158.01 486.355 158.377 489.235 159.056Z" fill="#E0BB86"/>
<path d="M448.134 138.131C448.4 139.322 448.541 140.501 448.579 141.625C448.574 141.639 448.574 141.639 448.577 141.652C448.708 146.557 446.71 150.597 443.457 151.324C439.449 152.219 435.038 147.761 433.612 141.374C433.138 139.253 433.053 137.189 433.297 135.351C433.297 135.351 433.302 135.337 433.299 135.325C433.793 131.608 435.623 128.791 438.292 128.194C442.299 127.299 446.707 131.744 448.134 138.131Z" fill="#E2E2E2"/>
<path d="M448.134 138.131C448.4 139.322 448.541 140.501 448.579 141.625C448.574 141.639 448.574 141.639 448.577 141.652C448.083 145.369 446.264 148.197 443.586 148.795C439.578 149.69 435.167 145.232 433.741 138.845C433.475 137.654 433.327 136.477 433.296 135.351C433.296 135.351 433.301 135.337 433.298 135.325C433.792 131.608 435.622 128.791 438.291 128.194C442.299 127.299 446.707 131.744 448.134 138.131Z" fill="white"/>
<path d="M448.131 138.137C449.363 143.654 447.555 148.753 444.093 149.526C440.631 150.299 436.826 146.453 435.594 140.937C434.362 135.42 436.17 130.321 439.632 129.548C443.094 128.774 446.899 132.62 448.131 138.137Z" fill="#201600"/>
<path d="M444.835 133.977C445.813 135.822 446.184 137.778 445.664 138.346C445.143 138.914 443.928 137.878 442.949 136.032C441.971 134.187 441.6 132.231 442.121 131.663C442.642 131.096 443.857 132.132 444.835 133.977Z" fill="white"/>
<path d="M487.919 154.899C494.036 154.553 501.128 155.261 504.64 160.281C507.766 164.749 506.749 170.834 505.192 176.06C504.087 179.768 502.508 183.74 499.1 185.573C497.363 186.508 495.345 186.762 493.374 186.851C481.709 187.381 470.146 182.578 461.338 174.913C443.677 159.545 479.035 155.402 487.919 154.899Z" fill="#201600"/>
<path d="M364.579 135.052C350.354 127.167 382.994 108.862 386.604 121.391C388.44 127.765 370.276 138.21 364.579 135.052Z" fill="#FFDCA2"/>
<path d="M431.04 115.906C433.052 115.939 435.226 116.158 436.767 118.032C437.441 118.851 437.967 120.22 437.592 121.373C437.345 122.134 436.78 122.56 436.237 122.857C433.504 124.352 430.481 123.943 427.559 123.906C426.688 123.895 425.804 123.916 424.964 123.58C424.125 123.243 423.319 122.484 422.976 121.325C421.368 115.887 429.205 115.876 431.04 115.906Z" fill="#FFDCA2"/>
<path d="M252.336 418.783C252.146 419.911 251.915 421.024 251.616 422.125C248.288 422.818 244.96 423.416 241.618 424.014C241.387 424.055 241.156 424.109 240.925 424.15C238.697 424.653 236.619 425.576 234.377 426.025C233.63 426.174 232.896 426.324 232.149 426.446C232.855 424.639 233.399 422.873 233.806 421.352C234.54 418.581 234.839 416.624 234.839 416.624C234.364 414.94 233.97 413.119 233.63 411.163C233.413 411.122 233.209 411.082 232.992 411.027C233.155 410.796 233.332 410.565 233.495 410.321C232.938 406.87 232.598 403.026 232.422 398.855C232.816 396.967 232.897 394.997 232.626 392.945C232.558 392.47 232.449 391.994 232.273 391.505C232.273 389.005 232.327 386.397 232.45 383.721C232.45 383.286 232.464 382.851 232.491 382.403C234.08 382.865 236.159 383.599 238.821 384.617L238.835 384.631H238.849C242.68 386.098 250.939 391.668 252.271 395.689C252.909 397.591 252.964 399.629 253.032 401.626C253.192 407.331 253.314 413.199 252.336 418.783Z" fill="#E0BB86"/>
<path d="M285.468 142.832C272.733 137.61 264.332 125.011 260.116 111.908C255.899 98.8058 255.136 84.8898 253.091 71.2778C250.004 50.7278 243.965 30.7578 239.017 10.5748C238.523 8.56079 238.044 6.41279 238.714 4.44979C239.648 1.71379 242.661 0.109793 245.55 0.00679311C248.439 -0.0972069 251.227 1.00882 253.844 2.23482C270.132 9.86782 283.377 22.7318 295.128 36.3518C306.878 49.9708 317.5 64.6118 330.33 77.2198C333.716 80.5478 337.287 83.7708 339.867 87.7568C342.447 91.7428 343.958 96.6988 342.736 101.286C341.793 104.826 339.362 107.75 336.999 110.549C332.312 116.1 327.625 121.65 322.938 127.201C312.328 139.767 302.885 149.974 285.468 142.832Z" fill="#FF7D00"/>
<path d="M326.692 99.8938C326.624 100.247 326.502 100.6 326.339 100.926C325.66 102.325 324.247 103.398 322.726 103.181C320.824 102.896 319.71 100.817 319.479 98.9148C317.93 99.0918 316.925 100.6 316.137 101.958C313.461 106.618 310.771 111.277 308.095 115.95C307.253 113.206 306.601 110.421 306.125 107.595C303.585 112.662 301.302 117.865 299.333 123.177C298.205 126.206 296.956 134.221 292.051 132.618C291.331 132.387 290.638 131.925 289.959 131.327C287.147 128.8 284.729 123.706 283.398 121.138C281.17 116.845 279.513 112.281 278.249 107.635C275.831 98.7908 274.812 89.6488 273.576 80.5598C271.728 66.9208 269.419 53.3488 266.621 39.8728C265.629 35.0498 264.556 30.1598 264.882 25.2418C264.991 23.5568 265.684 21.4518 267.368 21.3158C268.36 21.2348 269.229 21.8998 269.976 22.5518C279.526 30.7568 286.753 41.2848 293.573 51.8678C297.526 58.0218 301.452 64.2978 306.777 69.3108C308.991 71.4028 311.45 73.2508 313.515 75.4918C315.077 77.2038 316.395 79.1188 317.713 81.0208C320.675 85.2998 323.65 89.6068 325.701 94.3888C326.447 96.1308 327.072 98.0468 326.692 99.8938Z" fill="#FFDCA2"/>
<path d="M495.501 157.649C497.462 157.751 499.901 158.294 500.321 160.212C496.76 161.333 492.96 161.336 489.253 161.777C485.546 162.218 481.69 163.217 479.053 165.86C478.446 166.468 477.9 167.187 477.733 168.03C477.251 170.465 480.021 172.947 478.939 175.181C478.423 176.246 477.148 176.772 475.966 176.739C474.784 176.706 473.666 176.219 472.591 175.723C469.997 174.524 467.38 173.166 465.525 170.992C463.869 169.051 462.15 165.091 464.491 163.175C466.725 161.348 470.97 160.357 473.714 159.59C480.777 157.616 488.212 157.27 495.501 157.649Z" fill="#595651"/>
<path d="M493.718 157.574C494.245 157.624 494.938 157.898 494.835 158.417C494.763 158.78 494.333 158.927 493.972 159.006C492.349 159.36 480.595 161.782 480.431 160.184C480.088 156.852 491.91 157.403 493.718 157.574Z" fill="white"/>
<path d="M336.399 330.699C336.127 333.959 335.584 337.165 334.823 340.331C332.337 350.778 327.528 360.695 322.067 370C314.949 382.118 306.621 393.542 300.1 405.986C300.086 406.013 300.073 406.04 300.059 406.067C294.041 417.519 289.626 429.705 285.7 442.04C284.722 445.069 283.785 448.085 282.861 451.115C288.743 449.879 295.223 452.161 299.041 456.793C302.858 461.439 303.85 468.245 301.5 473.774C301.215 474.467 300.834 475.173 300.169 475.54C299.612 475.839 298.946 475.839 298.308 475.825C286.285 475.649 274.249 475.458 262.227 475.282C260.787 475.255 259.266 475.214 258.002 474.508C256.508 473.652 255.666 471.995 254.945 470.433C250.639 460.951 247.949 450.749 246.971 440.37C246.862 439.215 246.767 438.061 246.713 436.892C246.468 432.898 246.496 428.904 246.781 424.91C244.635 424.978 242.488 425.046 240.328 425.114C240.532 424.802 240.749 424.476 240.926 424.149C241.755 422.845 242.488 421.5 243.167 420.128C243.167 420.114 243.167 420.114 243.167 420.114C244.566 417.234 245.667 414.205 246.427 411.094C242.229 412.031 237.841 412.059 233.63 411.162C233.413 411.121 233.209 411.081 232.992 411.026C233.155 410.795 233.332 410.564 233.495 410.32C237.516 404.845 244.254 396.477 241.32 389.848C240.532 388.082 239.703 386.343 238.834 384.632L238.82 384.618C238.766 384.482 238.698 384.346 238.63 384.21C238.616 384.196 238.603 384.183 238.603 384.169C236.742 380.406 234.772 376.711 233.047 372.866C233.835 362.134 235.193 350.465 236.946 338.388C238.943 324.45 241.456 309.955 244.173 295.759C249.621 290.447 256.114 286.277 263.341 283.859C271.234 281.196 279.697 280.626 288.025 280.952C300.469 281.441 313.456 284.185 322.816 292.39C333.383 301.654 337.608 316.693 336.399 330.699Z" fill="#FF7D00"/>
<path d="M301.506 473.776C301.221 474.469 300.84 475.175 300.175 475.542C299.618 475.841 298.952 475.841 298.314 475.827C286.291 475.65 274.255 475.46 262.233 475.284C260.793 475.257 259.272 475.216 258.008 474.51C256.514 473.654 255.671 471.997 254.951 470.435C250.645 460.953 247.955 450.751 246.977 440.372C249.218 437.737 253.212 435.006 254.258 432.493C251.976 438.022 255.141 445.14 260.765 447.138C267.666 449.597 275.219 444.625 279.118 438.43C278.765 439.952 278.412 441.459 278.072 442.981C280.599 443.66 283.153 442.818 285.707 442.044C284.729 445.074 283.792 448.089 282.868 451.119C288.75 449.883 295.23 452.165 299.048 456.797C302.865 461.441 303.857 468.247 301.506 473.776Z" fill="#FFDCA2"/>
<path d="M326.338 100.927C325.659 102.326 324.246 103.399 322.725 103.182C320.823 102.897 319.709 100.818 319.478 98.9158C317.929 99.0928 316.924 100.601 316.136 101.959C313.46 106.619 310.77 111.278 308.094 115.951C307.252 113.207 306.6 110.422 306.124 107.596C303.584 112.663 301.301 117.866 299.332 123.178C298.204 126.207 296.955 134.222 292.05 132.619C291.33 132.388 290.637 131.926 289.958 131.328C290.99 131.097 292.362 131.559 293.409 130.635C294.55 129.603 295.093 128.067 295.583 126.6C298.11 119.047 300.65 111.48 303.191 103.927C304.156 101.034 305.215 98.0038 307.497 95.9938C309.399 98.2078 308.543 102.297 311.07 103.778C313.678 99.6618 316.871 95.8988 320.525 92.6658C320.824 94.4458 321.136 96.2118 321.435 97.9778C321.598 98.9288 321.788 99.9207 322.4 100.654C323.336 101.81 325.184 101.796 326.338 100.927Z" fill="#E0BB86"/>
<path d="M238.846 384.63H238.832C237.514 384.453 236.183 384.263 234.879 384.073C234.064 383.965 233.249 383.842 232.447 383.72C232.447 383.285 232.461 382.85 232.488 382.402C232.529 381.275 232.583 380.12 232.651 378.952C235.286 380.46 237.813 383.082 238.601 384.168C238.601 384.182 238.615 384.195 238.628 384.209C238.778 384.426 238.86 384.576 238.846 384.63Z" fill="#B25109"/>
<path d="M481.213 211.016C480.738 211.356 480.262 211.682 479.773 211.967C478.999 212.008 478.211 212.035 477.437 212.035C476.853 212.062 476.255 212.062 475.671 212.049C472.533 211.967 469.408 211.75 466.298 211.315C463.201 210.84 460.117 210.242 457.074 209.44C454.031 208.625 451.042 207.661 448.067 206.56C445.119 205.473 442.185 204.278 439.264 202.96C437.797 202.322 436.37 201.601 434.903 200.909C433.952 200.433 433.028 199.985 432.05 199.469C431.439 200.27 430.895 201.126 430.393 202.036C429.401 203.626 428.885 205.446 428.111 207.457C427.5 205.46 427.296 203.218 427.853 201.086C428.138 199.836 428.6 198.614 429.252 197.486C429.7 196.671 430.23 195.91 430.828 195.231C431.562 194.389 432.35 193.614 433.233 192.949C434.089 192.297 435.026 191.727 435.991 191.278C437.947 190.382 440.039 189.811 442.213 189.947C442.39 189.947 442.512 190.096 442.485 190.259C442.485 190.341 442.444 190.408 442.376 190.476H442.362C440.039 192.242 437.879 193.804 435.936 195.475C436.439 195.964 436.982 196.453 437.512 196.901C438.653 197.906 439.876 198.816 441.112 199.699C443.612 201.438 446.261 203 449.018 204.331C454.561 206.994 460.47 208.828 466.515 209.982C469.545 210.512 472.615 210.879 475.698 211.015C476.595 211.042 477.518 211.069 478.428 211.069C479.352 211.071 480.29 211.057 481.213 211.016Z" fill="#A14944"/>
<path d="M32.5763 398.245C27.7293 409.033 20.3413 419.69 9.16829 423.567C13.6573 424.202 16.2423 430.336 13.5623 433.992C12.2443 435.791 10.1333 436.791 8.18129 437.869C5.81529 439.176 3.56729 440.694 1.47029 442.4C0.690289 443.035 -0.144708 443.888 0.0212918 444.88C0.139292 445.587 0.73629 446.102 1.30229 446.543C8.79729 452.385 17.7773 456.581 27.2483 457.356C36.7193 458.131 46.6683 455.228 53.4693 448.592C59.4963 442.712 62.6423 434.502 64.7813 426.358C66.9903 417.943 68.3143 409.296 68.7223 400.606C69.0853 392.896 68.6463 384.838 64.9693 378.051C61.4433 371.543 51.8053 363.773 45.0903 369.584C38.5803 375.217 36.0503 390.512 32.5763 398.245Z" fill="#B25109"/>
<path d="M233.63 411.161C233.413 411.12 233.209 411.08 232.992 411.025C233.155 410.794 233.332 410.563 233.495 410.319C233.535 410.604 233.575 410.89 233.63 411.161Z" fill="#E0BB86"/>
<path d="M290.387 375.868C288.621 396.911 284.396 411.895 276.313 414.734C268.936 417.329 258.517 421.119 246.752 425.48C240.612 427.749 234.091 430.18 227.448 432.694C211.241 438.793 194.274 445.328 180.01 450.993C161.1 458.519 146.958 464.537 145.763 466.072C145.016 467.05 140.085 467.607 133.007 467.906C130.861 467.987 128.51 468.055 126.024 468.096C102.128 468.517 65.1504 467.023 65.1504 467.023C65.1504 467.023 26.1754 454.131 34.6794 378.355C43.1834 302.565 190.416 274.54 216.118 262.069C254.4 243.512 277.712 186.891 277.712 186.891C277.712 186.891 295.875 310.566 290.387 375.868Z" fill="#FF7D00"/>
<path d="M173.775 423.442C173.694 425.194 173.503 427.056 172.403 428.428C172.281 428.577 172.145 428.713 172.009 428.835C170.99 429.732 169.784 430.548 168.698 429.869C168.521 429.76 168.327 429.997 168.178 429.834C168.232 429.983 167.948 429.284 168.016 429.434C166.236 429.638 164.457 429.787 162.65 429.855C164.28 431.73 165.666 433.795 166.793 435.982C161.631 438.074 156.577 440.451 151.673 443.087C154.974 437.721 157.501 431.853 159.172 425.793C163.343 410.646 162.446 394.371 158.18 379.251C155.952 371.345 152.773 363.601 147.747 357.108C144.677 353.155 134.42 348.006 134.543 343.102C143.835 342.355 154.934 355.763 159.784 362.569C166.142 371.48 170.299 381.982 171.535 392.863C169.429 391.898 167.568 390.363 166.237 388.462C171.71 399.207 174.346 411.392 173.775 423.442Z" fill="#B25109"/>
<path d="M180.01 450.992C161.1 458.518 146.958 464.536 145.763 466.071C145.016 467.049 140.085 467.606 133.007 467.905C131.39 467.008 130.344 464.848 131.255 463.245C131.717 462.417 132.586 461.914 133.401 461.438C134.827 460.623 136.254 459.808 137.68 458.979C143.25 454.605 147.964 449.157 151.672 443.085C156.576 440.45 161.63 438.072 166.792 435.98C165.665 433.793 164.279 431.728 162.649 429.853C164.456 429.785 166.235 429.636 168.015 429.432C171.099 437.081 175.147 444.336 180.01 450.992Z" fill="#E0BB86"/>
<path d="M164.619 480.335C138.604 481.028 112.562 480.009 86.6831 477.265C86.1531 477.211 85.6371 477.156 85.1071 477.102C82.9471 476.871 80.7051 476.599 78.8171 475.526C75.8561 473.828 74.1981 470.106 74.9451 466.777C75.6791 463.435 78.7491 460.759 82.1591 460.487C74.2661 455.814 66.2241 451.018 60.2871 444.036C51.0631 433.168 48.0741 418.089 49.1341 403.879C50.6691 383.352 60.0971 364.782 74.4431 350.26C86.6421 337.911 107.25 336.01 123.647 340.452C147.108 346.796 161.372 372.662 160.774 396.965C160.217 419.285 149.648 440.097 136.362 458.205C135.194 459.808 133.998 461.384 132.789 462.932C140.057 461.112 147.909 459.848 154.905 462.565C161.888 465.283 167.281 473.326 164.619 480.335Z" fill="#FF7D00"/>
<path d="M164.619 480.335C138.604 481.028 112.562 480.009 86.6829 477.265C80.2849 470.445 84.6449 464.305 84.6449 464.305H88.1909V454.157L92.7959 461.819V454.157C92.7959 454.157 109.451 460.759 124.693 458.626C128.307 458.123 132.328 458.042 136.362 458.205C135.194 459.808 133.998 461.384 132.789 462.932C140.057 461.112 147.909 459.848 154.905 462.565C161.888 465.283 167.281 473.326 164.619 480.335Z" fill="#FFDCA2"/>
<path d="M241.169 397.862C241.155 397.862 241.142 397.876 241.128 397.876C233.262 401.299 225.057 403.921 216.675 405.701C218.944 391.152 220.506 376.466 221.362 361.754C219.732 362.243 218.115 362.746 216.485 363.235C220.941 356.755 224.582 343.252 231.32 339.244C234.091 337.6 235.857 337.519 236.944 338.388C235.192 350.465 233.833 362.134 233.045 372.866C234.77 376.711 236.74 380.406 238.601 384.169C238.601 384.183 238.615 384.196 238.628 384.21C238.696 384.346 238.764 384.482 238.818 384.618L238.832 384.632C239.702 386.344 240.53 388.082 241.318 389.848C242.433 392.346 242.161 395.104 241.169 397.862Z" fill="#B25109"/>
<path d="M246.78 424.909C246.767 425.099 246.753 425.289 246.753 425.48C240.613 427.749 234.092 430.18 227.449 432.694C224.651 424.367 223.115 415.618 222.925 406.842C220.656 407.657 218.388 408.472 216.119 409.287C216.309 408.092 216.499 406.896 216.676 405.701C225.058 403.921 233.263 401.299 241.129 397.876C241.143 397.876 241.156 397.862 241.17 397.862C239.553 402.386 236.008 406.923 233.495 410.319C233.332 410.563 233.155 410.795 232.992 411.025C233.209 411.079 233.413 411.12 233.63 411.161C237.841 412.058 242.229 412.031 246.427 411.093C245.666 414.204 244.566 417.234 243.167 420.113C243.167 420.113 243.167 420.113 243.167 420.127C242.488 421.499 241.754 422.844 240.926 424.148C240.749 424.474 240.532 424.8 240.328 425.113C242.487 425.045 244.634 424.977 246.78 424.909Z" fill="#E0BB86"/>
<path d="M133.633 454.484C139.366 450.273 145.397 446.469 151.674 443.086C147.965 449.158 143.251 454.606 137.682 458.98C136.256 459.808 134.829 460.624 133.403 461.439C132.588 461.914 131.718 462.417 131.257 463.246C130.347 464.849 131.393 467.009 133.009 467.906C130.863 467.987 128.512 468.055 126.026 468.096C125.972 467.96 125.931 467.824 125.89 467.675C124.585 462.404 129.258 457.689 133.633 454.484Z" fill="#FFDCA2"/>
<path d="M222.926 406.841C223.116 415.617 224.651 424.366 227.45 432.693C211.243 438.792 194.276 445.327 180.012 450.992C175.149 444.336 171.1 437.081 168.017 429.433C168.112 429.419 168.207 429.406 168.302 429.392C169.552 429.243 170.775 429.052 172.011 428.835C187.348 426.118 201.762 418.633 215.673 411.297C213.241 409.925 210.796 408.553 208.364 407.181C211.149 406.787 213.92 406.298 216.678 405.701C216.501 406.896 216.311 408.092 216.121 409.287C218.389 408.472 220.657 407.657 222.926 406.841Z" fill="#FFDCA2"/>
<path d="M399.867 255.411C400.247 262.57 400.398 269.852 400.357 277.16C400.33 290.079 399.773 303.08 398.999 315.687C398.401 325.577 395.106 335.072 390.134 343.671C390.786 320.645 391.84 297.564 387.9 274.932C387.56 272.935 387.112 270.829 385.754 269.321C384.396 267.813 381.813 267.215 380.346 268.628C382.723 262.474 384.192 255.967 384.694 249.378C384.776 248.373 384.83 247.327 384.517 246.362C383.444 243.047 379.11 242.436 375.646 242.422C390.195 235.371 406.497 234.054 422.717 232.233C399.42 240.604 399.867 255.316 399.867 255.411Z" fill="#E0BB86"/>
</svg>
