<svg width="425" height="367" viewBox="0 0 425 367" fill="none" xmlns="http://www.w3.org/2000/svg">
<path d="M82.9074 18.484C91.8694 -4.41403 176.284 59.518 188.395 107.01C188.773 108.491 189.117 110.088 188.576 111.518C188.016 112.998 186.632 113.979 185.319 114.863C167.939 126.557 149.214 139.386 129.815 147.311C119.185 123.354 118.541 99.59 109.921 85.457C103.394 74.755 96.4894 64.194 91.2894 52.755C90.1344 50.215 79.5294 27.116 82.9074 18.484Z" fill="#B25109"/>
<path d="M231.819 56.6221C229.299 42.6161 224.969 28.948 223.157 14.832C222.759 11.733 222.497 8.50309 223.527 5.55409C224.557 2.60509 227.212 0.00600951 230.337 9.51056e-06C233.722 -0.00599049 236.364 2.828 238.387 5.542C241.986 10.371 245.094 15.5431 248.196 20.7051C263.267 45.7881 278.741 72.104 280.754 101.297C281.458 111.514 279.951 122.91 272.279 129.694C267.965 133.509 262.205 135.344 256.482 135.988C237.977 138.071 217.523 125.057 223.699 104.3C225.506 98.2261 230.216 93.627 232.174 87.598C235.318 77.918 233.58 66.4121 231.819 56.6221Z" fill="#B25109"/>
<path d="M207.45 85.892C229.816 85.569 252.023 97.023 264.727 115.433C231.872 119.19 199.017 122.947 166.163 126.704C160.322 127.372 150.478 127.388 150.677 119.261C150.833 112.902 160.308 105.465 164.731 101.825C176.677 91.995 191.943 86.115 207.45 85.892Z" fill="#B25109"/>
<path d="M407.737 358.551C392.152 364.236 381.363 365.521 369.758 353.669C360.279 343.992 354.26 331.621 345.769 321.066C325.5 329.347 302.599 331.04 281.329 325.824C266.375 322.166 252.384 315.245 237.479 311.413C217.284 306.235 195.619 306.951 175.808 313.452C161.385 318.185 148.087 325.848 133.837 331.088C121.268 335.71 107.29 338.355 94.4492 335.154C92.7192 334.722 91.0261 334.19 89.3451 333.535C87.7011 337.49 85.6742 341.346 83.2772 344.942C77.2332 354.001 68.8792 361.466 58.6702 365.001C44.4082 369.932 26.5492 365.52 18.6022 352.679C8.34415 336.118 17.4531 314.391 29.0821 298.744C26.8081 296.692 24.4602 294.369 22.1612 291.872C15.4872 284.667 9.11015 275.954 5.62515 267.809C-2.33385 249.122 -2.58084 226.011 9.65416 209.808C23.5702 191.393 49.3881 186.511 72.4011 188.291C74.8971 188.476 77.5421 188.699 79.7421 187.525C82.1271 186.264 83.4372 183.669 84.6612 181.259C102.73 145.603 134.937 116.362 173.609 106.178C189.898 101.889 206.917 100.987 223.749 101.432C235.243 101.741 246.761 102.668 257.934 105.35C297.928 114.941 331.285 145.912 340.517 185.98C360.724 183.076 379.436 196.955 393.228 211.996C404.524 224.306 414.621 238.518 417.946 254.906C421.283 271.282 418.107 292.848 404.499 302.55C404.907 302.797 405.315 303.044 405.747 303.316C412.495 307.481 421.876 314.39 424.187 328.566C426.634 343.646 422.099 353.323 407.737 358.551Z" fill="#FF7D00"/>
<path d="M94.4488 335.156C92.7188 334.724 91.0258 334.192 89.3448 333.537C87.7008 337.492 85.6738 341.348 83.2768 344.944C77.2328 354.003 68.8788 361.468 58.6698 365.003C44.4078 369.934 26.5488 365.522 18.6018 352.681C8.3438 336.12 17.4528 314.393 29.0818 298.746C33.3548 290.916 32.6178 296.488 29.0568 285.843C21.3068 262.674 70.0268 258.159 82.5218 269.01C87.7618 273.558 89.6898 280.776 90.9998 287.586C93.9918 303.232 95.1528 319.237 94.4488 335.156Z" fill="#FFDCA2"/>
<path d="M407.737 358.551C392.152 364.236 381.363 365.521 369.758 353.669C363.937 347.724 359.426 340.779 354.853 333.857C351.961 329.494 349.057 325.144 345.769 321.066C325.5 329.347 302.599 331.04 281.329 325.824C266.375 322.166 252.384 315.245 237.479 311.413C217.284 306.235 195.619 306.951 175.808 313.452C161.385 318.185 148.087 325.848 133.837 331.088C121.268 335.71 107.29 338.355 94.4492 335.154C92.7192 334.722 91.0262 334.19 89.3452 333.535C87.7012 337.49 85.6742 341.346 83.2772 344.942C80.1502 342.124 77.1842 339.121 74.2672 336.019C67.5562 328.826 61.2402 321.052 54.4682 313.501C45.9772 304.034 36.8192 295.432 29.0582 285.842C21.9392 277.055 15.9702 267.452 12.7572 255.624C8.07316 238.346 11.5462 217.818 25.3262 206.398C37.1662 196.597 53.7522 195.3 69.1142 195.547C78.9022 195.708 89.2102 196.486 97.3302 201.949C105.821 207.647 110.517 217.521 118.167 224.307C125.817 231.092 90.4952 185.512 127.276 161.857C148.954 147.916 180.271 149.869 197.24 169.272C202.505 175.303 207.127 183.052 214.95 184.746C221.018 186.056 227.161 183.189 232.463 179.951C246.799 171.151 259.393 158.768 275.571 154.133C291.749 149.511 316.986 155.282 326.49 169.162C340.036 188.936 330.618 208.686 334.425 205.695C343.546 198.527 357.005 198.972 367.337 204.237C377.681 209.502 385.393 218.771 391.82 228.424C406.54 250.509 415.747 280.715 401.2 302.912C402.733 302.974 404.253 303.11 405.748 303.32C412.496 307.485 421.877 314.394 424.188 328.57C426.634 343.646 422.099 353.323 407.737 358.551Z" fill="#FFDCA2"/>
<path d="M31.4277 294.85C31.9177 293.957 47.2867 275.693 73.7247 284.075C73.7247 284.075 43.4187 269.889 23.4287 284.72L31.4277 294.85Z" fill="#FF7D00"/>
<path d="M401.2 302.911C401.2 302.911 385.817 293.425 378.724 293.425C371.631 293.425 405.588 292.221 407.741 294.85C409.894 297.479 401.2 302.911 401.2 302.911Z" fill="#FF7D00"/>
<path d="M46.6978 295.262C43.9598 298.047 42.5378 301.845 41.4128 305.585C40.0248 310.201 38.9738 315.161 40.2818 319.801C42.2688 326.849 49.8558 331.6 57.1588 331.063C64.4618 330.526 70.9888 325.23 73.7948 318.467C74.5928 316.543 75.1258 314.488 75.1388 312.405C75.1598 309.064 73.8498 305.851 72.2128 302.938C67.3108 294.212 55.5208 286.288 46.6978 295.262Z" fill="#683421"/>
<path d="M18.2864 342.785C19.2704 343.706 20.7024 343.995 22.0494 343.947C26.4554 343.79 30.0894 340.584 33.1934 337.453C36.3864 334.231 37.9564 330.11 34.9444 326.109C32.9564 323.469 29.8964 322.519 26.7384 323.408C23.3394 324.365 20.5424 327.148 18.8594 330.163C17.1334 333.256 15.1884 339.888 18.2864 342.785Z" fill="#683421"/>
<path d="M31.722 351.485C31.81 352.103 31.94 352.736 32.296 353.249C32.661 353.776 33.228 354.124 33.794 354.425C35.314 355.234 36.996 355.827 38.718 355.787C40.23 355.752 41.699 355.229 43.022 354.495C49.037 351.161 54.966 337.031 45.567 333.856C36.596 330.826 30.763 344.73 31.722 351.485Z" fill="#683421"/>
<path d="M53.4102 342.599C52.6142 344.561 51.9002 346.604 51.8682 348.721C51.8352 350.838 52.5842 353.063 54.2552 354.363C56.4282 356.054 59.7082 355.752 61.9692 354.18C64.2302 352.608 65.5982 350.021 66.3712 347.378C67.4702 343.623 67.2852 337.074 62.7202 335.472C58.1682 333.875 54.7992 339.177 53.4102 342.599Z" fill="#683421"/>
<path d="M379.276 300.117C382.458 301.708 384.806 304.562 386.88 307.453C389.44 311.021 391.81 314.986 392.052 319.37C392.421 326.031 387.285 332.366 380.833 334.06C374.381 335.753 367.191 333.117 362.776 328.117C361.52 326.695 360.453 325.081 359.827 323.289C358.822 320.416 359.001 317.26 359.552 314.266C361.202 305.299 369.022 294.989 379.276 300.117Z" fill="#683421"/>
<path d="M417.796 332.684C417.219 333.768 416.071 334.44 414.896 334.796C411.052 335.961 406.974 334.272 403.374 332.49C399.671 330.656 397.101 327.568 398.515 323.231C399.449 320.368 401.805 318.646 404.79 318.48C408.002 318.301 411.234 319.874 413.575 321.975C415.976 324.13 419.61 329.272 417.796 332.684Z" fill="#683421"/>
<path d="M408.786 344.149C408.893 344.708 408.968 345.292 408.812 345.839C408.653 346.401 408.267 346.868 407.868 347.295C406.797 348.441 405.522 349.449 404.027 349.923C402.713 350.339 401.293 350.322 399.936 350.081C393.767 348.984 384.485 338.557 391.648 333.045C398.485 327.785 407.618 338.045 408.786 344.149Z" fill="#683421"/>
<path d="M387.471 342.895C388.737 344.351 389.955 345.901 390.608 347.716C391.261 349.531 391.273 351.669 390.217 353.283C388.843 355.382 385.927 356.091 383.515 355.403C381.102 354.716 379.16 352.89 377.713 350.841C375.657 347.929 373.883 342.23 377.344 339.502C380.794 336.782 385.263 340.357 387.471 342.895Z" fill="#683421"/>
<path d="M171.221 173.506C170.334 180.211 171.95 187.041 174.572 193.275C179.713 205.496 189.609 216.47 202.527 219.454C204.308 219.865 206.414 220.039 207.738 218.78C209.525 217.081 208.84 213.761 210.695 212.136C212.4 210.643 215.053 211.537 217.043 212.62C223.849 216.322 230.108 221.588 237.752 222.848C241.684 223.496 245.721 223.02 249.614 222.172C263.763 219.09 276.901 210.814 284.974 198.792C293.047 186.77 295.697 171.022 291.07 157.3C290.353 155.173 289.336 152.944 287.363 151.873C286.306 151.299 285.084 151.124 283.891 150.977C269.731 149.232 255.26 150.044 241.384 153.365C229.473 156.215 217.952 160.901 205.781 162.275C201.635 162.743 197.272 162.712 193.214 161.653C189.887 160.784 186.471 157.854 183.032 157.821C175.863 157.753 172.003 167.594 171.221 173.506Z" fill="#E0BB86"/>
<path d="M204.189 136.967C208.652 134.117 213.59 131.636 218.882 131.458C220.365 131.408 221.907 131.558 223.194 132.296C224.248 132.9 225.072 133.864 226.166 134.391C227.731 135.146 229.572 134.89 231.292 134.638C244.095 132.762 257.532 132.093 269.626 136.694C281.72 141.294 292.138 152.283 292.608 165.214C292.885 172.833 289.788 180.191 285.9 186.748C276.973 201.804 262.289 214.647 244.867 216.329C240.801 216.721 236.565 216.472 232.861 214.75C228.192 212.579 224.883 208.357 221.288 204.671C217.694 200.985 213.153 197.539 208.008 197.722C206.209 201.936 200.766 203.62 196.324 202.498C191.881 201.375 188.301 198.137 185.206 194.758C181.581 190.801 178.292 186.408 176.481 181.357C169.987 163.25 190.689 145.589 204.189 136.967Z" fill="#FF7D00"/>
<path d="M378.558 293.394C375.963 293.122 343.693 290.341 345.77 321.066C325.501 329.347 302.6 331.04 281.33 325.824C266.376 322.166 252.385 315.245 237.48 311.413C217.285 306.235 195.62 306.951 175.809 313.452C161.386 318.185 148.088 325.848 133.838 331.088C121.269 335.71 107.291 338.355 94.4503 335.154C92.7203 334.722 91.0273 334.19 89.3463 333.535C93.2143 318.012 89.2843 305.628 84.4023 297.138C93.2263 300.586 101.939 303.602 111.308 305.295C130.094 308.694 149.683 307.779 167.986 302.304C178.306 299.227 188.255 294.765 198.847 292.812C212.034 290.39 225.938 292.058 238.173 297.521C246.021 301.019 253.399 306.098 261.927 307.173C261.185 304.058 260.456 300.944 259.715 297.829C267.575 295.543 275.757 299.201 283.419 302.08C290.612 304.799 298.052 306.888 305.603 308.321C311.387 309.421 317.517 310.101 323.017 308.037C327.232 306.455 330.704 303.402 334.412 300.856C347.116 292.171 363.678 289.563 378.558 293.394Z" fill="#E0BB86"/>
<path d="M225.766 217.929C225.589 217.657 225.257 217.607 225.025 217.813L219.165 223.054L214.728 217.868C214.522 217.627 214.187 217.627 213.981 217.868C213.774 218.109 213.774 218.501 213.981 218.742L218.318 223.812L212.614 228.913C212.382 229.121 212.338 229.509 212.515 229.779C212.619 229.938 212.776 230.022 212.935 230.022C213.047 230.022 213.16 229.981 213.256 229.895L219.072 224.694L223.475 229.841C223.578 229.962 223.713 230.022 223.849 230.022C223.984 230.022 224.12 229.962 224.223 229.841C224.429 229.6 224.429 229.209 224.223 228.967L219.919 223.936L225.666 218.796C225.899 218.588 225.944 218.199 225.766 217.929Z" fill="#B39471"/>
<path d="M139.738 286.783C142.037 280.378 143.076 273.524 142.779 266.725C146.39 270.737 149.467 275.229 151.902 280.045C152.66 267.602 144.988 256.398 137.661 246.311C140.861 248.801 144.06 251.291 147.26 253.781C142.837 250.339 142.084 243.445 136.169 240.507C129.623 237.256 128.049 239.121 130.111 245.467C134.688 259.56 139.752 271.537 139.738 286.783Z" fill="#E0BB86"/>
<path d="M293.819 300.335C289.651 289.06 289.883 276.222 294.457 265.106C287.083 269.033 280.687 274.779 275.994 281.691C276.791 274.425 280.958 268.009 285.272 262.109C290.992 254.286 297.184 246.808 303.804 239.73C298.693 240.387 293.583 241.044 288.472 241.701C300.189 232.247 312.763 222.989 326.127 215.996C317.228 228.684 308.987 241.121 303.371 255.729C300.631 262.855 298.441 270.194 296.837 277.658C295.662 283.125 291.836 294.971 293.819 300.335Z" fill="#E0BB86"/>
</svg>
